<?xml version="1.0" encoding="UTF-8" standalone="no"?>
<!-- Created with Inkscape (http://www.inkscape.org/) -->

<svg
   xmlns:dc="http://purl.org/dc/elements/1.1/"
   xmlns:cc="http://creativecommons.org/ns#"
   xmlns:rdf="http://www.w3.org/1999/02/22-rdf-syntax-ns#"
   xmlns:svg="http://www.w3.org/2000/svg"
   xmlns="http://www.w3.org/2000/svg"
   xmlns:xlink="http://www.w3.org/1999/xlink"
   xmlns:sodipodi="http://sodipodi.sourceforge.net/DTD/sodipodi-0.dtd"
   xmlns:inkscape="http://www.inkscape.org/namespaces/inkscape"
   width="744.09448819"
   height="1052.3622047"
   id="svg3072"
   version="1.1"
   inkscape:version="0.48.4 r9939"
   sodipodi:docname="New document 4">
  <defs
     id="defs3074">
    <linearGradient
       inkscape:collect="always"
       xlink:href="#linearGradient4136"
       id="linearGradient4142"
       x1="125.37402"
       y1="521.40271"
       x2="164.08189"
       y2="521.40271"
       gradientUnits="userSpaceOnUse"
       gradientTransform="matrix(7.7617708,0,0,7.7617708,-674.27524,-3637.6866)" />
    <linearGradient
       id="linearGradient4136">
      <stop
         style="stop-color:#000000;stop-opacity:1;"
         offset="0"
         id="stop4138" />
      <stop
         style="stop-color:#000000;stop-opacity:0;"
         offset="1"
         id="stop4140" />
    </linearGradient>
    <linearGradient
       inkscape:collect="always"
       xlink:href="#linearGradient3281"
       id="linearGradient4197"
       gradientUnits="userSpaceOnUse"
       gradientTransform="matrix(2.0199969,0.03598568,-0.03519407,1.9755594,88.586007,495.65223)"
       x1="14.463"
       y1="12.285"
       x2="34.534"
       y2="39.685001" />
    <linearGradient
       id="linearGradient3281"
       x1="14.463"
       gradientUnits="userSpaceOnUse"
       y1="12.285"
       gradientTransform="matrix(1.2419,0,0,1.2419,-5.0275,-7.209)"
       x2="34.534"
       y2="39.685001">
      <stop
         id="stop3266"
         stop-color="#c9c9c9"
         offset="0" />
      <stop
         id="stop3276"
         stop-color="#f8f8f8"
         offset=".25" />
      <stop
         id="stop3272"
         stop-color="#e2e2e2"
         offset=".5" />
      <stop
         id="stop3274"
         stop-color="#b0b0b0"
         offset=".75" />
      <stop
         id="stop3268"
         stop-color="#c9c9c9"
         offset="1" />
    </linearGradient>
    <radialGradient
       inkscape:collect="always"
       xlink:href="#radialGradient3262"
       id="radialGradient4190"
       gradientUnits="userSpaceOnUse"
       gradientTransform="matrix(1.6265375,0.02897631,-0.00893582,0.50159706,94.291478,553.82995)"
       cx="25.455999"
       cy="39.160999"
       r="19.622" />
    <radialGradient
       id="radialGradient3262"
       gradientUnits="userSpaceOnUse"
       cy="39.160999"
       cx="25.455999"
       gradientTransform="matrix(1,0,0,0.31532,0,26.813)"
       r="19.622">
      <stop
         id="stop3258"
         offset="0" />
      <stop
         id="stop3260"
         stop-opacity="0"
         offset="1" />
    </radialGradient>
    <radialGradient
       r="19.622"
       cy="39.160999"
       cx="25.455999"
       gradientTransform="matrix(12.624811,0.22490747,-0.06935778,3.8932814,59.553721,662.97481)"
       gradientUnits="userSpaceOnUse"
       id="radialGradient3070"
       xlink:href="#radialGradient3262"
       inkscape:collect="always" />
  </defs>
  <sodipodi:namedview
     id="base"
     pagecolor="#ffffff"
     bordercolor="#666666"
     borderopacity="1.0"
     inkscape:pageopacity="0.0"
     inkscape:pageshadow="2"
     inkscape:zoom="0.35"
     inkscape:cx="375"
     inkscape:cy="520"
     inkscape:document-units="px"
     inkscape:current-layer="layer1"
     showgrid="false"
     inkscape:window-width="986"
     inkscape:window-height="1048"
     inkscape:window-x="5"
     inkscape:window-y="23"
     inkscape:window-maximized="0" />
  <metadata
     id="metadata3077">
    <rdf:RDF>
      <cc:Work
         rdf:about="">
        <dc:format>image/svg+xml</dc:format>
        <dc:type
           rdf:resource="http://purl.org/dc/dcmitype/StillImage" />
        <dc:title></dc:title>
      </cc:Work>
    </rdf:RDF>
  </metadata>
  <g
     inkscape:label="Layer 1"
     inkscape:groupmode="layer"
     id="layer1">
    <path
       d="m 625.93887,825.57488 a 247.76336,76.405981 1.0206002 0 1 -495.44807,-8.82619 247.76336,76.405981 1.0206002 1 1 495.44807,8.82619 z"
       style="opacity:0.40909005;color:#000000;fill:url(#radialGradient3070)"
       id="path3254"
       inkscape:connector-curvature="0" />
    <g
       id="g4192"
       transform="matrix(7.695479,1.0122674,-1.0122674,7.695479,-112.85174,-3736.9555)">
      <path
         inkscape:connector-curvature="0"
         id="path3243"
         style="color:#000000;fill:url(#linearGradient4197);stroke:#808080;stroke-width:1.60880232"
         d="m 134.36284,508.68504 c -0.75724,0.0372 -1.4961,0.13872 -2.24091,0.20871 l -0.0504,-9e-4 -1.94858,9.4632 c -2.91162,0.59403 -5.65885,1.64146 -8.13983,3.08716 l -7.87972,-5.75943 c -2.18645,1.59941 -4.18355,3.47478 -5.94552,5.51314 l 5.40047,8.00318 c -1.72775,2.48341 -3.04402,5.33219 -3.81018,8.33557 -4.2e-4,0.0143 -0.001,0.0477 -8.8e-4,0.0493 l -9.68414,1.32008 c -0.201754,1.40627 -0.305164,2.86361 -0.331094,4.31915 -0.02126,1.19307 -0.0087,2.36923 0.08952,3.5326 l 9.627444,1.86302 c 0.62845,3.29238 1.87871,6.37783 3.65144,9.11455 l -5.88139,7.60329 c 1.60932,2.02729 3.47608,3.87936 5.4947,5.51772 l 8.23009,-5.32254 c 2.80999,1.82272 5.9612,3.12322 9.39042,3.79695 l 1.3567,9.42215 c 1.08154,0.11634 2.19241,0.13931 3.30171,0.15907 1.56635,0.0279 3.06219,-0.004 4.57987,-0.16665 l 2.00079,-9.56284 c 3.27861,-0.73563 6.37083,-2.06016 9.06811,-3.86593 l 7.72934,5.70711 c 2.06001,-1.65322 3.95047,-3.56088 5.58979,-5.61941 l -5.54943,-8.15382 c 1.58834,-2.5766 2.70816,-5.43047 3.30455,-8.49416 l 9.63291,-1.32099 c 0.10204,-0.9784 0.13687,-1.92936 0.15473,-2.93153 0.031,-1.74029 -0.14516,-3.45085 -0.36586,-5.1272 l -9.72823,-1.91414 c -0.7169,-2.7752 -1.92505,-5.37456 -3.47292,-7.71901 l 5.88059,-7.60363 c -1.74312,-2.16127 -3.738,-4.1644 -5.94637,-5.87425 l -8.38314,5.42007 c -2.35671,-1.41986 -4.90131,-2.52226 -7.67203,-3.1701 l -1.35743,-9.47229 c -1.38459,-0.18439 -2.78346,-0.29822 -4.21481,-0.32372 -0.38712,-0.007 -0.78378,-0.0259 -1.16785,-0.0208 -0.18879,0.002 -0.37229,-0.0173 -0.55953,-0.01 -0.0505,0.002 -0.10242,-0.005 -0.1529,-0.003 z m 0.89037,24.18233 c 0.18722,-0.006 0.37247,0.007 0.55953,0.01 6.01656,0.10718 10.84312,4.99877 10.73829,10.88298 -0.10482,5.8842 -5.10164,10.54987 -11.1182,10.44269 -6.0166,-0.1056 -10.79198,-4.94694 -10.68716,-10.83115 0.10157,-5.70127 4.74612,-10.3207 10.50754,-10.50449 z" />
      <path
         inkscape:connector-curvature="0"
         id="path3283"
         style="opacity:0.64772997;color:#000000;fill:none;stroke:#ffffff;stroke-width:1.60885084"
         d="m 148.18556,543.76765 a 12.558515,12.282242 1.0205837 0 1 -25.11304,-0.44738 12.558515,12.282242 1.0205837 0 1 25.11304,0.44738 z" />
      <path
         inkscape:connector-curvature="0"
         id="path3285"
         style="opacity:0.34659005;color:#000000;fill:none;stroke:#ffffff;stroke-width:1.60880232"
         d="m 133.2038,510.54422 -1.59187,9.16754 c -2.72873,0.55702 -7.76169,2.31927 -10.08648,3.67434 l -7.50036,-5.68266 c -2.05012,1.49937 -2.19071,1.60093 -3.84204,3.51158 l 5.35229,8.06804 c -1.61808,2.32783 -3.58733,6.49368 -4.32086,9.48332 0,0 -9.6564,1.41605 -9.6564,1.41605 -0.18897,1.31897 -0.15982,4.14875 -0.0678,5.2404 l 9.16792,1.78323 c 0.58901,3.0864 2.91056,8.07817 4.57165,10.64264 l -5.94988,7.41112 c 1.50844,1.89978 1.8141,2.07708 3.70666,3.61295 l 7.87572,-5.43229 c 2.63468,1.70821 7.88654,3.82426 11.1001,4.45596 l 1.11348,9.10116 c 1.015,0.10719 3.81624,0.41169 5.23776,0.2588 l 1.59646,-9.42524 c 3.0744,-0.68994 8.40011,-2.7194 10.92779,-4.41202 l 7.67055,5.62808 c 1.93124,-1.5489 1.95338,-1.78719 3.49113,-3.71546 l -5.61374,-8.10563 c 1.48784,-2.41449 3.44177,-7.15506 4.00057,-10.02687 l 9.4514,-1.36083 c 0.0961,-0.91804 0.14498,-3.48069 -0.0613,-5.05334 l -9.5742,-1.79206 c -0.67119,-2.60094 -3.0474,-7.31044 -4.49862,-9.50836 l 6.23663,-7.40553 c -1.63327,-2.02565 -2.2481,-2.31062 -4.31682,-3.91328 l -8.14027,5.48678 c -2.20861,-1.33082 -6.62376,-3.37802 -9.22274,-3.98524 l -1.25973,-9.01991 c -1.29856,-0.17287 -5.05217,-0.17322 -5.79698,-0.10327 z" />
    </g>
    <path
       sodipodi:type="arc"
       style="fill:#454545;fill-opacity:1"
       id="path3506"
       sodipodi:cx="132.90178"
       sodipodi:cy="547.45148"
       sodipodi:rx="6.7410712"
       sodipodi:ry="5.4464288"
       d="m 139.64285,547.45148 a 6.7410712,5.4464288 0 1 1 -13.48214,0 6.7410712,5.4464288 0 1 1 13.48214,0 z"
       transform="matrix(11.81824,0,0,13.49504,-1189.0137,-6799.6393)"
       inkscape:export-filename="/home/proycon/work/lama-logo.png"
       inkscape:export-xdpi="218"
       inkscape:export-ydpi="218" />
    <path
       inkscape:connector-curvature="0"
       id="path2998"
       d="m 304.04931,585.52033 c 0,-2.31642 -0.78378,-3.06062 -0.57204,-3.06062 0.17386,0 0.28641,0.42535 0.24915,0.95089 -0.1529,2.2104 0.86466,2.11912 1.92228,2.56317 1.77846,0.74358 -2.10569,-1.49965 0.097,-3.2476 2.24378,-1.78777 -3.84921,-0.36636 -2.91819,-2.8561 0.82841,-2.21497 1.79623,-5.72997 2.1903,-7.95682 0.31047,-1.7589 0.39972,-1.89442 2.22173,-3.42993 3.08212,-2.59623 2.9875,-2.48687 2.7999,-3.23495 -0.13816,-0.54953 -0.008,-0.76686 0.63258,-1.07531 0.9488,-0.45407 1.24321,-1.63867 0.53634,-2.15654 -0.378,-0.27632 -0.4137,-0.50529 -0.17464,-1.13275 0.45096,-1.18483 0.37101,-1.41613 -0.43155,-1.26237 -0.88802,0.17076 -0.9481,-0.24295 -0.13506,-0.90355 0.50529,-0.40827 0.57049,-0.68459 0.40051,-1.73375 -0.15679,-0.98202 -0.34618,-1.28403 -0.88903,-1.42048 -0.66596,-0.16688 -0.6419,-0.2181 0.65509,-1.47753 1.18499,-1.1513 1.32889,-1.42568 1.22171,-2.3342 -0.10246,-0.97402 -0.0388,-1.06841 1.25825,-1.72831 0.75833,-0.38499 1.62183,-1.00515 1.91934,-1.37958 0.29727,-0.37567 1.00173,-0.81157 1.56554,-0.97068 1.30988,-0.36947 1.50633,-1.2814 0.45484,-2.10764 -0.84099,-0.66207 -0.99249,-1.8393 -0.30891,-2.4063 0.4626,-0.38498 0.6124,-1.75618 0.19326,-1.75618 -0.13505,0 -0.25536,-0.59765 -0.26623,-1.32897 -0.008,-0.73038 -0.18705,-1.53093 -0.39429,-1.77822 -0.30271,-0.3648 -0.30116,-0.4952 0.008,-0.68536 0.20879,-0.13584 0.41525,-0.87639 0.45872,-1.66048 0.0388,-0.78378 0.27554,-1.89954 0.51926,-2.47942 0.44863,-1.07182 1.21619,-1.43344 3.04052,-1.43344 0.91503,0 1.09379,-0.53401 0.68536,-2.05097 -0.29883,-1.11335 -0.27089,-1.29901 0.28796,-1.89481 0.45562,-0.48744 0.5705,-0.86466 0.4269,-1.43336 -0.10323,-0.42535 -0.30814,-0.84223 -0.44707,-0.92955 -0.13816,-0.0846 0.19482,-0.79605 0.74512,-1.57712 0.96735,-1.37732 1.6604,-3.52904 1.13625,-3.52904 -0.14204,0 -0.50607,-0.46105 -0.80909,-1.02471 -0.51228,-0.95555 -0.51926,-1.0591 -0.0699,-1.5595 0.26623,-0.29416 0.4851,-0.68148 0.4851,-0.85852 0,-0.53712 -1.15891,-0.73039 -2.07991,-0.34851 -0.4758,0.19715 -0.94019,0.28408 -1.03263,0.19094 -0.20181,-0.20258 1.64092,-2.54656 2.00052,-2.54656 0.24915,0 1.40402,-2.42602 1.40402,-2.95095 0,-0.14825 -0.39507,-0.267 -0.87723,-0.267 -0.65044,0 -0.87732,-0.13661 -0.87732,-0.52625 0,-0.28951 0.10324,-0.65121 0.24217,-0.80505 0.13506,-0.15368 0.40983,-0.8718 0.61707,-1.5952 0.88181,-3.09671 2.25394,-5.56084 3.09686,-5.56084 0.63336,0 0.96852,-0.89253 0.85131,-2.27024 -0.12185,-1.48514 0.27632,-2.70529 0.89424,-2.70529 0.24527,0 0.4463,-0.1661 0.4463,-0.36791 0,-0.20335 0.2639,-0.53401 0.58601,-0.73349 0.32212,-0.2018 0.58524,-0.61084 0.58524,-0.91286 0,-0.30038 0.1956,-0.7102 0.43932,-0.91232 0.86295,-0.71718 0.34462,-1.46325 -1.01322,-1.46325 -0.5053,0 -0.87553,-0.75133 -0.88446,-1.79755 -0.002,-0.27631 0.32367,-0.56272 0.76143,-0.67139 0.65897,-0.1661 0.74203,-0.30814 0.59921,-1.0247 -0.17386,-0.87282 -0.21423,-0.81647 2.22095,-3.04992 0.77672,-0.71098 1.09845,-1.24995 1.09845,-1.84054 0,-0.60232 0.28486,-1.06143 1.02005,-1.64861 0.87724,-0.70088 0.97286,-0.89066 0.67683,-1.3656 -0.26623,-0.42534 -0.25847,-0.81002 0.0155,-1.68695 0.3322,-1.0039 0.30969,-1.25142 -0.18085,-2.1299 -0.66984,-1.19981 -1.88068,-1.62438 -2.98696,-1.04761 -0.41526,0.21655 -1.11794,0.53712 -1.56113,0.71486 -0.4432,0.17542 -0.80505,0.48822 -0.80505,0.69468 0,0.20647 -0.2639,0.54022 -0.58524,0.74125 -0.48588,0.30271 -0.58524,0.29185 -0.58524,-0.0698 0,-0.23596 0.25459,-0.56584 0.56506,-0.7335 0.85131,-0.45483 0.97403,-1.26648 0.4626,-3.02398 -0.38498,-1.32074 -0.40594,-1.9416 -0.13505,-3.69103 0.27088,-1.74003 0.25458,-2.21466 -0.097,-2.74814 -0.35548,-0.54487 -0.36092,-0.81645 -0.0388,-1.75081 0.20958,-0.60853 0.3097,-1.29894 0.21889,-1.53653 -0.097,-0.25691 0.006,-0.42922 0.25924,-0.42922 1.17397,0 1.8605,-2.48012 1.04776,-3.78224 -0.29417,-0.46958 -0.20491,-0.71796 0.59688,-1.62935 0.90347,-1.0282 0.93537,-1.14789 0.74746,-2.80704 -0.13505,-1.20812 -0.097,-1.73259 0.13506,-1.73259 0.4952,0 0.39973,-1.37437 -0.10246,-1.56903 -0.24216,-0.097 -0.43932,-0.43389 -0.43932,-0.75523 0,-0.32444 -0.2639,-1.01881 -0.58368,-1.5456 -0.32367,-0.52625 -0.58446,-1.1808 -0.58524,-1.45323 -10e-4,-0.6388 -0.28796,-0.80017 -1.57835,-0.89261 -0.95959,-0.0698 -1.05576,-0.15678 -1.06391,-0.95469 -0.007,-0.74203 -0.1956,-0.96643 -1.22566,-1.44043 l -1.21759,-0.56273 0.70942,-0.46183 c 1.54196,-1.00507 3.65782,-2.85812 3.91155,-3.42496 0.14825,-0.32909 0.52703,-0.71873 0.84223,-0.86652 0.32444,-0.15058 0.75134,-0.84402 0.97876,-1.58519 0.22043,-0.72417 0.53556,-1.72412 0.69545,-2.22126 0.40439,-1.24747 0.0846,-2.66454 -0.65819,-2.85696 -0.48356,-0.12185 -0.55264,-0.30348 -0.38964,-0.97743 0.60774,-2.47624 0.64112,-2.36905 -0.81818,-2.58793 -1.60746,-0.24139 -2.14977,-1.1468 -1.10294,-1.84273 0.44708,-0.29649 0.62327,-0.71796 0.62327,-1.47908 0,-0.75367 0.17464,-1.17265 0.59688,-1.43725 0.68847,-0.43 0.52237,-0.86124 -0.47735,-1.24188 -0.80342,-0.30503 -0.9304,-1.00973 -0.23207,-1.27868 0.33608,-0.12186 0.42689,-0.4137 0.31667,-0.98217 -0.10245,-0.56816 0.0155,-0.99809 0.47968,-1.48444 0.52315,-0.56505 0.62405,-0.98675 0.56894,-2.43122 -0.0846,-2.07798 -0.18706,-2.29996 -1.12259,-2.29996 -0.39274,0 -0.71563,-0.12186 -0.71563,-0.26933 0,-0.14826 -0.46105,-0.55498 -1.02479,-0.90247 -0.89252,-0.55108 -1.19694,-0.59765 -2.37534,-0.34462 l -1.35054,0.28796 0.19948,-1.49305 c 0.13583,-0.98334 0.39041,-1.62889 0.76531,-1.89093 0.67915,-0.47579 0.7265,-1.03845 0.12185,-1.5352 -0.86458,-0.71796 -0.45794,-1.52263 1.92058,-3.80466 2.28918,-2.19588 2.37502,-2.3276 2.87845,-4.42429 0.39973,-1.66474 0.64733,-2.18424 1.07881,-2.26248 0.93537,-0.17076 1.13632,-0.5604 0.70554,-1.36428 -0.37877,-0.70788 -0.32909,-0.81654 0.97178,-2.13806 1.34511,-1.36553 1.67895,-2.17097 1.05793,-2.55432 -0.20802,-0.12186 -0.163,-0.35549 0.13505,-0.68381 0.24372,-0.27089 0.53246,-1.04761 0.64112,-1.72715 0.16378,-1.02688 0.12187,-1.23646 -0.27864,-1.23646 -0.67916,0 -0.62017,-1.49553 0.097,-2.40366 0.58136,-0.73892 0.36713,-1.401 -0.45251,-1.401 -0.19016,0 -0.43,-0.3291 -0.53323,-0.73193 -0.13506,-0.5278 -0.38111,-0.73194 -0.89168,-0.73194 -1.1794,0 -1.12483,-0.52702 0.12186,-1.16318 0.64578,-0.32987 1.38222,-0.9141 1.63347,-1.29769 0.30814,-0.46959 0.64189,-0.64811 1.0282,-0.54798 0.40438,0.10401 0.57204,0.001 0.57204,-0.35471 0,-0.5247 0.61318,-1.35179 2.82575,-3.80801 1.21875,-1.35341 1.30437,-1.55119 1.13966,-2.63419 -0.097,-0.64345 -0.17386,-1.59861 -0.1692,-2.12175 0.006,-0.72418 -0.12186,-0.95089 -0.51927,-0.95089 -0.28873,0 -0.68536,0.15833 -0.87715,0.35083 -0.27322,0.27321 -0.35239,0.18007 -0.35239,-0.41991 0,-0.51384 0.19483,-0.83261 0.58601,-0.9568 0.32367,-0.10246 0.58524,-0.41293 0.58524,-0.68692 0,-0.71097 3.75282,-7.57005 4.95411,-9.05519 0.71952,-0.88888 1.15223,-1.19158 1.53163,-1.07182 0.69856,0.22044 2.00215,-1.08331 2.00215,-2.00502 0,-0.78293 0.82088,-1.66824 1.54576,-1.66824 0.26156,0 0.81156,-0.15136 1.22014,-0.33997 0.87739,-0.39973 1.01097,-1.52534 0.23364,-1.97824 -0.42225,-0.24527 -0.34386,-0.30038 0.45328,-0.30581 0.53013,-0.005 1.35489,-0.20879 1.82937,-0.45484 0.70089,-0.36325 0.86295,-0.63414 0.86295,-1.44594 0,-0.54954 0.13506,-1.08114 0.29262,-1.18096 0.44708,-0.27709 0.34851,-1.06475 -0.18162,-1.45362 -0.41603,-0.30348 -0.34151,-0.42612 0.60231,-0.98466 1.11785,-0.65897 2.05322,-2.29787 2.39568,-4.19485 0.27476,-1.52107 1.23901,-3.36938 2.02892,-3.88686 0.3943,-0.25846 0.71797,-0.65975 0.71797,-0.89167 0,-0.23285 0.25381,-0.55807 0.56117,-0.7234 0.81817,-0.43776 1.09829,-1.99935 0.4463,-2.47693 -0.37877,-0.27632 -0.46415,-0.6093 -0.33453,-1.26649 0.13505,-0.64734 0.0155,-1.07074 -0.38731,-1.54506 -0.65665,-0.75522 -0.489,-1.26641 0.3291,-1.00748 0.61706,0.19637 2.40498,-1.23226 2.12036,-1.69315 -0.0846,-0.14126 0.0698,-0.50141 0.33919,-0.8035 0.27399,-0.30193 0.41215,-0.68459 0.31047,-0.85216 -0.25769,-0.41526 0.6807,-1.78272 1.22147,-1.78272 0.31047,0 0.39818,-0.21501 0.2996,-0.73194 -0.0846,-0.40129 -0.0155,-0.73271 0.097,-0.73271 0.47502,0 1.76309,-1.53714 1.61414,-1.92531 -0.1824,-0.47968 0.29185,-0.84239 0.54954,-0.42146 0.097,0.16299 0.50606,0.29727 0.89772,0.29727 0.77827,0 0.98777,-0.7799 0.37567,-1.39238 -0.24682,-0.24682 -0.24993,-0.4432 -0.008,-0.72806 0.42379,-0.50839 0.12186,-0.90052 -1.03379,-1.37181 -0.52237,-0.2119 -0.9509,-0.46726 -0.95183,-0.56894 -3.8e-4,-0.097 1.07175,-0.14049 2.38255,-0.0846 2.47391,0.097 2.87202,-0.0698 2.88179,-1.19429 0.004,-0.38577 -0.2344,-0.51151 -0.96827,-0.51151 -0.66597,0 -1.19579,-0.23595 -1.67608,-0.74901 -0.40284,-0.42922 -0.51926,-0.68769 -0.27011,-0.61007 1.28807,0.41215 2.03467,0.44708 2.38659,0.10323 0.21422,-0.20336 0.76376,-0.53634 1.22837,-0.74203 0.77905,-0.34462 0.82663,-0.46027 0.65432,-1.53962 -0.18007,-1.12499 -0.1529,-1.17412 0.72185,-1.34931 0.54332,-0.10401 1.02812,-0.4463 1.20812,-0.83943 0.319,-0.69934 1.37321,-1.30709 2.26907,-1.30709 0.33298,0 0.65587,-0.32288 0.83509,-0.83594 0.21268,-0.6124 0.5441,-0.88717 1.23645,-1.02478 0.90619,-0.18086 0.93918,-0.23519 0.77075,-1.28667 -0.20802,-1.30592 0.0699,-1.91918 0.6939,-1.52558 0.68691,0.43544 1.74849,0.33686 1.74849,-0.16533 0,-0.24527 0.31125,-0.56505 0.6939,-0.70942 0.38576,-0.1467 0.77983,-0.60387 0.88725,-1.02696 0.20181,-0.80265 1.15006,-1.32766 2.39412,-1.32766 0.53013,0 0.84417,-0.26467 1.1999,-1.01088 0.45173,-0.94888 0.44707,-1.19027 -0.0846,-3.8694 -0.48045,-2.44869 -0.66285,-2.90873 -1.27316,-3.21322 -0.39198,-0.19482 -0.99351,-0.82073 -1.33705,-1.39076 -0.98318,-1.63028 -1.6184,-2.2024 -2.79307,-2.51877 -0.93056,-0.24915 -1.12134,-0.44397 -1.28131,-1.30568 -0.10246,-0.59766 -0.84503,-1.8109 -1.78831,-2.96151 -0.8791,-1.07182 -1.59823,-2.18781 -1.59823,-2.47841 0,-0.29184 -0.31668,-1.15224 -0.70166,-1.91537 -0.66829,-1.31671 -0.68071,-1.43616 -0.24295,-2.35197 0.36713,-0.77152 0.39741,-1.18755 0.14825,-2.0717 -0.49908,-1.77542 -1.25834,-4.77139 -1.68702,-6.66759 -0.21888,-0.96626 -0.54643,-2.34615 -0.72883,-3.06722 -0.18162,-0.72184 -0.26623,-1.56252 -0.18628,-1.87004 0.0846,-0.30582 -0.10401,-1.2325 -0.42224,-2.05477 -0.31202,-0.82244 -0.56739,-1.68284 -0.56739,-1.91173 -8e-5,-0.22819 -0.21888,-0.65742 -0.48434,-0.95081 -0.45095,-0.49986 -0.45095,-0.57283 0,-1.07074 0.66985,-0.7397 0.60543,-1.48763 -0.15135,-1.76751 -0.42146,-0.15679 -0.52004,-0.30581 -0.29184,-0.44708 0.6256,-0.38576 0.40051,-1.34799 -0.3159,-1.35622 -0.62715,-0.007 -0.62017,-0.0155 0.14669,-0.50684 0.93444,-0.5798 1.08564,-1.69812 0.2639,-1.95915 -0.47812,-0.1529 -0.54022,-0.49132 -0.52081,-2.9112 0.008,-1.89101 -0.097,-2.88645 -0.37101,-3.21384 -0.26002,-0.31125 -0.28098,-0.47503 -0.0699,-0.47503 0.42224,0 0.4269,-1.53915 0.006,-1.96101 -0.22665,-0.22664 -0.23364,-0.61084 -0.0155,-1.3018 0.51228,-1.68663 1.01904,-4.44128 1.04893,-5.71026 0.008,-0.66984 0.12185,-1.31647 0.24759,-1.43887 0.35317,-0.35471 0.25381,-1.29505 -0.13505,-1.29505 -0.22509,0 -0.17852,-0.17852 0.13505,-0.48589 0.29262,-0.29262 0.90239,-0.47192 1.52271,-0.44786 0.88173,0.0155 1.06391,-0.0698 1.22434,-0.71098 0.12186,-0.50761 0.57515,-0.92559 1.39347,-1.29481 1.85833,-0.83936 2.25177,-1.27324 2.38667,-2.62829 0.0699,-0.71874 0.33997,-1.40279 0.64112,-1.63611 0.80575,-0.62172 1.87082,-0.81654 2.4611,-0.44863 0.75833,0.47424 1.91476,0.41604 2.11431,-0.10401 0.14825,-0.3842 0.2965,-0.37877 1.20253,0.0466 0.56738,0.27011 1.03628,0.69856 1.04078,0.95082 0.004,0.24915 0.2639,0.78534 0.57903,1.1891 0.31512,0.40129 0.57437,1.03379 0.57825,1.40341 0.006,0.60464 0.10245,0.65354 0.99708,0.48511 1.19298,-0.22354 1.38516,0.008 1.47838,1.8619 0.0699,1.29489 1.04543,4.1437 2.25433,6.55411 0.30038,0.59765 0.54487,1.43298 0.54487,1.85724 0,0.42379 0.19405,1.12142 0.43,1.54824 0.23596,0.42612 0.71021,1.72932 1.05126,2.89343 0.34074,1.1645 0.87095,2.43626 1.17808,2.82676 0.30581,0.39042 0.55962,0.84758 0.55962,1.01664 0,0.16843 0.37645,0.94313 0.83517,1.7207 0.45872,0.77828 0.92955,1.93626 1.04784,2.57396 0.12186,0.63802 0.44708,1.69114 0.73039,2.3408 0.45017,1.02587 0.48588,1.61887 0.27632,4.52658 -0.34153,4.74074 -0.1599,7.36514 0.59532,8.5877 0.33919,0.54799 0.74823,1.70271 0.91209,2.56884 0.1824,0.97169 0.57126,1.8549 1.00973,2.30626 2.24253,2.30501 3.02522,3.29937 3.17106,4.02905 0.24295,1.21743 2.31914,2.75404 4.10016,3.03571 0.80505,0.12186 1.60413,0.14204 1.77768,0.0388 0.54876,-0.33841 2.20077,-0.43156 6.16875,-0.34618 2.25401,0.0466 2.66577,-0.008 2.92657,-0.46958 0.1661,-0.28874 0.53556,-0.7692 0.81995,-1.06841 0.45795,-0.48045 0.58912,-0.49598 1.17133,-0.12186 0.36015,0.2282 1.1999,0.50374 1.86764,0.61007 1.1409,0.1824 1.2595,0.13506 2.01053,-0.8503 0.49055,-0.64345 1.04652,-1.04559 1.44501,-1.04559 0.35549,0 0.74746,-0.097 0.86823,-0.21965 0.22276,-0.22276 3.28563,-0.42147 5.78291,-0.37568 0.75367,0.008 1.45184,-0.10478 1.55368,-0.27631 0.104,-0.16533 0.54021,-0.30194 0.97293,-0.30271 1.01889,-0.003 2.98269,-1.82363 2.98269,-2.76498 0,-0.37567 0.19638,-0.75832 0.43932,-0.85139 0.25847,-0.097 0.43932,-0.53711 0.43932,-1.06491 0,-0.52625 0.18085,-0.96627 0.43932,-1.06507 0.24216,-0.097 0.43931,-0.48821 0.43931,-0.87724 0,-0.39042 0.19482,-0.78378 0.43699,-0.87638 0.23906,-0.097 0.57825,-0.71486 0.75444,-1.3812 0.17542,-0.6683 0.74824,-2.00409 1.27339,-2.96974 1.46194,-2.68984 2.02746,-4.66187 1.82573,-6.36519 -0.13505,-1.12251 -0.0388,-1.7391 0.41448,-2.66904 1.15635,-2.38388 0.57437,-10.02394 -0.90541,-11.89235 -0.31824,-0.40129 -0.8593,-1.29366 -1.19857,-1.97949 -0.34075,-0.68614 -0.73582,-1.31934 -0.87716,-1.40736 -0.14359,-0.0846 -0.25847,-0.87638 -0.25847,-1.75222 0,-1.204 0.10401,-1.59264 0.42923,-1.59264 0.23596,0 0.87902,-0.39663 1.42886,-0.87724 1.34256,-1.17963 2.6834,-1.21207 2.94994,-0.0698 0.326,1.3965 1.46076,3.58485 1.93594,3.73566 0.24993,0.0846 0.62094,0.59766 0.82081,1.15223 0.20025,0.55497 0.62172,1.09015 0.9363,1.18903 0.31668,0.097 0.57204,0.36946 0.57204,0.60077 0,0.23129 0.26779,0.68613 0.59611,1.01438 0.36635,0.36636 0.58368,0.9557 0.57126,1.53636 -0.008,0.51927 0.10246,1.4697 0.26856,2.11346 0.94399,3.78852 1.18763,4.60599 1.47598,4.95294 0.17541,0.2119 0.50218,1.86041 0.7234,3.66355 0.32599,2.65119 0.53013,3.4127 1.0615,3.97877 0.6093,0.64655 0.63025,0.79604 0.30115,1.97117 -0.20335,0.7234 -0.33918,2.77817 -0.31435,4.76682 0.0155,1.92251 -0.0388,4.15418 -0.14825,4.95922 -0.267,2.06161 -0.18473,4.51091 0.19017,5.66843 0.17696,0.54332 0.31435,1.48576 0.30503,2.09762 -0.008,1.10186 0.51228,1.6805 1.16714,1.27727 0.15912,-0.097 0.5604,0.10246 0.89066,0.46726 0.50374,0.53944 0.79861,0.61629 1.77884,0.4595 0.64579,-0.10401 1.31951,-0.2802 1.49647,-0.39585 0.1762,-0.10246 0.86831,-0.3485 1.53815,-0.52237 1.1985,-0.31047 1.22016,-0.30271 1.383,0.5115 0.12186,0.64345 0.32754,0.82663 0.90347,0.82663 0.40671,0 0.73892,0.13505 0.73892,0.29184 0,0.45096 1.05459,0.3454 1.46356,-0.14669 0.4657,-0.56273 0.87723,-0.56273 0.87723,0 0,0.56893 0.24527,0.55574 1.79189,-0.10246 2.43602,-1.05343 2.59825,-1.057 2.59825,-0.0698 0,1.34643 0.49287,1.36894 1.78032,0.0838 1.01555,-1.01547 1.3046,-1.15223 2.1365,-1.01796 1.07765,0.17542 3.20848,-0.73969 3.5011,-1.50198 0.097,-0.2476 0.3291,-0.45095 0.52004,-0.45095 0.21811,0 0.16688,0.20025 -0.13738,0.53556 -0.50762,0.56272 -0.65897,1.51339 -0.23984,1.51339 0.13505,0 0.39507,0.3291 0.57825,0.73193 0.41525,0.91318 1.40247,0.96635 1.68011,0.097 0.19405,-0.60774 0.22277,-0.6124 0.5899,-0.10323 0.39041,0.53557 1.29365,0.45174 1.29365,-0.12186 0,-0.1661 0.19638,-0.30193 0.43932,-0.30193 0.52236,0 0.54099,0.14049 0.12186,0.92482 -0.43544,0.81405 -0.097,2.00207 0.57204,2.00207 0.69779,0 2.38077,0.84223 2.38077,1.19174 0,0.44707 0.80342,0.30814 1.82215,-0.31358 0.52703,-0.32289 1.44183,-0.58368 2.03273,-0.58523 0.86024,-6e-4 1.3098,-0.23363 2.25332,-1.16854 0.69856,-0.69002 1.3521,-1.10062 1.6025,-1.00391 0.6093,0.23363 0.88903,2.5537 0.45173,3.75887 -0.30581,0.85131 -0.28796,1.10885 0.13505,1.75424 0.50375,0.76686 1.73523,1.04078 2.09196,0.4626 0.097,-0.15989 0.43699,-0.29184 0.74824,-0.29184 0.47734,0 0.56738,0.20802 0.56738,1.31678 0,0.92374 0.12186,1.31671 0.40361,1.31671 0.22044,0 0.56661,0.19638 0.76609,0.43777 0.26312,0.31668 0.67527,0.38653 1.49787,0.25536 0.76376,-0.12186 1.29341,-0.0466 1.62034,0.22043 0.26701,0.22043 1.15627,0.41914 1.97708,0.43777 0.82089,0.008 2.07341,0.24216 2.78407,0.4952 1.14098,0.40594 1.38928,0.40982 2.11772,0.0155 0.89703,-0.46261 1.29637,-1.47047 0.97868,-2.47042 -0.22431,-0.71176 -0.28796,-0.71719 2.26994,0.1366 0.92574,0.30815 1.68717,0.70011 1.69229,0.87367 0.008,0.47967 1.37624,1.9222 1.814,1.9222 0.21423,0 0.64656,0.17309 0.96433,0.38499 0.82927,0.55186 2.9823,1.13748 4.63137,1.25694 0.78145,0.0466 1.96637,0.3617 2.63419,0.6807 0.66829,0.31824 2.20194,0.70632 3.4092,0.86559 2.3335,0.30582 9.13778,1.48965 13.02418,2.26388 1.28822,0.25769 2.75457,0.45251 3.25917,0.43854 0.50529,-0.008 1.08004,0.16611 1.27991,0.40594 0.19948,0.23984 0.56739,0.43699 0.81995,0.43699 0.49753,0 3.59471,0.69856 5.4705,1.23389 0.64345,0.1824 1.3788,0.50762 1.63284,0.72262 0.25459,0.21422 0.68536,0.38653 0.95765,0.38653 0.75522,0 5.69419,1.99455 6.73442,2.7195 0.50607,0.35316 1.85716,1.49794 3.00373,2.54586 1.14672,1.0476 2.26613,2.06874 2.4878,2.26798 0.22044,0.20026 0.73116,0.70089 1.13516,1.1146 0.5798,0.59765 0.91302,0.71564 1.6094,0.57359 2.4875,-0.50141 2.61774,-0.48821 3.997,0.3943 0.75057,0.47968 1.54111,1.24476 1.7589,1.70091 0.23441,0.49133 1.01889,1.16303 1.92966,1.65202 1.05575,0.56661 1.53387,1.00391 1.53387,1.40209 0,0.31823 0.24994,0.93436 0.55885,1.37158 0.65044,0.92575 1.10171,3.42217 1.36126,7.52465 l 0.18318,2.92665 1.46923,1.39029 c 0.80838,0.76609 1.65768,1.39021 1.88774,1.39021 0.22975,0 1.10527,0.64501 1.94238,1.43414 3.05193,2.87178 3.8805,3.58229 4.67018,4.0043 0.44319,0.23596 0.80497,0.64578 0.80497,0.91224 0,0.26468 0.17542,0.6877 0.39042,0.94298 0.21423,0.25536 0.56428,0.92194 0.77827,1.48661 0.21268,0.56428 0.58136,1.18344 0.81996,1.37772 0.31667,0.25846 0.42922,0.96362 0.41991,2.63419 -0.008,1.61056 0.12186,2.49556 0.45484,3.01226 0.25769,0.40128 0.49209,1.30716 0.52392,2.01123 0.0698,1.50896 -0.6093,2.37735 -1.84948,2.38209 -1.24056,0.005 -3.53588,0.78533 -4.48064,1.52619 -2.57155,2.012 -2.55649,2.00518 -4.87004,2.21521 -1.84979,0.16843 -2.295,0.30348 -2.37588,0.7265 -0.0466,0.28563 0.17309,0.74746 0.50607,1.02479 0.3322,0.27709 0.71098,1.03153 0.83943,1.67522 0.20802,1.03969 0.3718,1.2189 1.46651,1.60079 1.61135,0.56272 1.60134,0.63258 -0.31512,2.27769 -0.71719,0.61318 -1.41808,0.95097 -1.985,0.95097 -0.50995,0 -0.94794,0.1824 -1.04419,0.43854 -0.097,0.24217 -0.30193,0.43854 -0.46338,0.43854 -0.16299,0 -1.18623,0.7903 -2.27614,1.75586 -1.4783,1.3112 -2.20201,1.75618 -2.85323,1.75618 -0.47967,0 -1.20796,0.2639 -1.61669,0.58602 -0.40827,0.32289 -0.92086,0.58757 -1.13765,0.593 -0.54099,0.008 -1.57199,0.88166 -1.97863,1.67631 -0.18628,0.36092 -0.53944,0.65897 -0.78456,0.65897 -0.24682,0 -0.88344,0.46105 -1.41458,1.02455 -0.58058,0.61707 -1.24468,1.02464 -1.66746,1.02464 -0.38576,0 -1.19306,0.2639 -1.79359,0.58601 -0.60154,0.32289 -1.54265,0.58524 -2.09335,0.58524 -0.54953,0 -1.06849,0.16455 -1.14789,0.36558 -0.10245,0.27476 -0.15368,0.27787 -0.17231,0.008 -0.0155,-0.45251 -2.21218,-1.05009 -2.96422,-0.81165 -0.33376,0.104 -0.57359,0.4463 -0.57437,0.81995 -0.002,0.35239 -0.097,0.78456 -0.21966,0.96448 -0.27321,0.41525 -1.52394,0.81568 -1.55647,0.49986 -0.0155,-0.23363 -0.0466,-0.42535 -0.44009,-2.36129 -0.1467,-0.74746 -0.33298,-0.9509 -0.86839,-0.9509 -0.37567,0 -0.76143,0.12187 -0.85752,0.28487 -0.23362,0.37954 -2.75418,0.0155 -3.56187,-0.49211 -0.34618,-0.22353 -0.71719,-0.74823 -0.82096,-1.1631 -0.18163,-0.72417 -0.25692,-0.74823 -1.77993,-0.58989 -0.87546,0.097 -1.65939,0.0466 -1.74376,-0.0838 -0.0838,-0.13583 -1.17265,-0.18162 -2.41865,-0.097 -1.65753,0.10401 -2.73595,0.36946 -4.02106,0.97861 -0.96642,0.45561 -2.61223,1.0476 -3.65867,1.31243 -2.3484,0.59533 -4.88138,1.74454 -5.8575,2.65709 -0.80016,0.74746 -2.8925,1.58883 -3.95408,1.58883 -0.36558,0 -1.23784,0.32833 -1.93881,0.72883 -0.70089,0.40051 -1.51913,0.72961 -1.81936,0.73117 -0.30038,0.002 -1.15627,0.31668 -1.90241,0.69933 -0.74513,0.38421 -2.67385,1.25267 -4.28349,1.93268 -1.60963,0.6807 -3.19497,1.4048 -3.52244,1.61056 -0.78705,0.49598 -4.32913,1.90645 -4.78319,1.90645 -0.46804,0 -2.0939,0.84503 -2.60323,1.35474 -0.21965,0.21966 -0.697,0.40051 -1.06025,0.40051 -0.76609,0 -3.41448,0.83843 -3.82143,1.20936 -0.15368,0.14049 -0.50219,0.25536 -0.77385,0.25536 -0.27166,0 -0.5604,0.16844 -0.64035,0.37568 -0.21112,0.55574 -2.98976,1.18087 -4.21324,0.9519 -0.90922,-0.17231 -1.17273,-0.0838 -1.96318,0.68458 -0.73582,0.71021 -1.16978,0.88446 -2.22989,0.8916 -0.72417,0.006 -1.58076,0.008 -1.90248,0.008 -2.01208,0.0155 -3.41775,0.3974 -3.82198,1.0133 -0.23595,0.36014 -0.98784,0.82166 -1.66963,1.02571 -0.68226,0.20414 -1.70115,0.5379 -2.26449,0.74358 -1.47754,0.53712 -4.75883,1.09837 -8.63412,1.4728 -2.42369,0.23363 -4.1361,0.63879 -5.32955,1.25678 -0.67915,0.35317 -1.4152,0.6388 -1.63859,0.6388 -0.52159,0 -1.0098,3.84324 -0.93055,7.31702 0.0155,1.36832 -0.0466,2.80029 -0.19948,3.18186 -0.29339,0.7969 0.15756,1.55359 0.78138,1.31399 0.21888,-0.0846 0.5309,-0.53634 0.69545,-1.00623 0.34385,-0.98784 0.74513,-1.05793 1.85677,-0.32523 l 0.79691,0.5247 -0.60465,0.51771 c -0.56273,0.48123 -0.57127,0.55264 -0.12186,1.04668 0.4432,0.48899 0.4432,0.54255 -0.007,0.71486 -0.31746,0.12185 -0.43,0.39196 -0.32755,0.7903 0.097,0.36946 -0.0466,0.81576 -0.39042,1.15138 -0.86551,0.86551 -0.48355,2.38884 0.76687,3.06303 0.67062,0.36092 0.99467,0.74513 0.99467,1.18615 0,0.65898 -0.66208,1.05126 -2.41446,1.43461 -0.4432,0.097 -0.80512,0.3648 -0.80512,0.60076 0,0.56661 1.05699,1.10527 1.74259,0.8881 0.61085,-0.19404 0.72495,-0.0699 1.00274,1.09364 0.14437,0.59766 0.0846,0.80512 -0.23285,0.80512 -0.23363,0 -0.89253,0.29651 -1.46472,0.6582 -1.25826,0.79605 -1.2786,1.6441 -0.0466,2.22949 0.75599,0.36092 0.97977,0.34152 2.05834,-0.18162 l 1.20937,-0.58601 0.32909,0.69623 c 0.28719,0.61085 0.25692,0.69778 -0.25769,0.69778 -0.32211,0 -0.97868,0.2313 -1.45758,0.5115 -0.83004,0.48822 -0.88973,0.48822 -1.24724,0 -0.58679,-0.79853 -2.79975,-0.61318 -2.79975,0.23363 0,0.215 0.29185,0.59766 0.65044,0.84588 0.47502,0.33142 0.5247,0.45484 0.19016,0.45484 -1.56539,0 -1.78637,2.80137 -0.29417,3.73263 0.42301,0.2639 0.81405,0.50995 0.86924,0.54721 0.0466,0.0388 0.008,0.34772 -0.097,0.69157 -0.18628,0.58524 -0.24139,0.59766 -0.89424,0.16843 -0.3842,-0.24993 -0.90354,-0.45639 -1.15642,-0.45639 -0.80334,0 -1.96831,0.9644 -2.39334,1.98166 -0.26623,0.63491 -0.71797,1.09146 -1.27735,1.28542 -0.4758,0.16533 -0.86567,0.46493 -0.86567,0.66829 0,0.20258 -0.2639,0.60387 -0.58524,0.89338 -0.82244,0.74435 -0.72107,1.3112 0.44862,2.47368 0.83944,0.83594 1.01548,1.22427 1.01548,2.24913 0,1.5099 -0.43311,2.74044 -0.9644,2.74044 -0.21811,0 -0.83594,0.52626 -1.37624,1.17133 -0.54099,0.64345 -1.18887,1.17537 -1.44229,1.18081 -0.63957,0.008 -2.16895,2.50542 -1.98042,3.22695 0.10323,0.42612 -0.0846,0.69623 -0.7102,1.02463 -0.97309,0.50374 -0.87374,1.00507 0.19792,1.00507 0.81817,0 0.81577,-0.008 0.41371,1.04769 -0.2088,0.54953 -0.20569,1.08463 0.008,1.74647 0.26544,0.80179 0.21965,1.10986 -0.28253,1.93338 -0.83936,1.37686 -0.76609,1.97708 0.28873,2.3446 1.11568,0.38886 2.13573,2.19247 1.69013,2.98851 -0.163,0.29184 -0.24295,0.97721 -0.18008,1.52542 0.0846,0.75057 -0.007,1.03729 -0.38343,1.15612 -0.74357,0.23596 -0.90339,0.96362 -0.28407,1.29513 0.90634,0.48511 0.97177,1.1631 0.1498,1.5383 -1.07998,0.49133 -0.89253,1.78079 0.28796,1.98508 0.96354,0.16687 1.3358,0.78953 0.63258,1.05692 -0.70942,0.27244 -1.5033,2.11725 -1.08796,2.53166 0.1824,0.1824 0.33298,0.69855 0.33298,1.14331 0,0.50606 0.21733,0.92566 0.57902,1.11792 0.64423,0.34463 1.31795,1.42351 1.05436,1.68757 -0.097,0.097 -0.48899,-8e-5 -0.87894,-0.2088 -0.95105,-0.50994 -2.21738,-0.18007 -2.21738,0.57825 0,0.31902 0.12185,0.57981 0.27709,0.57981 0.15291,0 0.45406,0.36247 0.66984,0.80497 0.35937,0.73582 0.5247,0.80257 1.9184,0.76376 1.37725,-0.0388 1.52534,0.0155 1.52131,0.58524 -0.007,0.99358 -0.47968,1.57587 -0.92,1.1364 -0.20026,-0.19948 -0.73116,-0.36248 -1.18205,-0.36248 -0.45095,0 -0.80504,-0.097 -0.78541,-0.21965 0.10246,-0.70477 -0.12186,-0.95074 -0.92085,-0.95074 -0.49288,0 -0.95757,0.1824 -1.04536,0.4137 -0.21888,0.57049 0.68148,2.22134 1.20797,2.22134 0.23828,0 0.43077,0.13505 0.43077,0.29262 0,0.15989 -0.1824,0.29184 -0.40672,0.29184 -0.65664,0 -0.81483,0.89959 -0.30037,1.68632 0.26234,0.39973 0.98892,0.92769 1.61646,1.17398 1.54289,0.60541 1.44827,1.02711 -0.17619,0.783 -1.25158,-0.18706 -1.31686,-0.163 -1.31686,0.50839 0,0.38887 0.14825,0.85404 0.3291,1.03387 0.41292,0.41371 0.40671,2.1941 -0.008,5.20342 -0.23518,1.66342 -0.24139,2.54144 -0.008,3.03275 0.22431,0.49986 0.2181,0.80506 -0.0155,1.10062 -0.20336,0.24295 -0.27865,0.94018 -0.18939,1.72793 0.0838,0.72573 0.0155,1.3965 -0.13505,1.49111 -0.15368,0.097 -0.19327,0.67062 -0.097,1.28271 0.10245,0.67372 0.0698,1.186 -0.12186,1.30429 -0.44476,0.27477 -0.36947,1.92655 0.12186,2.79308 0.23052,0.40128 0.42224,1.02346 0.42767,1.38019 0.005,0.35549 0.28718,0.79605 0.62327,0.97511 0.52935,0.28486 0.58912,0.51073 0.44397,1.69331 -0.097,0.75212 -0.20413,2.61642 -0.24682,4.1458 -0.0699,2.28227 0.008,2.86797 0.41292,3.27065 0.29728,0.29728 0.4269,0.73659 0.326,1.11808 -0.10401,0.3912 0.0698,0.94702 0.46105,1.47326 0.8423,1.13858 0.78782,1.55733 -0.25304,1.95015 -0.97984,0.36946 -1.13058,1.06274 -0.44552,2.04274 0.34617,0.49676 0.36946,0.80669 0.10245,1.55616 -0.27709,0.79279 -0.22819,1.13066 0.31513,2.22126 0.51073,1.02471 0.60232,1.55671 0.4432,2.61821 -0.15912,1.058 -0.097,1.45044 0.31823,1.90404 0.44631,0.49364 0.48977,0.91907 0.32445,3.0964 l -0.19405,2.52443 1.03037,0.97178 c 0.57127,0.53711 0.89951,1.05335 0.73738,1.15363 -0.51772,0.31901 -0.31669,1.1957 0.43776,1.9035 0.88258,0.82919 0.93925,1.62423 0.14747,2.04856 -0.68149,0.36403 -0.79108,1.46348 -0.14747,1.46348 0.58601,0 0.55962,0.489 -0.0388,0.82679 -0.66674,0.37412 -0.33686,2.36043 0.4983,2.98944 0.53246,0.40129 0.5573,0.51228 0.18629,0.82081 -0.51228,0.42535 -0.57748,3.87343 -0.0838,4.21216 0.20337,0.13738 0.008,0.45794 -0.50994,0.88352 l -0.82756,0.66829 0.90067,0.80257 c 1.13858,1.01555 1.13058,1.31678 -0.0466,1.81245 -1.16318,0.48821 -1.98189,2.51628 -1.33293,3.29898 0.20569,0.24683 0.38731,0.59533 0.40516,0.77618 0.008,0.18007 0.0466,0.49054 0.0838,0.69313 0.0155,0.2018 0.27632,0.36713 0.5573,0.37101 0.42146,0.005 0.38576,0.10323 -0.19016,0.54798 -0.88174,0.67915 -0.65898,1.40706 0.56427,1.83286 0.72573,0.25304 0.8576,0.4269 0.704,0.93724 -0.10401,0.34462 -0.42457,0.82414 -0.71564,1.06507 -0.75599,0.62793 -0.75134,2.91897 0.007,3.51227 0.53246,0.41604 0.53711,0.489 0.0846,1.42166 -0.55652,1.1374 -0.27243,1.88564 0.77618,2.04064 0.40129,0.0466 0.76143,0.40749 0.93436,0.90813 0.15757,0.44708 0.6062,0.98551 1.00174,1.19725 0.93638,0.50064 0.9044,0.75833 -0.15989,1.30972 -0.48278,0.24838 -0.87724,0.64035 -0.87724,0.86567 0,0.22742 -0.39507,0.69313 -0.87724,1.03728 -0.56971,0.40595 -0.87731,0.87918 -0.87731,1.34667 0,0.3974 -0.19714,0.79605 -0.43931,0.88888 -0.24217,0.097 -0.43932,0.3291 -0.43932,0.52547 0,0.19638 -0.45872,0.73892 -1.01889,1.20641 -1.2595,1.05009 -1.37818,1.34659 -0.989,2.46375 0.23208,0.66285 0.49054,0.88709 1.0282,0.88709 0.40594,0 0.64112,0.12186 0.53944,0.29262 -0.097,0.16067 -0.008,0.30193 0.20336,0.31512 0.21035,0.008 0.12186,0.13506 -0.20336,0.27245 -0.32367,0.13893 -38.02243,0.26156 -83.77931,0.27165 l -70.85806,-1.53038 2.05594,-1.9701 z"
       style="fill:#454545;fill-opacity:1;stroke:url(#linearGradient4142);stroke-width:7.76177073;stroke-opacity:1"
       sodipodi:nodetypes="cscccccccccccccccccccccscccccscccccsccsccssssccscsscscsccccsccccccscsccccccscccscscccccccccccccccsccccccssccccccccccccccscscscccscccssscsccssccccscccccsccccccccscsccsccccccscccccccsccccsccscccccccscccccccccccccccccsccccscccccccccccccccscccsccccccccccccccccsccccscscsccccccccsscccccscccccccccccccccccsscscscccscscccsscsscccccccssscccccccccscccccccsccsscccccccsccccsccscccccsccccscccscscssccscscscccccccscccccccccscccccscscsccccccccccsccccccccccccscsccscccccsccscsccccsccsccssccccscccccccsccccscccssccccscscssscccsccccccccccccccccccccccccccccsccccccccccscccccccccccscsssccsccccccc" />
    <rect
       style="color:#000000;fill:#454545;fill-opacity:1;stroke:none;stroke-width:1.39999998;marker:none;visibility:visible;display:inline;overflow:visible;enable-background:accumulate"
       id="rect4144"
       width="141.37511"
       height="20.097441"
       x="310.49918"
       y="581.01385" />
  </g>
</svg>
