<?xml version="1.0" encoding="UTF-8" standalone="no"?>
<!-- Created with Inkscape (http://www.inkscape.org/) -->

<svg
   xmlns:dc="http://purl.org/dc/elements/1.1/"
   xmlns:cc="http://creativecommons.org/ns#"
   xmlns:rdf="http://www.w3.org/1999/02/22-rdf-syntax-ns#"
   xmlns:svg="http://www.w3.org/2000/svg"
   xmlns="http://www.w3.org/2000/svg"
   xmlns:sodipodi="http://sodipodi.sourceforge.net/DTD/sodipodi-0.dtd"
   xmlns:inkscape="http://www.inkscape.org/namespaces/inkscape"
   width="210mm"
   height="297mm"
   viewBox="0 0 744.09448819 1052.3622047"
   id="svg4662"
   version="1.1"
   inkscape:version="0.91 r13725"
   sodipodi:docname="lama-logo.svg"
   inkscape:export-filename="/home/proycon/work/languagemachineswebsite/design/lama-logo.png"
   inkscape:export-xdpi="299.89481"
   inkscape:export-ydpi="299.89481">
  <defs
     id="defs4664" />
  <sodipodi:namedview
     id="base"
     pagecolor="#ffffff"
     bordercolor="#666666"
     borderopacity="1.0"
     inkscape:pageopacity="0.0"
     inkscape:pageshadow="2"
     inkscape:zoom="0.70000001"
     inkscape:cx="130.81158"
     inkscape:cy="675.05842"
     inkscape:document-units="px"
     inkscape:current-layer="layer1"
     showgrid="false"
     inkscape:window-width="3812"
     inkscape:window-height="2096"
     inkscape:window-x="10"
     inkscape:window-y="46"
     inkscape:window-maximized="0" />
  <metadata
     id="metadata4667">
    <rdf:RDF>
      <cc:Work
         rdf:about="">
        <dc:format>image/svg+xml</dc:format>
        <dc:type
           rdf:resource="http://purl.org/dc/dcmitype/StillImage" />
        <dc:title />
      </cc:Work>
    </rdf:RDF>
  </metadata>
  <g
     inkscape:label="Layer 1"
     inkscape:groupmode="layer"
     id="layer1">
    <g
       id="g4173"
       transform="matrix(3.5217419,0,0,-3.5217419,444.62699,341.07547)">
      <path
         d="m 0,0 c 0,-0.763 -0.62,-1.383 -1.385,-1.383 -0.764,0 -1.384,0.62 -1.384,1.383 0,0.766 0.62,1.385 1.384,1.385 C -0.62,1.385 0,0.766 0,0"
         style="fill:#231f20;fill-opacity:1;fill-rule:nonzero;stroke:none"
         id="path4175"
         inkscape:connector-curvature="0" />
    </g>
    <g
       id="g4177"
       transform="matrix(3.5217419,0,0,-3.5217419,388.29639,547.05615)">
      <path
         d="m 0,0 c 0,0 -2.031,6.527 -2.199,11.012 -0.17,4.484 0.504,8.287 0.504,8.287 0,0 -3.967,-1.123 -8.184,-1.123 -4.215,0 -8.092,1.123 -8.092,1.123 l 0,-19.1"
         style="fill:none;stroke:#231f20;stroke-width:2;stroke-linecap:round;stroke-linejoin:round;stroke-miterlimit:10;stroke-dasharray:none;stroke-opacity:1"
         id="path4179"
         inkscape:connector-curvature="0" />
    </g>
    <g
       id="g4181"
       transform="matrix(3.5217419,0,0,-3.5217419,405.95333,547.05615)">
      <path
         d="m 0,0 0,19.977 c 0,0 4.526,0.568 6.402,7.189 l 5.431,25.781 c 0.668,2.895 6.255,0.543 6.927,4.106 0.676,3.582 -3.933,3.687 -9.25,5.679 l 3.59,3.5 C 11.843,67.074 9.676,67.578 7.233,65.834 4.544,63.916 3.774,60.27 3.003,57.18 0.123,45.666 -2.65,40.568 -7.781,41.113 l -22.285,0.346 c -0.62,1.178 -1.852,1.98 -3.276,1.98 -2.043,0 -3.699,-1.658 -3.699,-3.701 0,-1.422 0.803,-2.656 1.98,-3.275 -0.123,-0.508 -1.714,-3.447 -1.714,-6.756 0,-3.311 2.095,-7.67 5.875,-9.191 0,0 -0.539,-4.996 -0.041,-9.317 C -30.391,6.447 -28.303,0 -28.303,0"
         style="fill:none;stroke:#231f20;stroke-width:2;stroke-linecap:round;stroke-linejoin:round;stroke-miterlimit:10;stroke-dasharray:none;stroke-opacity:1"
         id="path4183"
         inkscape:connector-curvature="0" />
    </g>
    <g
       id="g4185"
       transform="matrix(3.5217419,0,0,-3.5217419,406.84047,547.51716)">
      <path
         d="M 0,0 75.831,0"
         style="fill:none;stroke:#231f20;stroke-width:2;stroke-linecap:round;stroke-linejoin:round;stroke-miterlimit:10;stroke-dasharray:none;stroke-opacity:1"
         id="path4187"
         inkscape:connector-curvature="0" />
    </g>
    <g
       id="g4189"
       transform="matrix(3.5217419,0,0,-3.5217419,325.00821,547.51716)">
      <path
         d="M 0,0 18.023,0"
         style="fill:none;stroke:#231f20;stroke-width:2;stroke-linecap:round;stroke-linejoin:round;stroke-miterlimit:10;stroke-dasharray:none;stroke-opacity:1"
         id="path4191"
         inkscape:connector-curvature="0" />
    </g>
    <g
       id="g4193"
       transform="matrix(3.5217419,0,0,-3.5217419,90.667985,547.51716)">
      <path
         d="M 0,0 61.111,0"
         style="fill:none;stroke:#231f20;stroke-width:2;stroke-linecap:round;stroke-linejoin:round;stroke-miterlimit:10;stroke-dasharray:none;stroke-opacity:1"
         id="path4195"
         inkscape:connector-curvature="0" />
    </g>
    <g
       id="g4197"
       transform="matrix(3.5217419,0,0,-3.5217419,89.414245,569.12235)"
       style="stroke-width:0.56790079;stroke-miterlimit:4;stroke-dasharray:none;stroke:#ffffff;stroke-opacity:1">
      <path
         d="m 0,0 2.358,0 0,-10.914 5.342,0 0,-2.358 -7.7,0 L 0,0 Z"
         style="fill:#231f20;fill-opacity:1;fill-rule:nonzero;stroke:#ffffff;stroke-width:0.56790079;stroke-miterlimit:4;stroke-dasharray:none;stroke-opacity:1"
         id="path4199"
         inkscape:connector-curvature="0" />
    </g>
    <g
       id="g4201"
       transform="matrix(3.5217419,0,0,-3.5217419,133.92802,598.35526)"
       style="stroke-width:0.56790079;stroke-miterlimit:4;stroke-dasharray:none;stroke:#ffffff;stroke-opacity:1">
      <path
         d="M 0,0 2.999,0 1.451,5.258 0,0 Z m 3.014,8.301 3.908,-13.273 -2.556,0 -0.663,2.336 -4.432,0 -0.638,-2.336 -2.555,0 3.907,13.273 3.029,0 z"
         style="fill:#231f20;fill-opacity:1;fill-rule:nonzero;stroke:#ffffff;stroke-width:0.56790079;stroke-miterlimit:4;stroke-dasharray:none;stroke-opacity:1"
         id="path4203"
         inkscape:connector-curvature="0" />
    </g>
    <g
       id="g4205"
       transform="matrix(3.5217419,0,0,-3.5217419,183.22358,593.53365)">
      <path
         d="M 0,0 C 0,1.153 -0.478,1.729 -1.434,1.729 -1.942,1.729 -2.335,1.567 -2.613,1.245 -2.89,0.922 -3.029,0.507 -3.029,0 l 0,-6.341 -2.359,0 0,10.337 2.359,0 0,-0.741 c 0.524,0.556 1.272,0.832 2.243,0.832 1.032,0 1.827,-0.369 2.381,-1.109 0.509,-0.663 0.763,-1.526 0.763,-2.59 l 0,-6.729 L 0,-6.341 0,0 Z"
         style="fill:#231f20;fill-opacity:1;fill-rule:nonzero;stroke:none"
         id="path4207"
         inkscape:connector-curvature="0" />
    </g>
    <g
       id="g4209"
       transform="matrix(3.5217419,0,0,-3.5217419,183.22358,593.53365)">
      <path
         d="M 0,0 C 0,1.153 -0.478,1.729 -1.434,1.729 -1.942,1.729 -2.335,1.567 -2.613,1.245 -2.89,0.922 -3.029,0.507 -3.029,0 l 0,-6.341 -2.359,0 0,10.337 2.359,0 0,-0.741 c 0.524,0.556 1.272,0.832 2.243,0.832 1.032,0 1.827,-0.369 2.381,-1.109 0.509,-0.663 0.763,-1.526 0.763,-2.59 l 0,-6.729 L 0,-6.341 0,0 Z"
         style="fill:none;stroke:#ffffff;stroke-width:0.57800001;stroke-linecap:butt;stroke-linejoin:miter;stroke-miterlimit:10;stroke-dasharray:none;stroke-opacity:1"
         id="path4211"
         inkscape:connector-curvature="0" />
    </g>
    <g
       id="g4213"
       transform="matrix(3.5217419,0,0,-3.5217419,219.62079,593.24803)">
      <path
         d="m 0,0 c 0,0.557 -0.162,0.99 -0.485,1.3 -0.263,0.247 -0.548,0.371 -0.856,0.371 -1.326,0 -1.988,-0.936 -1.988,-2.809 0,-2.012 0.555,-3.018 1.664,-3.018 1.11,0 1.665,0.488 1.665,1.463 L 0,0 Z m -2.127,-8.248 c 1.171,0.277 1.85,1.002 2.035,2.173 -0.416,-0.293 -1.01,-0.439 -1.781,-0.439 -0.971,0 -1.78,0.324 -2.428,0.971 -0.586,0.57 -0.994,1.349 -1.225,2.335 -0.155,0.648 -0.231,1.349 -0.231,2.104 0,0.972 0.192,1.866 0.578,2.683 0.431,0.925 1.04,1.595 1.826,2.011 0.478,0.263 1.002,0.393 1.573,0.393 0.724,0 1.318,-0.177 1.78,-0.531 l 0,0.463 2.359,0 0,-8.602 c 0,-2.466 -0.795,-4.255 -2.382,-5.365 -0.524,-0.354 -1.133,-0.593 -1.827,-0.717 l -0.277,2.521 z"
         style="fill:#231f20;fill-opacity:1;fill-rule:nonzero;stroke:none"
         id="path4215"
         inkscape:connector-curvature="0" />
    </g>
    <g
       id="g4217"
       transform="matrix(3.5217419,0,0,-3.5217419,219.62079,593.24803)">
      <path
         d="m 0,0 c 0,0.557 -0.162,0.99 -0.485,1.3 -0.263,0.247 -0.548,0.371 -0.856,0.371 -1.326,0 -1.988,-0.936 -1.988,-2.809 0,-2.012 0.555,-3.018 1.664,-3.018 1.11,0 1.665,0.488 1.665,1.463 L 0,0 Z m -2.127,-8.248 c 1.171,0.277 1.85,1.002 2.035,2.173 -0.416,-0.293 -1.01,-0.439 -1.781,-0.439 -0.971,0 -1.78,0.324 -2.428,0.971 -0.586,0.57 -0.994,1.349 -1.225,2.335 -0.155,0.648 -0.231,1.349 -0.231,2.104 0,0.972 0.192,1.866 0.578,2.683 0.431,0.925 1.04,1.595 1.826,2.011 0.478,0.263 1.002,0.393 1.573,0.393 0.724,0 1.318,-0.177 1.78,-0.531 l 0,0.463 2.359,0 0,-8.602 c 0,-2.466 -0.795,-4.255 -2.382,-5.365 -0.524,-0.354 -1.133,-0.593 -1.827,-0.717 l -0.277,2.521 z"
         style="fill:none;stroke:#ffffff;stroke-width:0.57800001;stroke-linecap:butt;stroke-linejoin:miter;stroke-miterlimit:10;stroke-dasharray:none;stroke-opacity:1"
         id="path4219"
         inkscape:connector-curvature="0" />
    </g>
    <g
       id="g4221"
       transform="matrix(3.5217419,0,0,-3.5217419,256.18458,613.33993)">
      <path
         d="m 0,0 c -0.555,-0.555 -1.311,-0.832 -2.266,-0.832 -1.033,0 -1.827,0.37 -2.382,1.11 -0.508,0.662 -0.763,1.526 -0.763,2.589 l 0,6.753 2.359,0 0,-6.105 c 0,-1.295 0.47,-1.943 1.41,-1.943 0.509,0 0.91,0.194 1.203,0.578 C -0.147,2.536 0,2.99 0,3.515 l 0,6.105 2.358,0 0,-10.337 L 0,-0.717 0,0 Z"
         style="fill:#231f20;fill-opacity:1;fill-rule:nonzero;stroke:none"
         id="path4223"
         inkscape:connector-curvature="0" />
    </g>
    <g
       id="g4225"
       transform="matrix(3.5217419,0,0,-3.5217419,256.18458,613.33993)">
      <path
         d="m 0,0 c -0.555,-0.555 -1.311,-0.832 -2.266,-0.832 -1.033,0 -1.827,0.37 -2.382,1.11 -0.508,0.662 -0.763,1.526 -0.763,2.589 l 0,6.753 2.359,0 0,-6.105 c 0,-1.295 0.47,-1.943 1.41,-1.943 0.509,0 0.91,0.194 1.203,0.578 C -0.147,2.536 0,2.99 0,3.515 l 0,6.105 2.358,0 0,-10.337 L 0,-0.717 0,0 Z"
         style="fill:none;stroke:#ffffff;stroke-width:0.57800001;stroke-linecap:butt;stroke-linejoin:miter;stroke-miterlimit:10;stroke-dasharray:none;stroke-opacity:1"
         id="path4227"
         inkscape:connector-curvature="0" />
    </g>
    <g
       id="g4229"
       transform="matrix(3.5217419,0,0,-3.5217419,291.92989,600.55319)">
      <path
         d="m 0,0 c 0,0.185 -0.152,0.346 -0.457,0.485 -0.306,0.139 -0.584,0.208 -0.834,0.208 -1.174,0 -1.761,-0.47 -1.761,-1.41 0,-0.401 0.153,-0.721 0.458,-0.96 0.305,-0.239 0.669,-0.358 1.092,-0.358 0.281,0 0.586,0.061 0.915,0.185 C -0.195,-1.696 0,-1.496 0,-1.249 L 0,0 Z m 0,-3.792 c -0.586,-0.432 -1.271,-0.647 -2.058,-0.647 -1.033,0 -1.858,0.369 -2.474,1.109 -0.586,0.678 -0.878,1.534 -0.878,2.566 0,1.157 0.33,2.055 0.991,2.695 0.66,0.639 1.574,0.959 2.74,0.959 0.715,0 1.275,-0.139 1.679,-0.416 -0.078,0.486 -0.241,0.817 -0.491,0.989 -0.249,0.173 -0.631,0.259 -1.144,0.259 -0.546,0 -1.107,-0.254 -1.683,-0.763 L -4.416,4.81 c 0.786,0.847 1.788,1.271 3.006,1.271 1.156,0 2.073,-0.347 2.751,-1.04 C 2.019,4.347 2.358,3.422 2.358,2.266 l 0,-6.614 -2.358,0 0,0.556 z"
         style="fill:#231f20;fill-opacity:1;fill-rule:nonzero;stroke:none"
         id="path4231"
         inkscape:connector-curvature="0" />
    </g>
    <g
       id="g4233"
       transform="matrix(3.5217419,0,0,-3.5217419,291.92989,600.55319)">
      <path
         d="m 0,0 c 0,0.185 -0.152,0.346 -0.457,0.485 -0.306,0.139 -0.584,0.208 -0.834,0.208 -1.174,0 -1.761,-0.47 -1.761,-1.41 0,-0.401 0.153,-0.721 0.458,-0.96 0.305,-0.239 0.669,-0.358 1.092,-0.358 0.281,0 0.586,0.061 0.915,0.185 C -0.195,-1.696 0,-1.496 0,-1.249 L 0,0 Z m 0,-3.792 c -0.586,-0.432 -1.271,-0.647 -2.058,-0.647 -1.033,0 -1.858,0.369 -2.474,1.109 -0.586,0.678 -0.878,1.534 -0.878,2.566 0,1.157 0.33,2.055 0.991,2.695 0.66,0.639 1.574,0.959 2.74,0.959 0.715,0 1.275,-0.139 1.679,-0.416 -0.078,0.486 -0.241,0.817 -0.491,0.989 -0.249,0.173 -0.631,0.259 -1.144,0.259 -0.546,0 -1.107,-0.254 -1.683,-0.763 L -4.416,4.81 c 0.786,0.847 1.788,1.271 3.006,1.271 1.156,0 2.073,-0.347 2.751,-1.04 C 2.019,4.347 2.358,3.422 2.358,2.266 l 0,-6.614 -2.358,0 0,0.556 z"
         style="fill:none;stroke:#ffffff;stroke-width:0.57800001;stroke-linecap:butt;stroke-linejoin:miter;stroke-miterlimit:10;stroke-dasharray:none;stroke-opacity:1"
         id="path4235"
         inkscape:connector-curvature="0" />
    </g>
    <g
       id="g4237"
       transform="matrix(3.5217419,0,0,-3.5217419,328.24962,593.24803)">
      <path
         d="m 0,0 c 0,0.557 -0.162,0.99 -0.485,1.3 -0.263,0.247 -0.548,0.371 -0.856,0.371 -1.326,0 -1.989,-0.936 -1.989,-2.809 0,-2.012 0.556,-3.018 1.665,-3.018 1.11,0 1.665,0.488 1.665,1.463 L 0,0 Z m -2.127,-8.248 c 1.171,0.277 1.849,1.002 2.035,2.173 -0.416,-0.293 -1.011,-0.439 -1.781,-0.439 -0.971,0 -1.78,0.324 -2.428,0.971 -0.586,0.57 -0.994,1.349 -1.225,2.335 -0.155,0.648 -0.231,1.349 -0.231,2.104 0,0.972 0.192,1.866 0.578,2.683 0.431,0.925 1.04,1.595 1.826,2.011 0.478,0.263 1.002,0.393 1.573,0.393 0.724,0 1.318,-0.177 1.78,-0.531 l 0,0.463 2.359,0 0,-8.602 c 0,-2.466 -0.795,-4.255 -2.382,-5.365 -0.524,-0.354 -1.133,-0.593 -1.827,-0.717 l -0.277,2.521 z"
         style="fill:#231f20;fill-opacity:1;fill-rule:nonzero;stroke:none"
         id="path4239"
         inkscape:connector-curvature="0" />
    </g>
    <g
       id="g4241"
       transform="matrix(3.5217419,0,0,-3.5217419,328.24962,593.24803)">
      <path
         d="m 0,0 c 0,0.557 -0.162,0.99 -0.485,1.3 -0.263,0.247 -0.548,0.371 -0.856,0.371 -1.326,0 -1.989,-0.936 -1.989,-2.809 0,-2.012 0.556,-3.018 1.665,-3.018 1.11,0 1.665,0.488 1.665,1.463 L 0,0 Z m -2.127,-8.248 c 1.171,0.277 1.849,1.002 2.035,2.173 -0.416,-0.293 -1.011,-0.439 -1.781,-0.439 -0.971,0 -1.78,0.324 -2.428,0.971 -0.586,0.57 -0.994,1.349 -1.225,2.335 -0.155,0.648 -0.231,1.349 -0.231,2.104 0,0.972 0.192,1.866 0.578,2.683 0.431,0.925 1.04,1.595 1.826,2.011 0.478,0.263 1.002,0.393 1.573,0.393 0.724,0 1.318,-0.177 1.78,-0.531 l 0,0.463 2.359,0 0,-8.602 c 0,-2.466 -0.795,-4.255 -2.382,-5.365 -0.524,-0.354 -1.133,-0.593 -1.827,-0.717 l -0.277,2.521 z"
         style="fill:none;stroke:#ffffff;stroke-width:0.57800001;stroke-linecap:butt;stroke-linejoin:miter;stroke-miterlimit:10;stroke-dasharray:none;stroke-opacity:1"
         id="path4243"
         inkscape:connector-curvature="0" />
    </g>
    <g
       id="g4245"
       transform="matrix(3.5217419,0,0,-3.5217419,359.59805,586.79267)">
      <path
         d="M 0,0 C -0.524,0 -0.952,-0.202 -1.283,-0.605 -1.614,-1.01 -1.819,-1.486 -1.896,-2.034 l 3.607,0 C 1.634,-1.501 1.472,-1.052 1.226,-0.686 0.902,-0.229 0.494,0 0,0 m -1.896,-4.393 c 0.062,-0.462 0.282,-0.84 0.659,-1.133 0.378,-0.293 0.806,-0.44 1.283,-0.44 0.633,0 1.141,0.247 1.527,0.74 L 3.168,-6.729 C 2.32,-7.838 1.257,-8.385 -0.023,-8.37 -2.875,-8.354 -4.3,-6.621 -4.3,-3.167 c 0,1.556 0.323,2.82 0.97,3.792 0.756,1.156 1.873,1.734 3.353,1.734 1.418,0 2.482,-0.548 3.191,-1.642 0.601,-0.925 0.902,-2.143 0.902,-3.654 l 0,-0.624 0,-0.416 C 4.101,-4.162 4.093,-4.3 4.093,-4.393 l -5.989,0 z"
         style="fill:#231f20;fill-opacity:1;fill-rule:nonzero;stroke:none"
         id="path4247"
         inkscape:connector-curvature="0" />
    </g>
    <g
       id="g4249"
       transform="matrix(3.5217419,0,0,-3.5217419,359.59805,586.79267)">
      <path
         d="M 0,0 C -0.524,0 -0.952,-0.202 -1.283,-0.605 -1.614,-1.01 -1.819,-1.486 -1.896,-2.034 l 3.607,0 C 1.634,-1.501 1.472,-1.052 1.226,-0.686 0.902,-0.229 0.494,0 0,0 Z m -1.896,-4.393 c 0.062,-0.462 0.282,-0.84 0.659,-1.133 0.378,-0.293 0.806,-0.44 1.283,-0.44 0.633,0 1.141,0.247 1.527,0.74 L 3.168,-6.729 C 2.32,-7.838 1.257,-8.385 -0.023,-8.37 -2.875,-8.354 -4.3,-6.621 -4.3,-3.167 c 0,1.556 0.323,2.82 0.97,3.792 0.756,1.156 1.873,1.734 3.353,1.734 1.418,0 2.482,-0.548 3.191,-1.642 0.601,-0.925 0.902,-2.143 0.902,-3.654 l 0,-0.624 0,-0.416 C 4.101,-4.162 4.093,-4.3 4.093,-4.393 l -5.989,0 z"
         style="fill:none;stroke:#ffffff;stroke-width:0.57800001;stroke-linecap:butt;stroke-linejoin:miter;stroke-miterlimit:10;stroke-dasharray:none;stroke-opacity:1"
         id="path4251"
         inkscape:connector-curvature="0" />
    </g>
    <g
       id="g4253"
       transform="matrix(3.5217419,0,0,-3.5217419,434.1167,586.79267)"
       style="stroke-width:0.56790079;stroke-miterlimit:4;stroke-dasharray:none;stroke:#ffffff;stroke-opacity:1">
      <path
         d="m 0,0 -3.076,-8.671 -3.285,8.739 0,-8.323 -2.359,0 0,13.273 2.97,0 2.677,-7.318 2.596,7.318 2.837,0 0,-13.273 -2.36,0 L 0,0 Z"
         style="fill:#231f20;fill-opacity:1;fill-rule:nonzero;stroke:#ffffff;stroke-width:0.56790079;stroke-miterlimit:4;stroke-dasharray:none;stroke-opacity:1"
         id="path4255"
         inkscape:connector-curvature="0" />
    </g>
    <g
       id="g4257"
       transform="matrix(3.5217419,0,0,-3.5217419,462.27691,598.35526)"
       style="stroke-width:0.56790079;stroke-miterlimit:4;stroke-dasharray:none;stroke:#ffffff;stroke-opacity:1">
      <path
         d="M 0,0 3,0 1.452,5.258 0,0 Z m 3.016,8.301 3.907,-13.273 -2.556,0 -0.663,2.336 -4.433,0 -0.639,-2.336 -2.556,0 3.909,13.273 3.031,0 z"
         style="fill:#231f20;fill-opacity:1;fill-rule:nonzero;stroke:#ffffff;stroke-width:0.56790079;stroke-miterlimit:4;stroke-dasharray:none;stroke-opacity:1"
         id="path4259"
         inkscape:connector-curvature="0" />
    </g>
    <g
       id="g4261"
       transform="matrix(3.5217419,0,0,-3.5217419,505.95849,616.59506)">
      <path
         d="m 0,0 c -1.465,0 -2.575,0.57 -3.33,1.711 -0.648,0.971 -0.972,2.212 -0.972,3.722 0,1.557 0.406,2.821 1.215,3.793 0.809,0.971 1.838,1.456 3.087,1.456 1.187,0 2.196,-0.496 3.028,-1.491 L 1.226,7.654 C 0.886,8.07 0.478,8.277 0,8.277 -0.663,8.277 -1.165,7.946 -1.503,7.283 -1.765,6.774 -1.896,6.15 -1.896,5.41 -1.896,3.422 -1.265,2.428 0,2.428 c 0.509,0 0.971,0.231 1.388,0.693 L 3.306,1.747 C 2.351,0.582 1.248,0 0,0"
         style="fill:#231f20;fill-opacity:1;fill-rule:nonzero;stroke:none"
         id="path4263"
         inkscape:connector-curvature="0" />
    </g>
    <g
       id="g4265"
       transform="matrix(3.5217419,0,0,-3.5217419,505.95849,616.59506)">
      <path
         d="m 0,0 c -1.465,0 -2.575,0.57 -3.33,1.711 -0.648,0.971 -0.972,2.212 -0.972,3.722 0,1.557 0.406,2.821 1.215,3.793 0.809,0.971 1.838,1.456 3.087,1.456 1.187,0 2.196,-0.496 3.028,-1.491 L 1.226,7.654 C 0.886,8.07 0.478,8.277 0,8.277 -0.663,8.277 -1.165,7.946 -1.503,7.283 -1.765,6.774 -1.896,6.15 -1.896,5.41 -1.896,3.422 -1.265,2.428 0,2.428 c 0.509,0 0.971,0.231 1.388,0.693 L 3.306,1.747 C 2.351,0.582 1.248,0 0,0 Z"
         style="fill:none;stroke:#ffffff;stroke-width:0.57800001;stroke-linecap:butt;stroke-linejoin:miter;stroke-miterlimit:10;stroke-dasharray:none;stroke-opacity:1"
         id="path4267"
         inkscape:connector-curvature="0" />
    </g>
    <g
       id="g4269"
       transform="matrix(3.5217419,0,0,-3.5217419,544.31237,593.38926)">
      <path
         d="m 0,0 c 0,0.432 -0.15,0.821 -0.451,1.168 -0.3,0.347 -0.659,0.52 -1.075,0.52 -0.432,0 -0.79,-0.173 -1.075,-0.52 C -2.887,0.821 -3.029,0.432 -3.029,0 l 0,-6.382 -2.359,0 0,12.348 2.359,1.503 0,-4.347 c 0.524,0.616 1.241,0.924 2.15,0.924 1.434,0 2.428,-0.755 2.983,-2.265 C 2.273,1.303 2.358,0.778 2.358,0.208 l 0,-6.59 L 0,-6.382 0,0 Z"
         style="fill:#231f20;fill-opacity:1;fill-rule:nonzero;stroke:none"
         id="path4271"
         inkscape:connector-curvature="0" />
    </g>
    <g
       id="g4273"
       transform="matrix(3.5217419,0,0,-3.5217419,544.31237,593.38926)">
      <path
         d="m 0,0 c 0,0.432 -0.15,0.821 -0.451,1.168 -0.3,0.347 -0.659,0.52 -1.075,0.52 -0.432,0 -0.79,-0.173 -1.075,-0.52 C -2.887,0.821 -3.029,0.432 -3.029,0 l 0,-6.382 -2.359,0 0,12.348 2.359,1.503 0,-4.347 c 0.524,0.616 1.241,0.924 2.15,0.924 1.434,0 2.428,-0.755 2.983,-2.265 C 2.273,1.303 2.358,0.778 2.358,0.208 l 0,-6.59 L 0,-6.382 0,0 Z"
         style="fill:none;stroke:#ffffff;stroke-width:0.57800001;stroke-linecap:butt;stroke-linejoin:miter;stroke-miterlimit:10;stroke-dasharray:none;stroke-opacity:1"
         id="path4275"
         inkscape:connector-curvature="0" />
    </g>
    <path
       d="m 561.0012,579.46359 8.30779,0 0,36.40072 -8.30779,0 0,-36.40072 z m 4.11339,-1.95457 c -1.45095,0 -2.56735,-0.51769 -3.34917,-1.54956 -0.77831,-1.02835 -1.16922,-2.27857 -1.16922,-3.74362 0,-3.58161 1.5073,-5.37417 4.51839,-5.37417 1.40166,0 2.50396,0.54234 3.31044,1.62704 0.80296,1.08822 1.21148,2.33492 1.21148,3.74713 0,1.3594 -0.41909,2.57792 -1.25022,3.66262 -0.83465,1.08821 -1.92639,1.63056 -3.2717,1.63056"
       style="fill:#231f20;fill-opacity:1;fill-rule:nonzero;stroke:none"
       id="path4277"
       inkscape:connector-curvature="0" />
    <path
       d="m 561.0012,579.46359 8.30779,0 0,36.40072 -8.30779,0 0,-36.40072 z m 4.11339,-1.95457 c -1.45095,0 -2.56735,-0.51769 -3.34917,-1.54956 -0.77831,-1.02835 -1.16922,-2.27857 -1.16922,-3.74362 0,-3.58161 1.5073,-5.37417 4.51839,-5.37417 1.40166,0 2.50396,0.54234 3.31044,1.62704 0.80296,1.08822 1.21148,2.33492 1.21148,3.74713 0,1.3594 -0.41909,2.57792 -1.25022,3.66262 -0.83465,1.08821 -1.92639,1.63056 -3.2717,1.63056 z"
       style="fill:none;stroke:#ffffff;stroke-width:2.03556681;stroke-linecap:butt;stroke-linejoin:miter;stroke-miterlimit:10;stroke-dasharray:none;stroke-opacity:1"
       id="path4279"
       inkscape:connector-curvature="0" />
    <g
       id="g4281"
       transform="matrix(3.5217419,0,0,-3.5217419,597.97419,593.53365)">
      <path
         d="M 0,0 C 0,1.153 -0.479,1.729 -1.434,1.729 -1.942,1.729 -2.336,1.567 -2.613,1.245 -2.891,0.922 -3.029,0.507 -3.029,0 l 0,-6.341 -2.359,0 0,10.337 2.359,0 0,-0.741 c 0.523,0.556 1.271,0.832 2.243,0.832 1.032,0 1.827,-0.369 2.382,-1.109 0.508,-0.663 0.762,-1.526 0.762,-2.59 l 0,-6.729 L 0,-6.341 0,0 Z"
         style="fill:#231f20;fill-opacity:1;fill-rule:nonzero;stroke:none"
         id="path4283"
         inkscape:connector-curvature="0" />
    </g>
    <g
       id="g4285"
       transform="matrix(3.5217419,0,0,-3.5217419,597.97419,593.53365)">
      <path
         d="M 0,0 C 0,1.153 -0.479,1.729 -1.434,1.729 -1.942,1.729 -2.336,1.567 -2.613,1.245 -2.891,0.922 -3.029,0.507 -3.029,0 l 0,-6.341 -2.359,0 0,10.337 2.359,0 0,-0.741 c 0.523,0.556 1.271,0.832 2.243,0.832 1.032,0 1.827,-0.369 2.382,-1.109 0.508,-0.663 0.762,-1.526 0.762,-2.59 l 0,-6.729 L 0,-6.341 0,0 Z"
         style="fill:none;stroke:#ffffff;stroke-width:0.57800001;stroke-linecap:butt;stroke-linejoin:miter;stroke-miterlimit:10;stroke-dasharray:none;stroke-opacity:1"
         id="path4287"
         inkscape:connector-curvature="0" />
    </g>
    <g
       id="g4289"
       transform="matrix(3.5217419,0,0,-3.5217419,629.5667,586.79267)">
      <path
         d="M 0,0 C -0.523,0 -0.951,-0.202 -1.283,-0.605 -1.614,-1.01 -1.818,-1.486 -1.896,-2.034 l 3.607,0 C 1.634,-1.501 1.473,-1.052 1.226,-0.686 0.902,-0.229 0.494,0 0,0 m -1.896,-4.393 c 0.062,-0.462 0.282,-0.84 0.66,-1.133 0.377,-0.293 0.804,-0.44 1.283,-0.44 0.632,0 1.14,0.247 1.525,0.74 L 3.168,-6.729 C 2.32,-7.838 1.257,-8.385 -0.023,-8.37 c -2.852,0.016 -4.278,1.749 -4.278,5.203 0,1.556 0.324,2.82 0.971,3.792 0.756,1.156 1.873,1.734 3.353,1.734 1.418,0 2.482,-0.548 3.192,-1.642 0.6,-0.925 0.901,-2.143 0.901,-3.654 l 0,-0.624 0,-0.416 C 4.101,-4.162 4.093,-4.3 4.093,-4.393 l -5.989,0 z"
         style="fill:#231f20;fill-opacity:1;fill-rule:nonzero;stroke:none"
         id="path4291"
         inkscape:connector-curvature="0" />
    </g>
    <g
       id="g4293"
       transform="matrix(3.5217419,0,0,-3.5217419,629.5667,586.79267)">
      <path
         d="M 0,0 C -0.523,0 -0.951,-0.202 -1.283,-0.605 -1.614,-1.01 -1.818,-1.486 -1.896,-2.034 l 3.607,0 C 1.634,-1.501 1.473,-1.052 1.226,-0.686 0.902,-0.229 0.494,0 0,0 Z m -1.896,-4.393 c 0.062,-0.462 0.282,-0.84 0.66,-1.133 0.377,-0.293 0.804,-0.44 1.283,-0.44 0.632,0 1.14,0.247 1.525,0.74 L 3.168,-6.729 C 2.32,-7.838 1.257,-8.385 -0.023,-8.37 c -2.852,0.016 -4.278,1.749 -4.278,5.203 0,1.556 0.324,2.82 0.971,3.792 0.756,1.156 1.873,1.734 3.353,1.734 1.418,0 2.482,-0.548 3.192,-1.642 0.6,-0.925 0.901,-2.143 0.901,-3.654 l 0,-0.624 0,-0.416 C 4.101,-4.162 4.093,-4.3 4.093,-4.393 l -5.989,0 z"
         style="fill:none;stroke:#ffffff;stroke-width:0.57800001;stroke-linecap:butt;stroke-linejoin:miter;stroke-miterlimit:10;stroke-dasharray:none;stroke-opacity:1"
         id="path4295"
         inkscape:connector-curvature="0" />
    </g>
    <g
       id="g4297"
       transform="matrix(3.5217419,0,0,-3.5217419,653.83361,605.03248)">
      <path
         d="m 0,0 c 0.662,-0.555 1.526,-0.832 2.59,-0.832 0.956,0 1.433,0.302 1.433,0.906 0,0.543 -0.431,0.884 -1.294,1.023 -1.141,0.186 -1.973,0.488 -2.498,0.907 -0.678,0.512 -1.016,1.279 -1.016,2.303 0,2.061 1.278,3.092 3.838,3.092 1.093,0 2.05,-0.303 2.867,-0.908 L 5.18,3.977 C 4.517,4.655 3.746,4.994 2.867,4.994 2.082,4.994 1.666,4.801 1.619,4.415 l 0,-0.07 c 0,-0.402 0.662,-0.742 1.988,-1.02 1.85,-0.402 2.775,-1.438 2.775,-3.107 0,-1.175 -0.394,-2.049 -1.179,-2.621 -0.709,-0.525 -1.674,-0.788 -2.89,-0.788 -1.018,0 -2.082,0.316 -3.192,0.948 L 0,0 Z"
         style="fill:#231f20;fill-opacity:1;fill-rule:nonzero;stroke:none"
         id="path4299"
         inkscape:connector-curvature="0" />
    </g>
    <g
       id="g4301"
       transform="matrix(3.5217419,0,0,-3.5217419,653.83361,605.03248)">
      <path
         d="m 0,0 c 0.662,-0.555 1.526,-0.832 2.59,-0.832 0.956,0 1.433,0.302 1.433,0.906 0,0.543 -0.431,0.884 -1.294,1.023 -1.141,0.186 -1.973,0.488 -2.498,0.907 -0.678,0.512 -1.016,1.279 -1.016,2.303 0,2.061 1.278,3.092 3.838,3.092 1.093,0 2.05,-0.303 2.867,-0.908 L 5.18,3.977 C 4.517,4.655 3.746,4.994 2.867,4.994 2.082,4.994 1.666,4.801 1.619,4.415 l 0,-0.07 c 0,-0.402 0.662,-0.742 1.988,-1.02 1.85,-0.402 2.775,-1.438 2.775,-3.107 0,-1.175 -0.394,-2.049 -1.179,-2.621 -0.709,-0.525 -1.674,-0.788 -2.89,-0.788 -1.018,0 -2.082,0.316 -3.192,0.948 L 0,0 Z"
         style="fill:none;stroke:#ffffff;stroke-width:0.57800001;stroke-linecap:butt;stroke-linejoin:miter;stroke-miterlimit:10;stroke-dasharray:none;stroke-opacity:1"
         id="path4303"
         inkscape:connector-curvature="0" />
    </g>
  </g>
</svg>
