<?xml version="1.0" encoding="UTF-8" standalone="no"?>
<!-- Created with Inkscape (http://www.inkscape.org/) -->

<svg
   xmlns:dc="http://purl.org/dc/elements/1.1/"
   xmlns:cc="http://creativecommons.org/ns#"
   xmlns:rdf="http://www.w3.org/1999/02/22-rdf-syntax-ns#"
   xmlns:svg="http://www.w3.org/2000/svg"
   xmlns="http://www.w3.org/2000/svg"
   xmlns:sodipodi="http://sodipodi.sourceforge.net/DTD/sodipodi-0.dtd"
   xmlns:inkscape="http://www.inkscape.org/namespaces/inkscape"
   width="744.09448819"
   height="1052.3622047"
   id="svg3139"
   version="1.1"
   inkscape:version="0.48.4 r9939"
   sodipodi:docname="lama-logo.svg">
  <defs
     id="defs3141">
    <radialGradient
       id="radialGradient3262"
       gradientUnits="userSpaceOnUse"
       cy="39.160999"
       cx="25.455999"
       gradientTransform="matrix(1,0,0,0.31532,0,26.813)"
       r="19.622">
      <stop
         id="stop3258"
         offset="0" />
      <stop
         id="stop3260"
         stop-opacity="0"
         offset="1" />
    </radialGradient>
    <linearGradient
       id="linearGradient3281"
       x1="14.463"
       gradientUnits="userSpaceOnUse"
       y1="12.285"
       gradientTransform="matrix(1.2419,0,0,1.2419,-5.0275,-7.209)"
       x2="34.534"
       y2="39.685001">
      <stop
         id="stop3266"
         stop-color="#c9c9c9"
         offset="0" />
      <stop
         id="stop3276"
         stop-color="#f8f8f8"
         offset=".25" />
      <stop
         id="stop3272"
         stop-color="#e2e2e2"
         offset=".5" />
      <stop
         id="stop3274"
         stop-color="#b0b0b0"
         offset=".75" />
      <stop
         id="stop3268"
         stop-color="#c9c9c9"
         offset="1" />
    </linearGradient>
    <filter
       id="filter3561"
       inkscape:label="Fancy blur"
       inkscape:menu="Blurs"
       inkscape:menu-tooltip="Smooth colorized contour which allows desaturation and hue rotation"
       color-interpolation-filters="sRGB">
      <feGaussianBlur
         id="feGaussianBlur3563"
         stdDeviation="5"
         result="result1" />
      <feComposite
         id="feComposite3565"
         in2="result1"
         operator="arithmetic"
         k2="2"
         in="result1" />
    </filter>
  </defs>
  <sodipodi:namedview
     id="base"
     pagecolor="#ffffff"
     bordercolor="#666666"
     borderopacity="1.0"
     inkscape:pageopacity="0.0"
     inkscape:pageshadow="2"
     inkscape:zoom="1.979899"
     inkscape:cx="320.73296"
     inkscape:cy="614.04406"
     inkscape:document-units="px"
     inkscape:current-layer="layer1"
     showgrid="false"
     inkscape:window-width="1920"
     inkscape:window-height="1039"
     inkscape:window-x="0"
     inkscape:window-y="18"
     inkscape:window-maximized="1" />
  <metadata
     id="metadata3144">
    <rdf:RDF>
      <cc:Work
         rdf:about="">
        <dc:format>image/svg+xml</dc:format>
        <dc:type
           rdf:resource="http://purl.org/dc/dcmitype/StillImage" />
        <dc:title />
      </cc:Work>
    </rdf:RDF>
  </metadata>
  <g
     inkscape:label="Layer 1"
     inkscape:groupmode="layer"
     id="layer1">
    <g
       transform="matrix(1.6267955,0,0,1.5910081,96.378765,507.95354)"
       id="layer1-4"
       inkscape:export-filename="/home/proycon/work/lama-logo.png"
       inkscape:export-xdpi="218"
       inkscape:export-ydpi="218">
      <path
         inkscape:connector-curvature="0"
         id="path3254"
         style="opacity:0.40909005;color:#000000;fill:url(#radialGradient3262)"
         d="m 45.078,39.161 a 19.622,6.1872 0 1 1 -39.244,0 19.622,6.1872 0 1 1 39.244,0 z"
         transform="translate(-0.88388,2.4749)" />
      <path
         inkscape:connector-curvature="0"
         id="path3243"
         style="color:#000000;fill:url(#linearGradient3281);stroke:#808080"
         d="M 23.25,0.46875 C 22.785,0.5006 22.332,0.57268 21.875,0.625 H 21.844 L 20.75,6.5938 C 18.967,6.9997 17.29,7.6887 15.781,8.625 L 10.875,5.0938 C 9.5487,6.1234 8.3418,7.3243 7.2812,8.625 l 3.4068,4.969 c -1.0347,1.58 -1.8125,3.385 -2.2505,5.281 -10e-5,0.009 -10e-5,0.03 0,0.031 L 2.5,19.844 c -0.1086,0.886 -0.1562,1.803 -0.1562,2.718 0,0.75 0.0206,1.489 0.0937,2.219 l 5.9375,1.063 c 0.4223,2.062 1.2245,3.987 2.344,5.687 l -3.5315,4.844 c 1.0113,1.256 2.1789,2.399 3.4375,3.406 l 5,-3.437 c 1.747,1.114 3.698,1.896 5.813,2.281 l 0.937,5.906 c 0.666,0.061 1.349,0.063 2.031,0.063 0.963,0 1.882,-0.037 2.813,-0.156 l 1.125,-6.032 c 2.007,-0.499 3.893,-1.366 5.531,-2.531 l 4.813,3.5 c 1.248,-1.062 2.389,-2.282 3.374,-3.594 l -3.5,-5.062 c 0.948,-1.637 1.605,-3.443 1.938,-5.375 l 5.906,-0.938 c 0.052,-0.616 0.063,-1.214 0.063,-1.844 0,-1.094 -0.127,-2.167 -0.281,-3.218 l -6,-1.094 C 39.717,16.514 38.946,14.894 37.969,13.438 L 41.5,8.5938 C 40.405,7.2551 39.157,6.0186 37.781,4.9688 l -5.093,3.5 C 31.224,7.6029 29.648,6.9386 27.938,6.5625 L 27,0.625 C 26.147,0.52462 25.286,0.46875 24.406,0.46875 c -0.238,0 -0.482,-0.00748 -0.718,0 -0.116,0.00365 -0.229,-0.00669 -0.344,0 -0.031,0.00181 -0.063,-0.00212 -0.094,0 z m 0.812,15.187 c 0.115,-0.006 0.229,0 0.344,0 3.699,0 6.719,3.02 6.719,6.719 0,3.699 -3.02,6.687 -6.719,6.687 -3.699,0.001 -6.687,-2.988 -6.687,-6.687 0,-3.584 2.804,-6.539 6.343,-6.719 z" />
      <path
         inkscape:connector-curvature="0"
         id="path3283"
         style="opacity:0.64772997;color:#000000;fill:none;stroke:#ffffff;stroke-width:1.64880002"
         d="m 36.239,23.782 a 12.728,12.728 0 1 1 -25.456,0 12.728,12.728 0 1 1 25.456,0 z"
         transform="matrix(0.60652,0,0,0.60652,10.15,7.9368)" />
      <path
         inkscape:connector-curvature="0"
         id="path3285"
         style="opacity:0.34659005;color:#000000;fill:none;stroke:#ffffff"
         d="m 22.558,1.6501 -0.878,5.779 c -1.671,0.3806 -4.745,1.5444 -6.159,2.422 L 10.849,6.3639 C 9.6054,7.3291 9.5201,7.3945 8.5261,8.6137 l 3.3779,5.0103 c -0.969,1.481 -2.1337,4.121 -2.5518,6.008 0,0 -5.9194,0.998 -5.9194,0.998 -0.1017,0.831 -0.0528,2.609 0.0157,3.294 l 5.6542,1.018 c 0.3958,1.933 1.8773,5.044 2.9263,6.637 l -3.5757,4.724 c 0.9479,1.177 1.1377,1.285 2.3177,2.229 l 4.781,-3.502 c 1.638,1.044 4.889,2.315 6.871,2.676 l 0.784,5.707 c 0.625,0.056 2.35,0.216 3.222,0.104 l 0.878,-5.941 c 1.882,-0.468 5.133,-1.803 6.668,-2.895 l 4.776,3.451 c 1.17,-0.995 1.181,-1.145 2.105,-2.374 l -3.539,-5.031 c 0.888,-1.534 2.037,-4.535 2.349,-6.346 L 45.46,23.42 c 0.049,-0.578 0.051,-2.189 -0.093,-3.175 L 39.463,19.226 C 39.022,17.599 37.51,14.666 36.594,13.301 L 40.346,8.5773 C 39.32,7.3226 38.939,7.1504 37.65,6.1664 L 32.707,9.7056 C 31.335,8.894 28.599,7.6569 26.995,7.3044 L 26.122,1.6501 c -0.8,-0.0941 -3.107,-0.0523 -3.564,0 z" />
    </g>
    <text
       xml:space="preserve"
       style="font-size:20px;font-style:normal;font-variant:normal;font-weight:normal;font-stretch:normal;line-height:125%;letter-spacing:0px;word-spacing:0px;fill:#1a1a1a;fill-opacity:1;stroke:none;font-family:Gillius ADF;-inkscape-font-specification:Gillius ADF"
       x="179.60411"
       y="558.28796"
       id="text3180"
       sodipodi:linespacing="125%"
       inkscape:export-filename="/home/proycon/work/lama-logo.png"
       inkscape:export-xdpi="218"
       inkscape:export-ydpi="218"><tspan
         sodipodi:role="line"
         id="tspan3182"
         x="179.60411"
         y="558.28796"
         style="font-size:42px;font-style:normal;font-variant:normal;font-weight:normal;font-stretch:normal;font-family:Sawasdee;-inkscape-font-specification:Sawasdee;fill:#1a1a1a"><tspan
   style="font-weight:bold;fill:#1a1a1a"
   id="tspan3502">LA</tspan>NGUAGE <tspan
   style="font-weight:bold;fill:#1a1a1a"
   id="tspan3504">MA</tspan>CHINES</tspan></text>
    <path
       sodipodi:type="arc"
       style="fill:#000000"
       id="path3506"
       sodipodi:cx="132.90178"
       sodipodi:cy="547.45148"
       sodipodi:rx="6.7410712"
       sodipodi:ry="5.4464288"
       d="m 139.64285,547.45148 a 6.7410712,5.4464288 0 1 1 -13.48214,0 6.7410712,5.4464288 0 1 1 13.48214,0 z"
       transform="matrix(1.0264901,0,0,1.1721311,-0.30629127,-98.117377)"
       inkscape:export-filename="/home/proycon/work/lama-logo.png"
       inkscape:export-xdpi="218"
       inkscape:export-ydpi="218" />
    <text
       xml:space="preserve"
       style="font-size:20px;font-style:normal;font-variant:normal;font-weight:normal;font-stretch:normal;line-height:125%;letter-spacing:0px;word-spacing:0px;fill:#000000;fill-opacity:1;stroke:none;font-family:Gillius ADF;-inkscape-font-specification:Gillius ADF"
       x="160.10918"
       y="541.22498"
       id="text3512"
       sodipodi:linespacing="125%"><tspan
         sodipodi:role="line"
         id="tspan3514" /></text>
    <text
       xml:space="preserve"
       style="font-size:20px;font-style:normal;font-variant:normal;font-weight:normal;font-stretch:normal;line-height:125%;letter-spacing:0px;word-spacing:0px;fill:#e6e6e6;fill-opacity:1;stroke:none;filter:url(#filter3561);font-family:Gillius ADF;-inkscape-font-specification:Gillius ADF"
       x="178.98605"
       y="-572.05774"
       id="text3180-3"
       sodipodi:linespacing="125%"
       transform="matrix(1,0,0,-0.3731524,0,348.37448)"
       inkscape:export-filename="/home/proycon/work/lama-logo.png"
       inkscape:export-xdpi="218"
       inkscape:export-ydpi="218"><tspan
         sodipodi:role="line"
         id="tspan3182-2"
         x="178.98605"
         y="-572.05774"
         style="font-size:42px;font-style:normal;font-variant:normal;font-weight:normal;font-stretch:normal;fill:#e6e6e6;font-family:Sawasdee;-inkscape-font-specification:Sawasdee"><tspan
   style="font-weight:bold;fill:#e6e6e6"
   id="tspan3502-4">LA</tspan>NGUAGE <tspan
   style="font-weight:bold;fill:#e6e6e6"
   id="tspan3504-7">MA</tspan>CHINES</tspan></text>
    <path
       inkscape:connector-curvature="0"
       id="path2998"
       d="m 129.37586,543.58669 c 0,-0.20118 -0.0681,-0.26582 -0.0497,-0.26582 0.0151,0 0.0249,0.0369 0.0217,0.0826 -0.0132,0.19199 0.0751,0.18406 0.16696,0.22264 0.15448,0.0646 -0.18288,-0.13027 0.008,-0.28208 0.19489,-0.15529 -0.33433,-0.0319 -0.25346,-0.24808 0.072,-0.19238 0.15602,-0.49769 0.19024,-0.69109 0.027,-0.15278 0.0347,-0.16456 0.19297,-0.29792 0.26771,-0.22549 0.25949,-0.21599 0.24319,-0.28097 -0.012,-0.0478 -9.1e-4,-0.0667 0.055,-0.0934 0.0824,-0.0394 0.10799,-0.14233 0.0465,-0.1873 -0.0328,-0.024 -0.0359,-0.0439 -0.0151,-0.0984 0.0392,-0.10291 0.0322,-0.123 -0.0375,-0.10964 -0.0771,0.0148 -0.0823,-0.0211 -0.0118,-0.0785 0.0439,-0.0355 0.0495,-0.0595 0.0348,-0.1506 -0.0136,-0.0853 -0.0301,-0.11153 -0.0772,-0.12338 -0.0578,-0.0145 -0.0558,-0.0189 0.0568,-0.12833 0.10292,-0.1 0.11543,-0.12383 0.10611,-0.20275 -0.009,-0.0846 -0.004,-0.0928 0.10928,-0.15011 0.0659,-0.0334 0.14087,-0.0873 0.16672,-0.11982 0.0258,-0.0326 0.087,-0.0705 0.13597,-0.0843 0.11377,-0.0322 0.13084,-0.1113 0.0395,-0.18308 -0.0731,-0.0575 -0.0862,-0.15975 -0.0268,-0.209 0.0402,-0.0334 0.0532,-0.15253 0.0168,-0.15253 -0.0118,0 -0.0222,-0.0519 -0.0231,-0.11543 -9.5e-4,-0.0635 -0.0163,-0.13297 -0.0342,-0.15446 -0.0263,-0.0317 -0.0262,-0.043 6.8e-4,-0.0595 0.0182,-0.0118 0.0361,-0.0761 0.0398,-0.14423 0.004,-0.0681 0.0239,-0.16498 0.0451,-0.21535 0.0389,-0.0931 0.10563,-0.1245 0.26408,-0.1245 0.0795,0 0.095,-0.0463 0.0595,-0.17814 -0.026,-0.0967 -0.0235,-0.11283 0.025,-0.16458 0.0396,-0.0423 0.0495,-0.0751 0.0371,-0.12449 -0.009,-0.0369 -0.0268,-0.0732 -0.0388,-0.0807 -0.012,-0.007 0.017,-0.0692 0.0648,-0.13699 0.084,-0.11963 0.14421,-0.30651 0.0987,-0.30651 -0.0124,0 -0.044,-0.04 -0.0703,-0.089 -0.0446,-0.083 -0.0451,-0.092 -0.006,-0.13546 0.0231,-0.0256 0.0421,-0.0591 0.0421,-0.0746 0,-0.0466 -0.10067,-0.0635 -0.18065,-0.0303 -0.0413,0.0171 -0.0817,0.0247 -0.0897,0.0166 -0.0175,-0.0175 0.14253,-0.22118 0.17376,-0.22118 0.0217,0 0.12195,-0.21072 0.12195,-0.25632 0,-0.0129 -0.0343,-0.0232 -0.0762,-0.0232 -0.0565,0 -0.0762,-0.0119 -0.0762,-0.0458 0,-0.0251 0.009,-0.0566 0.021,-0.0699 0.0118,-0.0133 0.0356,-0.0757 0.0536,-0.13855 0.0766,-0.26897 0.19578,-0.483 0.269,-0.483 0.0551,0 0.0841,-0.0775 0.0739,-0.1972 -0.0106,-0.12898 0.024,-0.23496 0.0777,-0.23496 0.0214,0 0.0387,-0.0144 0.0387,-0.032 0,-0.0176 0.0229,-0.0463 0.0509,-0.0637 0.028,-0.0175 0.0509,-0.0531 0.0509,-0.0793 0,-0.0261 0.0171,-0.0617 0.0381,-0.0792 0.0749,-0.0622 0.03,-0.1271 -0.088,-0.1271 -0.0439,0 -0.076,-0.0653 -0.0768,-0.15612 -2e-4,-0.024 0.028,-0.0489 0.0661,-0.0584 0.0572,-0.0144 0.0644,-0.0268 0.052,-0.089 -0.0151,-0.0758 -0.0186,-0.0709 0.19291,-0.26491 0.0674,-0.0618 0.0954,-0.10858 0.0954,-0.15986 0,-0.0523 0.0247,-0.0922 0.0886,-0.1432 0.0762,-0.0609 0.0845,-0.0774 0.0588,-0.11861 -0.0231,-0.0369 -0.0224,-0.0703 0.002,-0.14652 0.0288,-0.0872 0.027,-0.1087 -0.0157,-0.18499 -0.0582,-0.10421 -0.16334,-0.14109 -0.25944,-0.091 -0.0361,0.0188 -0.0971,0.0467 -0.13559,0.062 -0.0385,0.0152 -0.0699,0.0424 -0.0699,0.0603 0,0.0179 -0.0229,0.0469 -0.0509,0.0643 -0.0422,0.0263 -0.0509,0.0254 -0.0509,-0.006 0,-0.0205 0.0221,-0.0492 0.0491,-0.0637 0.0739,-0.0395 0.0846,-0.11 0.0402,-0.26266 -0.0334,-0.11471 -0.0353,-0.16864 -0.0118,-0.3206 0.0235,-0.15112 0.0221,-0.19235 -0.008,-0.23868 -0.0309,-0.0473 -0.0314,-0.0709 -0.004,-0.15207 0.0183,-0.0529 0.0269,-0.11282 0.019,-0.13345 -0.008,-0.0223 5.1e-4,-0.0374 0.0225,-0.0374 0.10197,0 0.1616,-0.21541 0.091,-0.3285 -0.0255,-0.0408 -0.0177,-0.0623 0.0518,-0.14153 0.0785,-0.0893 0.0812,-0.0997 0.0649,-0.24381 -0.0118,-0.10492 -0.008,-0.15047 0.0118,-0.15047 0.043,0 0.0347,-0.11938 -0.009,-0.13629 -0.021,-0.008 -0.0381,-0.0376 -0.0381,-0.0656 0,-0.0281 -0.0229,-0.0885 -0.0507,-0.13425 -0.028,-0.0458 -0.0508,-0.10256 -0.0509,-0.12623 -1.2e-4,-0.0555 -0.025,-0.0695 -0.1371,-0.0775 -0.0833,-0.006 -0.0917,-0.0136 -0.0924,-0.0829 -6.1e-4,-0.0644 -0.0171,-0.0839 -0.10646,-0.1251 l -0.10575,-0.0489 0.0616,-0.0401 c 0.13394,-0.0873 0.3177,-0.24825 0.33975,-0.29749 0.0129,-0.0286 0.0458,-0.0624 0.0732,-0.0753 0.0281,-0.0131 0.0653,-0.0733 0.085,-0.13768 0.0192,-0.0629 0.0465,-0.14975 0.0604,-0.19294 0.0351,-0.10835 0.007,-0.23143 -0.0571,-0.24814 -0.042,-0.0106 -0.0481,-0.0264 -0.0339,-0.0849 0.0528,-0.21507 0.0557,-0.20577 -0.0711,-0.22478 -0.13962,-0.0209 -0.18673,-0.0996 -0.0958,-0.16005 0.0388,-0.0257 0.0542,-0.0623 0.0542,-0.12847 0,-0.0655 0.0151,-0.10185 0.0518,-0.12483 0.0598,-0.0374 0.0454,-0.0748 -0.0415,-0.10787 -0.0697,-0.0266 -0.0808,-0.0877 -0.0201,-0.11106 0.0291,-0.0106 0.0371,-0.0359 0.0275,-0.0853 -0.009,-0.0494 0.002,-0.0867 0.0416,-0.12894 0.0455,-0.0491 0.0542,-0.0857 0.0494,-0.21116 -0.007,-0.18049 -0.0163,-0.19979 -0.0975,-0.19979 -0.0341,0 -0.0621,-0.0106 -0.0621,-0.0234 0,-0.0129 -0.04,-0.0482 -0.089,-0.0784 -0.0775,-0.0479 -0.10397,-0.0518 -0.20631,-0.03 l -0.11731,0.025 0.0172,-0.12969 c 0.0118,-0.0854 0.034,-0.14147 0.0665,-0.16423 0.059,-0.0413 0.0631,-0.0902 0.0106,-0.13333 -0.0751,-0.0623 -0.0398,-0.13225 0.16681,-0.33048 0.19884,-0.19072 0.20629,-0.20216 0.25001,-0.38427 0.0347,-0.1446 0.0563,-0.18972 0.0937,-0.19652 0.0812,-0.0148 0.0987,-0.0486 0.0613,-0.11849 -0.0329,-0.0615 -0.0286,-0.0709 0.0844,-0.1857 0.11684,-0.1186 0.14584,-0.18857 0.0919,-0.22186 -0.0181,-0.0106 -0.0142,-0.0309 0.0118,-0.0594 0.0212,-0.0235 0.0463,-0.091 0.0557,-0.15 0.0143,-0.0892 0.0106,-0.1074 -0.0242,-0.1074 -0.0589,0 -0.0538,-0.12991 0.008,-0.20878 0.0505,-0.0642 0.032,-0.12169 -0.0393,-0.12169 -0.0166,0 -0.0374,-0.0286 -0.0463,-0.0636 -0.0118,-0.0459 -0.0331,-0.0636 -0.0775,-0.0636 -0.10244,0 -0.0977,-0.0458 0.0106,-0.10103 0.0562,-0.0287 0.12006,-0.0794 0.14189,-0.11271 0.0268,-0.0408 0.0558,-0.0563 0.0893,-0.0476 0.0351,0.009 0.0497,1.3e-4 0.0497,-0.0308 0,-0.0457 0.0532,-0.11743 0.24542,-0.33076 0.10587,-0.11755 0.1133,-0.13472 0.099,-0.22878 -0.008,-0.0559 -0.0151,-0.13887 -0.0147,-0.1843 5.3e-4,-0.0629 -0.0106,-0.0826 -0.0451,-0.0826 -0.0251,0 -0.0595,0.0137 -0.0762,0.0304 -0.0237,0.0237 -0.0305,0.0156 -0.0305,-0.0365 0,-0.0446 0.017,-0.0723 0.0509,-0.0831 0.028,-0.009 0.0509,-0.0358 0.0509,-0.0597 0,-0.0617 0.32595,-0.65751 0.43029,-0.7865 0.0624,-0.0772 0.10008,-0.1035 0.13303,-0.0931 0.0607,0.0192 0.1739,-0.0941 0.1739,-0.17414 0,-0.068 0.0713,-0.14491 0.13426,-0.14491 0.0227,0 0.0705,-0.0132 0.10598,-0.0295 0.0762,-0.0347 0.0878,-0.13249 0.0203,-0.17182 -0.0367,-0.0214 -0.0299,-0.0261 0.0394,-0.0267 0.0461,-4.2e-4 0.11767,-0.0182 0.15889,-0.0395 0.0609,-0.0315 0.0749,-0.0551 0.0749,-0.1256 0,-0.0478 0.0118,-0.0939 0.0254,-0.10256 0.0388,-0.0241 0.0303,-0.0925 -0.0158,-0.12628 -0.0362,-0.0264 -0.0297,-0.0371 0.0523,-0.0855 0.0971,-0.0572 0.17835,-0.19959 0.20808,-0.36436 0.0238,-0.13211 0.10763,-0.29265 0.17623,-0.3376 0.0342,-0.0224 0.0623,-0.0573 0.0623,-0.0775 0,-0.0202 0.022,-0.0484 0.0487,-0.0628 0.0711,-0.038 0.0954,-0.17367 0.0387,-0.21515 -0.0328,-0.024 -0.0404,-0.0529 -0.029,-0.11 0.0118,-0.0563 0.002,-0.093 -0.0336,-0.1342 -0.0569,-0.0656 -0.0425,-0.11 0.0286,-0.0875 0.0536,0.017 0.2089,-0.10704 0.18417,-0.14706 -0.007,-0.0122 0.006,-0.0435 0.0294,-0.0697 0.0237,-0.0262 0.0358,-0.0595 0.0269,-0.074 -0.0223,-0.0361 0.0591,-0.15485 0.1061,-0.15485 0.027,0 0.0346,-0.0186 0.026,-0.0636 -0.007,-0.0349 -0.002,-0.0636 0.008,-0.0636 0.0412,0 0.15314,-0.13352 0.1402,-0.16723 -0.0159,-0.0417 0.0253,-0.0732 0.0478,-0.0366 0.008,0.0142 0.0439,0.0258 0.078,0.0258 0.0675,0 0.0858,-0.0677 0.0326,-0.12094 -0.0215,-0.0215 -0.0218,-0.0385 -0.001,-0.0632 0.0368,-0.0442 0.0106,-0.0782 -0.0898,-0.11915 -0.0454,-0.0184 -0.0826,-0.0406 -0.0827,-0.0494 -2e-5,-0.008 0.0931,-0.0122 0.20695,-0.007 0.21487,0.008 0.24944,-0.006 0.2503,-0.10374 2.9e-4,-0.0335 -0.0204,-0.0445 -0.0841,-0.0445 -0.0578,0 -0.10386,-0.0205 -0.14557,-0.065 -0.0351,-0.0373 -0.0451,-0.0598 -0.0235,-0.053 0.11188,0.0358 0.17673,0.0388 0.20729,0.009 0.0185,-0.0176 0.0664,-0.0466 0.10669,-0.0644 0.0676,-0.03 0.0718,-0.0399 0.0568,-0.13372 -0.0156,-0.0977 -0.0133,-0.10198 0.0627,-0.1172 0.0471,-0.009 0.0893,-0.0387 0.10492,-0.0729 0.0277,-0.0608 0.11929,-0.11353 0.19708,-0.11353 0.029,0 0.0569,-0.028 0.0725,-0.0726 0.0185,-0.0532 0.0472,-0.077 0.10739,-0.089 0.0787,-0.0157 0.0816,-0.0204 0.0669,-0.11177 -0.0181,-0.11342 0.006,-0.16667 0.0602,-0.13249 0.0597,0.0378 0.15186,0.0292 0.15186,-0.0143 0,-0.0214 0.0271,-0.0491 0.0603,-0.0617 0.0335,-0.0127 0.0677,-0.0524 0.077,-0.0892 0.0175,-0.0696 0.0999,-0.11531 0.20795,-0.11531 0.046,0 0.0733,-0.023 0.10422,-0.0878 0.0393,-0.0824 0.0388,-0.10339 -0.007,-0.33609 -0.0417,-0.21269 -0.0576,-0.25264 -0.11058,-0.27908 -0.034,-0.017 -0.0863,-0.0713 -0.11613,-0.12081 -0.0854,-0.14158 -0.14057,-0.19128 -0.2426,-0.21876 -0.0808,-0.0217 -0.0974,-0.0386 -0.11129,-0.11341 -0.009,-0.0518 -0.0734,-0.1573 -0.15532,-0.25722 -0.0764,-0.0931 -0.13882,-0.19003 -0.13882,-0.21527 0,-0.0253 -0.0275,-0.10008 -0.061,-0.16636 -0.058,-0.11437 -0.059,-0.12475 -0.0211,-0.20429 0.032,-0.067 0.0345,-0.10315 0.0129,-0.17994 -0.0434,-0.15421 -0.10929,-0.41443 -0.14653,-0.57912 -0.019,-0.0839 -0.0474,-0.20378 -0.0633,-0.26641 -0.0158,-0.0627 -0.0231,-0.13572 -0.0162,-0.16243 0.007,-0.0267 -0.009,-0.10705 -0.0367,-0.17846 -0.0271,-0.0714 -0.0493,-0.14617 -0.0493,-0.16605 -1e-5,-0.0198 -0.019,-0.057 -0.0421,-0.0826 -0.0392,-0.0433 -0.0392,-0.0497 0,-0.093 0.0582,-0.0642 0.0526,-0.1292 -0.0131,-0.15352 -0.0366,-0.0136 -0.0452,-0.0267 -0.0254,-0.0388 0.0543,-0.0335 0.0348,-0.11708 -0.0274,-0.11779 -0.0545,-6.3e-4 -0.0539,-0.002 0.0127,-0.044 0.0812,-0.0504 0.0943,-0.1475 0.0229,-0.17016 -0.0415,-0.0132 -0.0469,-0.0427 -0.0452,-0.25287 0.001,-0.16424 -0.008,-0.2507 -0.0323,-0.27914 -0.0225,-0.0271 -0.0244,-0.0412 -0.006,-0.0412 0.0367,0 0.0372,-0.13369 5.5e-4,-0.17033 -0.0197,-0.0197 -0.0203,-0.0531 -0.002,-0.11307 0.0446,-0.1465 0.0885,-0.38576 0.0911,-0.49597 10e-4,-0.0582 0.0106,-0.11436 0.0216,-0.12498 0.0306,-0.0308 0.022,-0.11248 -0.0118,-0.11248 -0.0196,0 -0.0155,-0.0155 0.0118,-0.0422 0.0254,-0.0254 0.0784,-0.041 0.13226,-0.0389 0.0766,0.002 0.0924,-0.006 0.10634,-0.0617 0.0106,-0.0441 0.05,-0.0804 0.12103,-0.11247 0.1614,-0.0729 0.19559,-0.11059 0.20729,-0.22827 0.006,-0.0624 0.0295,-0.12186 0.0557,-0.14211 0.07,-0.054 0.1625,-0.0709 0.21377,-0.0389 0.0659,0.0411 0.16631,0.0362 0.18364,-0.009 0.0129,-0.0334 0.0257,-0.0328 0.10445,0.005 0.0493,0.0235 0.09,0.0607 0.0904,0.0826 3.1e-4,0.0218 0.0229,0.0683 0.0503,0.10327 0.0274,0.0349 0.0499,0.0898 0.0503,0.1219 5.1e-4,0.0525 0.009,0.0568 0.0866,0.0422 0.10362,-0.0195 0.12031,10e-4 0.12842,0.1617 0.006,0.11248 0.0908,0.35992 0.19579,0.56928 0.0261,0.0518 0.0473,0.12446 0.0473,0.16131 0,0.0368 0.0169,0.0974 0.0374,0.13447 0.0205,0.0371 0.0617,0.15021 0.0913,0.25132 0.0296,0.10114 0.0757,0.2116 0.10233,0.24552 0.0267,0.0339 0.0485,0.0736 0.0485,0.0883 0,0.0146 0.0326,0.0819 0.0725,0.14947 0.0398,0.0675 0.0807,0.16816 0.091,0.22355 0.0106,0.0554 0.0388,0.14689 0.0635,0.20331 0.0391,0.0891 0.0422,0.14062 0.024,0.39317 -0.0297,0.41176 -0.0139,0.63971 0.0516,0.74589 0.0294,0.0476 0.065,0.1479 0.0792,0.22313 0.0159,0.0844 0.0496,0.16111 0.0877,0.20031 0.19477,0.2002 0.26275,0.28657 0.27543,0.34995 0.0211,0.10574 0.20143,0.23921 0.35612,0.26367 0.0699,0.0106 0.13932,0.0124 0.1544,0.004 0.0477,-0.0294 0.19116,-0.0375 0.5358,-0.0301 0.19578,0.005 0.23154,-10e-4 0.2542,-0.0408 0.0145,-0.0251 0.0465,-0.0669 0.0712,-0.0928 0.0398,-0.0418 0.0512,-0.0431 0.10173,-0.0106 0.0313,0.0198 0.10422,0.0437 0.16222,0.053 0.0991,0.0159 0.10941,0.0118 0.17462,-0.0738 0.0426,-0.0559 0.0909,-0.0908 0.12552,-0.0908 0.0309,0 0.0649,-0.008 0.0754,-0.0191 0.0194,-0.0194 0.28537,-0.0366 0.50227,-0.0326 0.0654,0.001 0.1261,-0.009 0.13496,-0.024 0.009,-0.0144 0.0469,-0.0262 0.0845,-0.0263 0.0885,-2.8e-4 0.25907,-0.15839 0.25907,-0.24016 0,-0.0326 0.0171,-0.0659 0.0381,-0.0739 0.0224,-0.008 0.0381,-0.0467 0.0381,-0.0925 0,-0.0458 0.0157,-0.0839 0.0381,-0.0925 0.021,-0.008 0.0381,-0.0424 0.0381,-0.0762 0,-0.0339 0.017,-0.0681 0.0379,-0.0761 0.0208,-0.008 0.0503,-0.062 0.0655,-0.11996 0.0152,-0.058 0.065,-0.17406 0.11059,-0.25795 0.12698,-0.23362 0.17611,-0.4049 0.15859,-0.55285 -0.0118,-0.0975 -0.004,-0.15105 0.036,-0.23182 0.10044,-0.20705 0.0499,-0.87064 -0.0786,-1.03293 -0.0277,-0.0349 -0.0746,-0.11236 -0.1041,-0.17193 -0.0296,-0.0596 -0.0639,-0.11459 -0.0762,-0.12224 -0.0124,-0.007 -0.0224,-0.0761 -0.0224,-0.1522 0,-0.10457 0.009,-0.13832 0.0373,-0.13832 0.0205,0 0.0764,-0.0344 0.12411,-0.0762 0.11661,-0.10245 0.23307,-0.10528 0.25623,-0.006 0.0283,0.1213 0.12687,0.31136 0.16814,0.32446 0.0218,0.007 0.0539,0.0519 0.0713,0.10008 0.0173,0.0482 0.054,0.0947 0.0813,0.10327 0.0274,0.008 0.0497,0.0321 0.0497,0.0522 0,0.0201 0.0232,0.0596 0.0516,0.0881 0.0319,0.0319 0.0507,0.083 0.0496,0.13345 -0.001,0.0451 0.009,0.12764 0.0233,0.18356 0.082,0.32905 0.10315,0.40005 0.12819,0.4302 0.0152,0.0184 0.0436,0.16158 0.0628,0.3182 0.0283,0.23027 0.046,0.29641 0.0922,0.34559 0.0529,0.0563 0.0548,0.0692 0.0262,0.1712 -0.0176,0.0628 -0.0294,0.2413 -0.0273,0.41402 0.002,0.167 -0.004,0.36083 -0.0129,0.43074 -0.0232,0.17907 -0.0161,0.39181 0.0166,0.49234 0.0154,0.0471 0.0273,0.12906 0.0266,0.1822 -0.001,0.0957 0.0446,0.14596 0.10138,0.11094 0.0138,-0.008 0.0486,0.009 0.0774,0.0407 0.0437,0.0469 0.0694,0.0535 0.15451,0.0399 0.0562,-0.009 0.1146,-0.0244 0.12997,-0.0343 0.0153,-0.009 0.0754,-0.0303 0.1336,-0.0454 0.10409,-0.027 0.10598,-0.0263 0.12012,0.0444 0.0106,0.0559 0.0284,0.0718 0.0785,0.0718 0.0353,0 0.0642,0.0118 0.0642,0.0254 0,0.0392 0.0916,0.0301 0.12711,-0.0127 0.0405,-0.0489 0.0762,-0.0489 0.0762,0 0,0.0494 0.0214,0.0482 0.15564,-0.009 0.21158,-0.0915 0.22567,-0.0918 0.22567,-0.006 0,0.11696 0.0428,0.1189 0.15464,0.007 0.0882,-0.0882 0.1133,-0.10008 0.18556,-0.0884 0.0936,0.0152 0.27868,-0.0642 0.3041,-0.13046 0.008,-0.0216 0.0286,-0.0392 0.0452,-0.0392 0.0189,0 0.0145,0.0173 -0.0119,0.0465 -0.0441,0.0489 -0.0572,0.13145 -0.0208,0.13145 0.0118,0 0.0343,0.0286 0.0503,0.0636 0.0361,0.0793 0.12183,0.0839 0.14594,0.008 0.0168,-0.0528 0.0194,-0.0532 0.0513,-0.009 0.034,0.0465 0.11236,0.0393 0.11236,-0.0106 0,-0.0144 0.0171,-0.0262 0.0381,-0.0262 0.0454,0 0.047,0.0122 0.0106,0.0803 -0.0378,0.0707 -0.008,0.1739 0.0496,0.1739 0.0606,0 0.20679,0.0732 0.20679,0.10351 0,0.0388 0.0697,0.0268 0.15826,-0.0272 0.0458,-0.028 0.12523,-0.0507 0.17656,-0.0509 0.0747,-7e-5 0.11377,-0.0203 0.19572,-0.10149 0.0607,-0.06 0.11743,-0.0956 0.13919,-0.0872 0.0529,0.0203 0.0772,0.22181 0.0393,0.32649 -0.0267,0.0739 -0.025,0.0963 0.0118,0.15236 0.0437,0.0667 0.15072,0.0904 0.1817,0.0402 0.008,-0.0139 0.0379,-0.0254 0.065,-0.0254 0.0415,0 0.0493,0.0181 0.0493,0.11436 0,0.0802 0.0106,0.11436 0.0351,0.11436 0.0192,0 0.0492,0.0171 0.0666,0.038 0.0228,0.0275 0.0587,0.0336 0.13008,0.0222 0.0664,-0.0106 0.11235,-0.005 0.14074,0.0192 0.0231,0.0192 0.10043,0.0364 0.17173,0.038 0.0713,10e-4 0.18008,0.021 0.24181,0.043 0.0991,0.0353 0.12066,0.0356 0.18394,0.002 0.0779,-0.0402 0.11259,-0.12772 0.085,-0.21458 -0.0196,-0.0618 -0.025,-0.0622 0.19716,0.0119 0.0804,0.0268 0.14654,0.0609 0.14699,0.0759 10e-4,0.0416 0.11953,0.16696 0.15755,0.16696 0.0185,0 0.0563,0.015 0.0838,0.0334 0.072,0.048 0.25903,0.0988 0.40226,0.10917 0.0679,0.005 0.17079,0.0315 0.2288,0.0591 0.058,0.0276 0.19125,0.0614 0.29611,0.0752 0.20268,0.0267 0.79367,0.12938 1.13123,0.19663 0.11189,0.0223 0.23925,0.0394 0.28308,0.038 0.0439,-10e-4 0.0938,0.0145 0.11117,0.0353 0.0173,0.0209 0.0493,0.0379 0.0712,0.0379 0.0432,0 0.31223,0.0607 0.47515,0.10717 0.0559,0.0159 0.11975,0.0441 0.14182,0.0627 0.0221,0.0185 0.0595,0.0336 0.0832,0.0336 0.0656,0 0.49459,0.17323 0.58493,0.2362 0.0439,0.0306 0.16131,0.1301 0.26089,0.22112 0.0996,0.091 0.19683,0.17968 0.21608,0.197 0.0192,0.0173 0.0636,0.0609 0.0986,0.0968 0.0504,0.0518 0.0793,0.0621 0.1398,0.0499 0.21604,-0.0435 0.22735,-0.0424 0.34716,0.0342 0.0652,0.0417 0.13385,0.10811 0.15276,0.14773 0.0204,0.0427 0.0885,0.10102 0.16761,0.14349 0.0917,0.0492 0.13323,0.0872 0.13323,0.12178 0,0.0276 0.0218,0.0812 0.0484,0.11913 0.0565,0.0804 0.0957,0.29724 0.11824,0.65357 l 0.016,0.2542 0.12761,0.12075 c 0.0702,0.0665 0.14398,0.12076 0.16396,0.12076 0.0199,0 0.096,0.0561 0.16871,0.12455 0.26508,0.24944 0.33704,0.31115 0.40563,0.34781 0.0385,0.0205 0.0699,0.0562 0.0699,0.0792 0,0.023 0.0152,0.0598 0.034,0.0819 0.0186,0.0221 0.049,0.0801 0.0675,0.12911 0.0184,0.049 0.0505,0.10279 0.0712,0.11967 0.0275,0.0224 0.0373,0.0837 0.0365,0.22879 -7.9e-4,0.13989 0.0106,0.21676 0.0395,0.26164 0.0224,0.0349 0.0428,0.11353 0.0456,0.17469 0.006,0.13105 -0.053,0.20648 -0.16064,0.2069 -0.10775,4.3e-4 -0.30712,0.0683 -0.38918,0.13255 -0.22335,0.17476 -0.22205,0.17417 -0.423,0.19241 -0.16066,0.0146 -0.19932,0.0264 -0.20635,0.0631 -0.005,0.0248 0.015,0.0649 0.0439,0.089 0.0289,0.0241 0.0617,0.0896 0.0729,0.14551 0.0181,0.0903 0.0323,0.10587 0.12738,0.13903 0.13995,0.0489 0.13909,0.055 -0.0273,0.19784 -0.0622,0.0533 -0.12316,0.0826 -0.1724,0.0826 -0.0443,0 -0.0823,0.0159 -0.0907,0.0381 -0.008,0.021 -0.0262,0.0381 -0.0403,0.0381 -0.0142,0 -0.10303,0.0686 -0.1977,0.15251 -0.1284,0.11389 -0.19125,0.15253 -0.24782,0.15253 -0.0417,0 -0.10492,0.0229 -0.14042,0.0509 -0.0355,0.028 -0.08,0.0511 -0.0988,0.0515 -0.047,7.8e-4 -0.13655,0.0766 -0.17186,0.1456 -0.0162,0.0314 -0.0469,0.0572 -0.0682,0.0572 -0.0215,0 -0.0767,0.04 -0.12286,0.089 -0.0505,0.0536 -0.10811,0.089 -0.14484,0.089 -0.0335,0 -0.10362,0.0229 -0.15578,0.0509 -0.0522,0.028 -0.13399,0.0509 -0.18182,0.0509 -0.0478,0 -0.0928,0.0143 -0.0997,0.0317 -0.009,0.0238 -0.0133,0.0241 -0.0149,9.8e-4 -0.002,-0.0393 -0.19214,-0.0912 -0.25747,-0.0705 -0.029,0.009 -0.0498,0.0387 -0.0499,0.0712 -2.1e-4,0.0306 -0.008,0.0682 -0.0191,0.0838 -0.0237,0.0361 -0.13237,0.0708 -0.13519,0.0433 -0.002,-0.0203 -0.005,-0.0369 -0.0382,-0.20509 -0.0127,-0.0649 -0.0289,-0.0826 -0.0754,-0.0826 -0.0326,0 -0.0661,0.0106 -0.0745,0.0248 -0.0203,0.0329 -0.23922,0.002 -0.30938,-0.0428 -0.0301,-0.0195 -0.0622,-0.065 -0.0713,-0.10103 -0.0158,-0.0629 -0.0223,-0.065 -0.15461,-0.0513 -0.076,0.008 -0.14413,0.005 -0.15146,-0.007 -0.007,-0.0119 -0.10185,-0.0158 -0.21006,-0.008 -0.14398,0.009 -0.23765,0.0322 -0.34928,0.085 -0.0839,0.0396 -0.22687,0.091 -0.31776,0.114 -0.20398,0.0517 -0.42399,0.15152 -0.50877,0.23079 -0.0695,0.0649 -0.25122,0.13799 -0.34343,0.13799 -0.0318,0 -0.10752,0.0285 -0.16839,0.0633 -0.0609,0.0348 -0.13196,0.0634 -0.15803,0.0636 -0.0261,1.7e-4 -0.10044,0.0275 -0.16525,0.0608 -0.0648,0.0333 -0.23223,0.10881 -0.37205,0.16787 -0.1398,0.059 -0.27749,0.12202 -0.30594,0.13989 -0.0684,0.0431 -0.37601,0.16559 -0.41545,0.16559 -0.0407,0 -0.18187,0.0734 -0.2261,0.11766 -0.0191,0.0191 -0.0606,0.0348 -0.0921,0.0348 -0.0666,0 -0.29657,0.0728 -0.33192,0.10504 -0.0133,0.0122 -0.0436,0.0221 -0.0672,0.0221 -0.0236,0 -0.0486,0.0146 -0.0556,0.0326 -0.0184,0.0482 -0.25967,0.10256 -0.36595,0.0827 -0.079,-0.0149 -0.10185,-0.007 -0.17051,0.0595 -0.0639,0.0617 -0.10161,0.0768 -0.19369,0.0775 -0.0629,4.8e-4 -0.13729,10e-4 -0.16524,10e-4 -0.17476,0.002 -0.29684,0.0345 -0.33196,0.088 -0.0205,0.0313 -0.0858,0.0714 -0.14502,0.0891 -0.0592,0.0177 -0.14775,0.0467 -0.19668,0.0646 -0.12833,0.0467 -0.41333,0.0954 -0.74993,0.12792 -0.21052,0.0203 -0.35925,0.0555 -0.46291,0.10916 -0.0589,0.0306 -0.12291,0.0555 -0.14232,0.0555 -0.0453,0 -0.0877,0.3338 -0.0808,0.63552 0.002,0.11885 -0.005,0.24322 -0.0173,0.27637 -0.0255,0.0692 0.0136,0.13494 0.0679,0.11413 0.019,-0.007 0.0461,-0.0466 0.0604,-0.0874 0.0299,-0.0858 0.0648,-0.0919 0.16128,-0.0282 l 0.0692,0.0457 -0.0525,0.045 c -0.0489,0.0418 -0.0496,0.0481 -0.0106,0.0909 0.0385,0.0425 0.0385,0.0471 -5.5e-4,0.0621 -0.0276,0.0106 -0.0374,0.0341 -0.0284,0.0686 0.008,0.0321 -0.005,0.0708 -0.0339,0.1 -0.0752,0.0752 -0.042,0.2075 0.0667,0.26604 0.0583,0.0314 0.0864,0.0648 0.0864,0.10304 0,0.0572 -0.0575,0.0913 -0.20972,0.12459 -0.0385,0.008 -0.0699,0.0317 -0.0699,0.0521 0,0.0492 0.0918,0.096 0.15135,0.0771 0.0531,-0.0169 0.0629,-0.006 0.0871,0.095 0.0124,0.0518 0.007,0.0699 -0.0202,0.0699 -0.0203,0 -0.0775,0.0257 -0.12722,0.0572 -0.10928,0.0692 -0.11105,0.1428 -0.005,0.19364 0.0657,0.0314 0.0851,0.0297 0.17877,-0.0158 l 0.10504,-0.051 0.0286,0.0605 c 0.025,0.0531 0.0223,0.0606 -0.0223,0.0606 -0.028,0 -0.085,0.0201 -0.1266,0.0445 -0.0721,0.0424 -0.0773,0.0424 -0.10834,0 -0.051,-0.0694 -0.24317,-0.0533 -0.24317,0.0203 0,0.0186 0.0254,0.0518 0.0565,0.0735 0.0412,0.0288 0.0457,0.0395 0.0166,0.0395 -0.13597,0 -0.15516,0.24332 -0.0256,0.32421 0.0367,0.0229 0.0707,0.0443 0.0755,0.0475 0.005,0.004 9.4e-4,0.0302 -0.008,0.0601 -0.0162,0.0509 -0.0209,0.0518 -0.0777,0.0146 -0.0333,-0.0218 -0.0785,-0.0397 -0.10043,-0.0397 -0.0697,0 -0.17097,0.0838 -0.20788,0.17212 -0.0231,0.0552 -0.0623,0.0948 -0.11094,0.11165 -0.0413,0.0144 -0.0752,0.0405 -0.0752,0.058 0,0.0175 -0.0229,0.0524 -0.0509,0.0776 -0.0714,0.0647 -0.0626,0.1139 0.0389,0.21485 0.0729,0.0726 0.0882,0.10634 0.0882,0.19536 0,0.13115 -0.0376,0.23803 -0.0838,0.23803 -0.0189,0 -0.0726,0.0458 -0.11954,0.10173 -0.047,0.0559 -0.10327,0.10209 -0.12528,0.10256 -0.0556,10e-4 -0.18838,0.21761 -0.172,0.28028 0.009,0.0371 -0.007,0.0605 -0.0617,0.089 -0.0845,0.0437 -0.0759,0.0873 0.0172,0.0873 0.0711,0 0.0708,-8.4e-4 0.0359,0.091 -0.0182,0.0478 -0.0178,0.0942 0.001,0.15169 0.023,0.0696 0.0191,0.0964 -0.0246,0.16793 -0.0729,0.11958 -0.0665,0.17172 0.0251,0.20364 0.0969,0.0338 0.1855,0.19043 0.1468,0.25956 -0.0142,0.0253 -0.0211,0.0849 -0.0156,0.1325 0.007,0.0652 -6.3e-4,0.0901 -0.0333,0.10043 -0.0646,0.0205 -0.0785,0.0837 -0.0247,0.11248 0.0787,0.0421 0.0844,0.10102 0.013,0.13361 -0.0938,0.0427 -0.0775,0.15467 0.025,0.17242 0.0837,0.0145 0.11601,0.0685 0.0549,0.0918 -0.0616,0.0236 -0.13056,0.1839 -0.0945,0.21989 0.0159,0.0159 0.029,0.0607 0.029,0.0993 0,0.044 0.0188,0.0804 0.0503,0.0971 0.056,0.03 0.11448,0.12364 0.0916,0.14658 -0.008,0.008 -0.0425,-10e-6 -0.0764,-0.0182 -0.0826,-0.0443 -0.19259,-0.0156 -0.19259,0.0503 0,0.0277 0.0106,0.0504 0.0241,0.0504 0.0132,0 0.0394,0.0315 0.0582,0.0699 0.0312,0.0639 0.0457,0.0696 0.16662,0.0664 0.11963,-0.004 0.13249,0.002 0.13214,0.0509 -6.1e-4,0.0863 -0.0417,0.13687 -0.0799,0.0987 -0.0173,-0.0173 -0.0636,-0.0315 -0.10268,-0.0315 -0.0392,0 -0.0699,-0.008 -0.0682,-0.0191 0.009,-0.0613 -0.0106,-0.0826 -0.08,-0.0826 -0.0428,0 -0.0832,0.0159 -0.0908,0.0359 -0.019,0.0495 0.0591,0.19295 0.10492,0.19295 0.0207,0 0.0375,0.0118 0.0375,0.0254 0,0.0139 -0.0159,0.0254 -0.0354,0.0254 -0.0569,0 -0.0708,0.0781 -0.0261,0.14647 0.0227,0.0347 0.0859,0.0806 0.1404,0.10197 0.13401,0.0526 0.12579,0.0892 -0.0153,0.068 -0.1087,-0.0163 -0.11437,-0.0142 -0.11437,0.0442 0,0.0338 0.0129,0.0742 0.0286,0.0898 0.0359,0.0359 0.0353,0.19057 -0.001,0.45195 -0.0204,0.14448 -0.0209,0.22074 -0.001,0.26341 0.0196,0.0434 0.0189,0.0699 -0.002,0.0956 -0.0176,0.0211 -0.0242,0.0817 -0.0165,0.15007 0.007,0.063 0.002,0.1213 -0.0118,0.12951 -0.0133,0.008 -0.0168,0.0583 -0.008,0.11141 0.009,0.0585 0.006,0.10303 -0.0106,0.1133 -0.0386,0.0238 -0.0321,0.16733 0.0106,0.2426 0.0199,0.0349 0.0367,0.0889 0.0373,0.11987 5e-4,0.0309 0.0249,0.0692 0.0542,0.0847 0.046,0.0247 0.0512,0.0444 0.0386,0.14707 -0.008,0.0653 -0.0177,0.22725 -0.0215,0.36008 -0.006,0.19824 7.9e-4,0.24912 0.0358,0.2841 0.0258,0.0258 0.0371,0.064 0.0283,0.0971 -0.009,0.034 0.006,0.0823 0.04,0.12796 0.0732,0.0989 0.0684,0.13527 -0.022,0.16939 -0.0851,0.0321 -0.0982,0.0923 -0.0386,0.17743 0.0302,0.0431 0.0321,0.0701 0.009,0.13515 -0.0241,0.0689 -0.0198,0.0982 0.0274,0.19294 0.0444,0.089 0.0523,0.1352 0.0385,0.2274 -0.0138,0.0919 -0.008,0.12598 0.0276,0.16539 0.0387,0.0428 0.0426,0.0798 0.0281,0.26893 l -0.0169,0.21927 0.0895,0.0844 c 0.0496,0.0467 0.0781,0.0915 0.064,0.1002 -0.045,0.0277 -0.0275,0.10386 0.038,0.16533 0.0767,0.072 0.0816,0.14108 0.0128,0.17794 -0.0591,0.0316 -0.0687,0.12711 -0.0128,0.12711 0.0509,0 0.0485,0.0425 -0.004,0.0718 -0.0579,0.0325 -0.0292,0.20502 0.0433,0.25966 0.0463,0.0349 0.0484,0.0445 0.0162,0.0713 -0.0445,0.0369 -0.0502,0.33644 -0.007,0.36584 0.0176,0.0119 0.001,0.0398 -0.0443,0.0767 l -0.0719,0.058 0.0782,0.0696 c 0.0989,0.0882 0.0982,0.11437 -0.005,0.15741 -0.10103,0.0424 -0.17215,0.21856 -0.11578,0.28654 0.0178,0.0215 0.0336,0.0517 0.0352,0.0673 0.001,0.0156 0.005,0.0426 0.007,0.0601 0.002,0.0175 0.024,0.032 0.0484,0.0323 0.0366,4.6e-4 0.0335,0.009 -0.0166,0.0476 -0.0766,0.0589 -0.0572,0.1222 0.049,0.15918 0.063,0.022 0.0745,0.0372 0.0611,0.0814 -0.009,0.03 -0.0368,0.0716 -0.0621,0.0925 -0.0657,0.0546 -0.0653,0.25353 6.2e-4,0.30506 0.0463,0.0362 0.0466,0.0425 0.007,0.12348 -0.0483,0.0988 -0.0236,0.16378 0.0673,0.17725 0.0349,0.005 0.0661,0.0354 0.0812,0.0789 0.0136,0.0388 0.0526,0.0856 0.087,0.10398 0.0813,0.0435 0.0786,0.0659 -0.0139,0.11377 -0.0419,0.0217 -0.0762,0.0556 -0.0762,0.0752 0,0.0197 -0.0343,0.0602 -0.0762,0.0901 -0.0495,0.0352 -0.0762,0.0764 -0.0762,0.11696 0,0.0345 -0.0171,0.0692 -0.0381,0.0772 -0.021,0.008 -0.0381,0.0286 -0.0381,0.0457 0,0.0171 -0.0398,0.0642 -0.0885,0.1048 -0.1094,0.0912 -0.11971,0.11696 -0.0859,0.21399 0.0201,0.0576 0.0426,0.077 0.0893,0.077 0.0353,0 0.0557,0.0106 0.0469,0.0254 -0.008,0.014 -7.3e-4,0.0262 0.0176,0.0273 0.0183,10e-4 0.0106,0.0118 -0.0176,0.0236 -0.028,0.012 -3.3025,0.0227 -7.27677,0.0236 l -6.15449,-0.13293 0.17857,-0.17112 z"
       style="fill:#000000"
       sodipodi:nodetypes="cscccccccccccccccccccccscccccscccccsccsccssssccscsscscsccccsccccccscsccccccscccscscccccccccccccccsccccccssccccccccccccccscscscccscccssscsccssccccscccccsccccccccscsccsccccccscccccccsccccsccscccccccscccccccccccccccccsccccscccccccccccccccscccsccccccccccccccccsccccscscsccccccccsscccccscccccccccccccccccsscscscccscscccsscsscccccccssscccccccccscccccccsccsscccccccsccccsccscccccsccccscccscscssccscscscccccccscccccccccscccccscscsccccccccccsccccccccccccscsccscccccsccscsccccsccsccssccccscccccccsccccscccssccccscscssscccsccccccccccccccccccccccccccccsccccccccccscccccccccccscsssccsccccccc" />
  </g>
</svg>
