<?xml version="1.0" encoding="UTF-8" standalone="no"?>
<!-- Created with Inkscape (http://www.inkscape.org/) -->

<svg
   xmlns:dc="http://purl.org/dc/elements/1.1/"
   xmlns:cc="http://creativecommons.org/ns#"
   xmlns:rdf="http://www.w3.org/1999/02/22-rdf-syntax-ns#"
   xmlns:svg="http://www.w3.org/2000/svg"
   xmlns="http://www.w3.org/2000/svg"
   xmlns:sodipodi="http://sodipodi.sourceforge.net/DTD/sodipodi-0.dtd"
   xmlns:inkscape="http://www.inkscape.org/namespaces/inkscape"
   width="210mm"
   height="297mm"
   viewBox="0 0 744.09448819 1052.3622047"
   id="svg4662"
   version="1.1"
   inkscape:version="0.91 r13725"
   sodipodi:docname="lama-logo-only.svg">
  <defs
     id="defs4664" />
  <sodipodi:namedview
     id="base"
     pagecolor="#ffffff"
     bordercolor="#666666"
     borderopacity="1.0"
     inkscape:pageopacity="0.0"
     inkscape:pageshadow="2"
     inkscape:zoom="1.979899"
     inkscape:cx="70.202432"
     inkscape:cy="574.04316"
     inkscape:document-units="px"
     inkscape:current-layer="layer1"
     showgrid="false"
     inkscape:window-width="3812"
     inkscape:window-height="2096"
     inkscape:window-x="10"
     inkscape:window-y="46"
     inkscape:window-maximized="0" />
  <metadata
     id="metadata4667">
    <rdf:RDF>
      <cc:Work
         rdf:about="">
        <dc:format>image/svg+xml</dc:format>
        <dc:type
           rdf:resource="http://purl.org/dc/dcmitype/StillImage" />
        <dc:title></dc:title>
      </cc:Work>
    </rdf:RDF>
  </metadata>
  <g
     inkscape:label="Layer 1"
     inkscape:groupmode="layer"
     id="layer1">
    <g
       id="g4173"
       transform="matrix(3.5217419,0,0,-3.5217419,444.62699,341.07547)">
      <path
         d="m 0,0 c 0,-0.763 -0.62,-1.383 -1.385,-1.383 -0.764,0 -1.384,0.62 -1.384,1.383 0,0.766 0.62,1.385 1.384,1.385 C -0.62,1.385 0,0.766 0,0"
         style="fill:#231f20;fill-opacity:1;fill-rule:nonzero;stroke:none"
         id="path4175"
         inkscape:connector-curvature="0" />
    </g>
    <g
       id="g4177"
       transform="matrix(3.5217419,0,0,-3.5217419,388.29639,547.05615)">
      <path
         d="m 0,0 c 0,0 -2.031,6.527 -2.199,11.012 -0.17,4.484 0.504,8.287 0.504,8.287 0,0 -3.967,-1.123 -8.184,-1.123 -4.215,0 -8.092,1.123 -8.092,1.123 l 0,-19.1"
         style="fill:none;stroke:#231f20;stroke-width:2;stroke-linecap:round;stroke-linejoin:round;stroke-miterlimit:10;stroke-dasharray:none;stroke-opacity:1"
         id="path4179"
         inkscape:connector-curvature="0" />
    </g>
    <g
       id="g4181"
       transform="matrix(3.5217419,0,0,-3.5217419,405.95333,547.05615)">
      <path
         d="m 0,0 0,19.977 c 0,0 4.526,0.568 6.402,7.189 l 5.431,25.781 c 0.668,2.895 6.255,0.543 6.927,4.106 0.676,3.582 -3.933,3.687 -9.25,5.679 l 3.59,3.5 C 11.843,67.074 9.676,67.578 7.233,65.834 4.544,63.916 3.774,60.27 3.003,57.18 0.123,45.666 -2.65,40.568 -7.781,41.113 l -22.285,0.346 c -0.62,1.178 -1.852,1.98 -3.276,1.98 -2.043,0 -3.699,-1.658 -3.699,-3.701 0,-1.422 0.803,-2.656 1.98,-3.275 -0.123,-0.508 -1.714,-3.447 -1.714,-6.756 0,-3.311 2.095,-7.67 5.875,-9.191 0,0 -0.539,-4.996 -0.041,-9.317 C -30.391,6.447 -28.303,0 -28.303,0"
         style="fill:none;stroke:#231f20;stroke-width:2;stroke-linecap:round;stroke-linejoin:round;stroke-miterlimit:10;stroke-dasharray:none;stroke-opacity:1"
         id="path4183"
         inkscape:connector-curvature="0" />
    </g>
    <g
       id="g4185"
       transform="matrix(3.5217419,0,0,-3.5217419,406.84047,547.51716)">
      <path
         d="M 0,0 16.743358,0"
         style="fill:none;stroke:#231f20;stroke-width:2;stroke-linecap:round;stroke-linejoin:round;stroke-miterlimit:10;stroke-dasharray:none;stroke-opacity:1"
         id="path4187"
         inkscape:connector-curvature="0"
         sodipodi:nodetypes="cc" />
    </g>
    <g
       id="g4189"
       transform="matrix(3.5217419,0,0,-3.5217419,325.00821,547.51716)">
      <path
         d="M 0,0 18.023,0"
         style="fill:none;stroke:#231f20;stroke-width:2;stroke-linecap:round;stroke-linejoin:round;stroke-miterlimit:10;stroke-dasharray:none;stroke-opacity:1"
         id="path4191"
         inkscape:connector-curvature="0" />
    </g>
    <g
       id="g4193"
       transform="matrix(3.5217419,0,0,-3.5217419,90.667985,547.51716)">
      <path
         d="M 43.742065,0 C 96.952719,0 61.111,0 61.111,0"
         style="fill:none;stroke:#231f20;stroke-width:2;stroke-linecap:round;stroke-linejoin:round;stroke-miterlimit:10;stroke-dasharray:none;stroke-opacity:1"
         id="path4195"
         inkscape:connector-curvature="0"
         sodipodi:nodetypes="cc" />
    </g>
    <g
       id="g4197"
       transform="matrix(3.5217419,0,0,-3.5217419,283.36353,564.07158)">
      <path
         d="m 0,0 2.358,0 0,-10.914 5.342,0 0,-2.358 -7.7,0 L 0,0 Z"
         style="fill:#231f20;fill-opacity:1;fill-rule:nonzero;stroke:none"
         id="path4199"
         inkscape:connector-curvature="0" />
    </g>
    <g
       id="g4201"
       transform="matrix(3.5217419,0,0,-3.5217419,327.8773,593.30449)">
      <path
         d="M 0,0 2.999,0 1.451,5.258 0,0 Z m 3.014,8.301 3.908,-13.273 -2.556,0 -0.663,2.336 -4.432,0 -0.638,-2.336 -2.555,0 3.907,13.273 3.029,0 z"
         style="fill:#231f20;fill-opacity:1;fill-rule:nonzero;stroke:none"
         id="path4203"
         inkscape:connector-curvature="0" />
    </g>
    <g
       id="g4253"
       transform="matrix(3.5217419,0,0,-3.5217419,389.66998,581.7419)">
      <path
         d="m 0,0 -3.076,-8.671 -3.285,8.739 0,-8.323 -2.359,0 0,13.273 2.97,0 2.677,-7.318 2.596,7.318 2.837,0 0,-13.273 -2.36,0 L 0,0 Z"
         style="fill:#231f20;fill-opacity:1;fill-rule:nonzero;stroke:none"
         id="path4255"
         inkscape:connector-curvature="0" />
    </g>
    <g
       id="g4257"
       transform="matrix(3.5217419,0,0,-3.5217419,417.83019,593.30449)">
      <path
         d="M 0,0 3,0 1.452,5.258 0,0 Z m 3.016,8.301 3.907,-13.273 -2.556,0 -0.663,2.336 -4.433,0 -0.639,-2.336 -2.556,0 3.909,13.273 3.031,0 z"
         style="fill:#231f20;fill-opacity:1;fill-rule:nonzero;stroke:none"
         id="path4259"
         inkscape:connector-curvature="0" />
    </g>
    <g
       id="g4273"
       transform="matrix(3.5217419,0,0,-3.5217419,544.31237,593.38926)">
      <path
         d="m 0,0 c 0,0.432 -0.15,0.821 -0.451,1.168 -0.3,0.347 -0.659,0.52 -1.075,0.52 -0.432,0 -0.79,-0.173 -1.075,-0.52 C -2.887,0.821 -3.029,0.432 -3.029,0 l 0,-6.382 -2.359,0 0,12.348 2.359,1.503 0,-4.347 c 0.524,0.616 1.241,0.924 2.15,0.924 1.434,0 2.428,-0.755 2.983,-2.265 C 2.273,1.303 2.358,0.778 2.358,0.208 l 0,-6.59 L 0,-6.382 0,0 Z"
         style="fill:none;stroke:#ffffff;stroke-width:0.57800001;stroke-linecap:butt;stroke-linejoin:miter;stroke-miterlimit:10;stroke-dasharray:none;stroke-opacity:1"
         id="path4275"
         inkscape:connector-curvature="0" />
    </g>
  </g>
</svg>
