<?xml version="1.0" encoding="UTF-8" standalone="no"?>
<!-- Created with Inkscape (http://www.inkscape.org/) -->

<svg
   xmlns:dc="http://purl.org/dc/elements/1.1/"
   xmlns:cc="http://creativecommons.org/ns#"
   xmlns:rdf="http://www.w3.org/1999/02/22-rdf-syntax-ns#"
   xmlns:svg="http://www.w3.org/2000/svg"
   xmlns="http://www.w3.org/2000/svg"
   xmlns:xlink="http://www.w3.org/1999/xlink"
   xmlns:sodipodi="http://sodipodi.sourceforge.net/DTD/sodipodi-0.dtd"
   xmlns:inkscape="http://www.inkscape.org/namespaces/inkscape"
   width="744.09448819"
   height="1052.3622047"
   id="svg3139"
   version="1.1"
   inkscape:version="0.48.4 r9939"
   sodipodi:docname="lama-logo.svg">
  <defs
     id="defs3141">
    <linearGradient
       id="linearGradient4136">
      <stop
         style="stop-color:#000000;stop-opacity:1;"
         offset="0"
         id="stop4138" />
      <stop
         style="stop-color:#000000;stop-opacity:0;"
         offset="1"
         id="stop4140" />
    </linearGradient>
    <radialGradient
       id="radialGradient3262"
       gradientUnits="userSpaceOnUse"
       cy="39.160999"
       cx="25.455999"
       gradientTransform="matrix(1,0,0,0.31532,0,26.813)"
       r="19.622">
      <stop
         id="stop3258"
         offset="0" />
      <stop
         id="stop3260"
         stop-opacity="0"
         offset="1" />
    </radialGradient>
    <linearGradient
       id="linearGradient3281"
       x1="14.463"
       gradientUnits="userSpaceOnUse"
       y1="12.285"
       gradientTransform="matrix(1.2419,0,0,1.2419,-5.0275,-7.209)"
       x2="34.534"
       y2="39.685001">
      <stop
         id="stop3266"
         stop-color="#c9c9c9"
         offset="0" />
      <stop
         id="stop3276"
         stop-color="#f8f8f8"
         offset=".25" />
      <stop
         id="stop3272"
         stop-color="#e2e2e2"
         offset=".5" />
      <stop
         id="stop3274"
         stop-color="#b0b0b0"
         offset=".75" />
      <stop
         id="stop3268"
         stop-color="#c9c9c9"
         offset="1" />
    </linearGradient>
    <filter
       id="filter3561"
       inkscape:label="Fancy blur"
       inkscape:menu="Blurs"
       inkscape:menu-tooltip="Smooth colorized contour which allows desaturation and hue rotation"
       color-interpolation-filters="sRGB">
      <feGaussianBlur
         id="feGaussianBlur3563"
         stdDeviation="5"
         result="result1" />
      <feComposite
         id="feComposite3565"
         in2="result1"
         operator="arithmetic"
         k2="2"
         in="result1" />
    </filter>
    <linearGradient
       inkscape:collect="always"
       xlink:href="#linearGradient4136"
       id="linearGradient4142"
       x1="125.37402"
       y1="521.40269"
       x2="164.0819"
       y2="521.40269"
       gradientUnits="userSpaceOnUse"
       gradientTransform="translate(-0.25253814,-0.25253809)" />
    <linearGradient
       inkscape:collect="always"
       xlink:href="#linearGradient3281"
       id="linearGradient4187"
       gradientUnits="userSpaceOnUse"
       gradientTransform="matrix(2.0199969,0.03598568,-0.03519407,1.9755594,88.586007,495.65223)"
       x1="14.463"
       y1="12.285"
       x2="34.534"
       y2="39.685001" />
    <radialGradient
       inkscape:collect="always"
       xlink:href="#radialGradient3262"
       id="radialGradient4190"
       gradientUnits="userSpaceOnUse"
       gradientTransform="matrix(1.6265375,0.02897631,-0.00893582,0.50159706,94.291478,553.82995)"
       cx="25.455999"
       cy="39.160999"
       r="19.622" />
    <linearGradient
       inkscape:collect="always"
       xlink:href="#linearGradient3281"
       id="linearGradient4197"
       gradientUnits="userSpaceOnUse"
       gradientTransform="matrix(2.0199969,0.03598568,-0.03519407,1.9755594,88.586007,495.65223)"
       x1="14.463"
       y1="12.285"
       x2="34.534"
       y2="39.685001" />
  </defs>
  <sodipodi:namedview
     id="base"
     pagecolor="#ffffff"
     bordercolor="#666666"
     borderopacity="1.0"
     inkscape:pageopacity="0.0"
     inkscape:pageshadow="2"
     inkscape:zoom="3.959798"
     inkscape:cx="170.5647"
     inkscape:cy="535.07014"
     inkscape:document-units="px"
     inkscape:current-layer="layer1"
     showgrid="false"
     inkscape:window-width="1920"
     inkscape:window-height="1039"
     inkscape:window-x="0"
     inkscape:window-y="18"
     inkscape:window-maximized="1" />
  <metadata
     id="metadata3144">
    <rdf:RDF>
      <cc:Work
         rdf:about="">
        <dc:format>image/svg+xml</dc:format>
        <dc:type
           rdf:resource="http://purl.org/dc/dcmitype/StillImage" />
        <dc:title></dc:title>
      </cc:Work>
    </rdf:RDF>
  </metadata>
  <g
     inkscape:label="Layer 1"
     inkscape:groupmode="layer"
     id="layer1">
    <path
       d="m 167.26261,574.77879 a 31.920983,9.8438847 1.0206002 0 1 -63.83184,-1.13714 31.920983,9.8438847 1.0206002 0 1 63.83184,1.13714 z"
       style="opacity:0.40909005;color:#000000;fill:url(#radialGradient4190)"
       id="path3254"
       inkscape:connector-curvature="0" />
    <g
       id="g4192"
       transform="matrix(0.99145922,0.13041707,-0.13041707,0.99145922,72.079344,-13.042026)">
      <path
         inkscape:connector-curvature="0"
         id="path3243"
         style="color:#000000;fill:url(#linearGradient4197);stroke:#808080;stroke-width:1.60880232"
         d="m 134.36284,508.68504 c -0.75724,0.0372 -1.4961,0.13872 -2.24091,0.20871 l -0.0504,-9e-4 -1.94858,9.4632 c -2.91162,0.59403 -5.65885,1.64146 -8.13983,3.08716 l -7.87972,-5.75943 c -2.18645,1.59941 -4.18355,3.47478 -5.94552,5.51314 l 5.40047,8.00318 c -1.72775,2.48341 -3.04402,5.33219 -3.81018,8.33557 -4.2e-4,0.0143 -0.001,0.0477 -8.8e-4,0.0493 l -9.68414,1.32008 c -0.201754,1.40627 -0.305164,2.86361 -0.331094,4.31915 -0.02126,1.19307 -0.0087,2.36923 0.08952,3.5326 l 9.627444,1.86302 c 0.62845,3.29238 1.87871,6.37783 3.65144,9.11455 l -5.88139,7.60329 c 1.60932,2.02729 3.47608,3.87936 5.4947,5.51772 l 8.23009,-5.32254 c 2.80999,1.82272 5.9612,3.12322 9.39042,3.79695 l 1.3567,9.42215 c 1.08154,0.11634 2.19241,0.13931 3.30171,0.15907 1.56635,0.0279 3.06219,-0.004 4.57987,-0.16665 l 2.00079,-9.56284 c 3.27861,-0.73563 6.37083,-2.06016 9.06811,-3.86593 l 7.72934,5.70711 c 2.06001,-1.65322 3.95047,-3.56088 5.58979,-5.61941 l -5.54943,-8.15382 c 1.58834,-2.5766 2.70816,-5.43047 3.30455,-8.49416 l 9.63291,-1.32099 c 0.10204,-0.9784 0.13687,-1.92936 0.15473,-2.93153 0.031,-1.74029 -0.14516,-3.45085 -0.36586,-5.1272 l -9.72823,-1.91414 c -0.7169,-2.7752 -1.92505,-5.37456 -3.47292,-7.71901 l 5.88059,-7.60363 c -1.74312,-2.16127 -3.738,-4.1644 -5.94637,-5.87425 l -8.38314,5.42007 c -2.35671,-1.41986 -4.90131,-2.52226 -7.67203,-3.1701 l -1.35743,-9.47229 c -1.38459,-0.18439 -2.78346,-0.29822 -4.21481,-0.32372 -0.38712,-0.007 -0.78378,-0.0259 -1.16785,-0.0208 -0.18879,0.002 -0.37229,-0.0173 -0.55953,-0.01 -0.0505,0.002 -0.10242,-0.005 -0.1529,-0.003 z m 0.89037,24.18233 c 0.18722,-0.006 0.37247,0.007 0.55953,0.01 6.01656,0.10718 10.84312,4.99877 10.73829,10.88298 -0.10482,5.8842 -5.10164,10.54987 -11.1182,10.44269 -6.0166,-0.1056 -10.79198,-4.94694 -10.68716,-10.83115 0.10157,-5.70127 4.74612,-10.3207 10.50754,-10.50449 z" />
      <path
         inkscape:connector-curvature="0"
         id="path3283"
         style="opacity:0.64772997;color:#000000;fill:none;stroke:#ffffff;stroke-width:1.60885084"
         d="m 148.18556,543.76765 a 12.558515,12.282242 1.0205837 0 1 -25.11304,-0.44738 12.558515,12.282242 1.0205837 0 1 25.11304,0.44738 z" />
      <path
         inkscape:connector-curvature="0"
         id="path3285"
         style="opacity:0.34659005;color:#000000;fill:none;stroke:#ffffff;stroke-width:1.60880232"
         d="m 133.2038,510.54422 -1.59187,9.16754 c -2.72873,0.55702 -7.76169,2.31927 -10.08648,3.67434 l -7.50036,-5.68266 c -2.05012,1.49937 -2.19071,1.60093 -3.84204,3.51158 l 5.35229,8.06804 c -1.61808,2.32783 -3.58733,6.49368 -4.32086,9.48332 0,0 -9.6564,1.41605 -9.6564,1.41605 -0.18897,1.31897 -0.15982,4.14875 -0.0678,5.2404 l 9.16792,1.78323 c 0.58901,3.0864 2.91056,8.07817 4.57165,10.64264 l -5.94988,7.41112 c 1.50844,1.89978 1.8141,2.07708 3.70666,3.61295 l 7.87572,-5.43229 c 2.63468,1.70821 7.88654,3.82426 11.1001,4.45596 l 1.11348,9.10116 c 1.015,0.10719 3.81624,0.41169 5.23776,0.2588 l 1.59646,-9.42524 c 3.0744,-0.68994 8.40011,-2.7194 10.92779,-4.41202 l 7.67055,5.62808 c 1.93124,-1.5489 1.95338,-1.78719 3.49113,-3.71546 l -5.61374,-8.10563 c 1.48784,-2.41449 3.44177,-7.15506 4.00057,-10.02687 l 9.4514,-1.36083 c 0.0961,-0.91804 0.14498,-3.48069 -0.0613,-5.05334 l -9.5742,-1.79206 c -0.67119,-2.60094 -3.0474,-7.31044 -4.49862,-9.50836 l 6.23663,-7.40553 c -1.63327,-2.02565 -2.2481,-2.31062 -4.31682,-3.91328 l -8.14027,5.48678 c -2.20861,-1.33082 -6.62376,-3.37802 -9.22274,-3.98524 l -1.25973,-9.01991 c -1.29856,-0.17287 -5.05217,-0.17322 -5.79698,-0.10327 z" />
    </g>
    <text
       xml:space="preserve"
       style="font-size:20px;font-style:normal;font-variant:normal;font-weight:normal;font-stretch:normal;line-height:125%;letter-spacing:0px;word-spacing:0px;fill:#1a1a1a;fill-opacity:1;stroke:none;font-family:Gillius ADF;-inkscape-font-specification:Gillius ADF"
       x="179.60411"
       y="558.28796"
       id="text3180"
       sodipodi:linespacing="125%"
       inkscape:export-filename="/home/proycon/work/lama-logo.png"
       inkscape:export-xdpi="218"
       inkscape:export-ydpi="218"><tspan
         sodipodi:role="line"
         id="tspan3182"
         x="179.60411"
         y="558.28796"
         style="font-size:42px;font-style:normal;font-variant:normal;font-weight:normal;font-stretch:normal;font-family:Sawasdee;-inkscape-font-specification:Sawasdee;fill:#1a1a1a"><tspan
   style="font-weight:bold;fill:#1a1a1a"
   id="tspan3502">LA</tspan>NGUAGE <tspan
   style="font-weight:bold;fill:#1a1a1a"
   id="tspan3504">MA</tspan>CHINES</tspan></text>
    <path
       sodipodi:type="arc"
       style="fill:#454545;fill-opacity:1"
       id="path3506"
       sodipodi:cx="132.90178"
       sodipodi:cy="547.45148"
       sodipodi:rx="6.7410712"
       sodipodi:ry="5.4464288"
       d="m 139.64285,547.45148 a 6.7410712,5.4464288 0 1 1 -13.48214,0 6.7410712,5.4464288 0 1 1 13.48214,0 z"
       transform="matrix(1.5226216,0,0,1.7386548,-66.569682,-407.62775)"
       inkscape:export-filename="/home/proycon/work/lama-logo.png"
       inkscape:export-xdpi="218"
       inkscape:export-ydpi="218" />
    <text
       xml:space="preserve"
       style="font-size:20px;font-style:normal;font-variant:normal;font-weight:normal;font-stretch:normal;line-height:125%;letter-spacing:0px;word-spacing:0px;fill:#000000;fill-opacity:1;stroke:none;font-family:Gillius ADF;-inkscape-font-specification:Gillius ADF"
       x="160.10918"
       y="541.22498"
       id="text3512"
       sodipodi:linespacing="125%"><tspan
         sodipodi:role="line"
         id="tspan3514" /></text>
    <text
       xml:space="preserve"
       style="font-size:20px;font-style:normal;font-variant:normal;font-weight:normal;font-stretch:normal;line-height:125%;letter-spacing:0px;word-spacing:0px;fill:#e6e6e6;fill-opacity:1;stroke:none;filter:url(#filter3561);font-family:Gillius ADF;-inkscape-font-specification:Gillius ADF"
       x="178.98605"
       y="-572.05774"
       id="text3180-3"
       sodipodi:linespacing="125%"
       transform="matrix(1,0,0,-0.3731524,0,348.37448)"
       inkscape:export-filename="/home/proycon/work/lama-logo.png"
       inkscape:export-xdpi="218"
       inkscape:export-ydpi="218"><tspan
         sodipodi:role="line"
         id="tspan3182-2"
         x="178.98605"
         y="-572.05774"
         style="font-size:42px;font-style:normal;font-variant:normal;font-weight:normal;font-stretch:normal;fill:#e6e6e6;font-family:Sawasdee;-inkscape-font-specification:Sawasdee"><tspan
   style="font-weight:bold;fill:#e6e6e6"
   id="tspan3502-4">LA</tspan>NGUAGE <tspan
   style="font-weight:bold;fill:#e6e6e6"
   id="tspan3504-7">MA</tspan>CHINES</tspan></text>
    <path
       inkscape:connector-curvature="0"
       id="path2998"
       d="m 125.79146,543.85098 c 0,-0.29844 -0.10098,-0.39432 -0.0737,-0.39432 0.0224,0 0.0369,0.0548 0.0321,0.12251 -0.0197,0.28478 0.1114,0.27302 0.24766,0.33023 0.22913,0.0958 -0.27129,-0.19321 0.0125,-0.41841 0.28908,-0.23033 -0.49592,-0.0472 -0.37597,-0.36797 0.10673,-0.28537 0.23142,-0.73823 0.28219,-1.02513 0.04,-0.22661 0.0515,-0.24407 0.28624,-0.4419 0.39709,-0.33449 0.3849,-0.3204 0.36073,-0.41678 -0.0178,-0.0708 -0.001,-0.0988 0.0815,-0.13854 0.12224,-0.0585 0.16017,-0.21112 0.0691,-0.27784 -0.0487,-0.0356 -0.0533,-0.0651 -0.0225,-0.14594 0.0581,-0.15265 0.0478,-0.18245 -0.0556,-0.16264 -0.11441,0.022 -0.12215,-0.0313 -0.0174,-0.11641 0.0651,-0.0526 0.0735,-0.0882 0.0516,-0.22337 -0.0202,-0.12652 -0.0446,-0.16543 -0.11454,-0.18301 -0.0858,-0.0215 -0.0827,-0.0281 0.0844,-0.19036 0.15267,-0.14833 0.17121,-0.18368 0.1574,-0.30073 -0.0132,-0.12549 -0.005,-0.13765 0.16211,-0.22267 0.0977,-0.0496 0.20895,-0.1295 0.24728,-0.17774 0.0383,-0.0484 0.12906,-0.10456 0.2017,-0.12506 0.16876,-0.0476 0.19407,-0.16509 0.0586,-0.27154 -0.10835,-0.0853 -0.12787,-0.23697 -0.0398,-0.31002 0.0596,-0.0496 0.0789,-0.22626 0.0249,-0.22626 -0.0174,0 -0.0329,-0.077 -0.0343,-0.17122 -0.001,-0.0941 -0.0241,-0.19724 -0.0508,-0.2291 -0.039,-0.047 -0.0388,-0.0638 10e-4,-0.0883 0.0269,-0.0175 0.0535,-0.11291 0.0591,-0.21393 0.005,-0.10098 0.0355,-0.24473 0.0669,-0.31944 0.0578,-0.13809 0.15669,-0.18468 0.39173,-0.18468 0.11789,0 0.14092,-0.0688 0.0883,-0.26424 -0.0385,-0.14344 -0.0349,-0.16736 0.0371,-0.24412 0.0587,-0.0628 0.0735,-0.1114 0.055,-0.18467 -0.0133,-0.0548 -0.0397,-0.10851 -0.0576,-0.11976 -0.0178,-0.0109 0.0251,-0.10256 0.096,-0.20319 0.12463,-0.17745 0.21392,-0.45467 0.14639,-0.45467 -0.0183,0 -0.0652,-0.0594 -0.10424,-0.13202 -0.066,-0.12311 -0.0669,-0.13645 -0.009,-0.20092 0.0343,-0.0379 0.0625,-0.0878 0.0625,-0.11061 0,-0.0692 -0.14931,-0.0941 -0.26797,-0.0449 -0.0613,0.0254 -0.12113,0.0366 -0.13304,0.0246 -0.026,-0.0261 0.21141,-0.32809 0.25774,-0.32809 0.0321,0 0.18089,-0.31256 0.18089,-0.38019 0,-0.0191 -0.0509,-0.0344 -0.11302,-0.0344 -0.0838,0 -0.11303,-0.0176 -0.11303,-0.0678 0,-0.0373 0.0133,-0.0839 0.0312,-0.10372 0.0174,-0.0198 0.0528,-0.11232 0.0795,-0.20552 0.11361,-0.39897 0.29039,-0.71644 0.39899,-0.71644 0.0816,0 0.12478,-0.11499 0.10968,-0.29249 -0.0157,-0.19134 0.0356,-0.34854 0.11521,-0.34854 0.0316,0 0.0575,-0.0214 0.0575,-0.0474 0,-0.0262 0.034,-0.0688 0.0755,-0.0945 0.0415,-0.026 0.0754,-0.0787 0.0754,-0.11761 0,-0.0387 0.0252,-0.0915 0.0566,-0.11754 0.11118,-0.0924 0.0444,-0.18852 -0.13054,-0.18852 -0.0651,0 -0.1128,-0.0968 -0.11395,-0.23159 -3.1e-4,-0.0356 0.0417,-0.0725 0.0981,-0.0865 0.0849,-0.0214 0.0956,-0.0397 0.0772,-0.13202 -0.0224,-0.11245 -0.0276,-0.10519 0.28614,-0.39294 0.10007,-0.0916 0.14152,-0.16104 0.14152,-0.23713 0,-0.0776 0.0367,-0.13675 0.13142,-0.2124 0.11302,-0.0903 0.12534,-0.11475 0.0872,-0.17594 -0.0343,-0.0548 -0.0333,-0.10436 0.002,-0.21734 0.0428,-0.12934 0.0399,-0.16123 -0.0233,-0.27441 -0.0863,-0.15458 -0.2423,-0.20928 -0.38483,-0.13497 -0.0535,0.0279 -0.14403,0.0692 -0.20113,0.0921 -0.0571,0.0226 -0.10372,0.0629 -0.10372,0.0895 0,0.0266 -0.034,0.0696 -0.0754,0.0955 -0.0626,0.039 -0.0754,0.0376 -0.0754,-0.009 0,-0.0304 0.0328,-0.0729 0.0728,-0.0945 0.10968,-0.0586 0.12549,-0.16317 0.0596,-0.3896 -0.0496,-0.17016 -0.0523,-0.25015 -0.0174,-0.47554 0.0349,-0.22418 0.0328,-0.28533 -0.0125,-0.35406 -0.0458,-0.0702 -0.0465,-0.10519 -0.005,-0.22557 0.027,-0.0784 0.0399,-0.16735 0.0282,-0.19796 -0.0125,-0.0331 7.4e-4,-0.0553 0.0334,-0.0553 0.15125,0 0.2397,-0.31953 0.13499,-0.48729 -0.0379,-0.0605 -0.0264,-0.0925 0.0769,-0.20992 0.1164,-0.13247 0.12051,-0.14789 0.0963,-0.36165 -0.0174,-0.15565 -0.0125,-0.22322 0.0174,-0.22322 0.0638,0 0.0515,-0.17707 -0.0132,-0.20215 -0.0312,-0.0125 -0.0566,-0.0559 -0.0566,-0.0973 0,-0.0418 -0.034,-0.13126 -0.0752,-0.19913 -0.0417,-0.0678 -0.0753,-0.15213 -0.0754,-0.18723 -1.6e-4,-0.0823 -0.0371,-0.10309 -0.20335,-0.115 -0.12363,-0.009 -0.13602,-0.0202 -0.13707,-0.123 -9e-4,-0.0956 -0.0252,-0.12451 -0.15791,-0.18558 l -0.15687,-0.0725 0.0914,-0.0595 c 0.19866,-0.12949 0.47126,-0.36823 0.50395,-0.44126 0.0191,-0.0424 0.0679,-0.0926 0.10851,-0.11164 0.0418,-0.0194 0.0968,-0.10874 0.1261,-0.20423 0.0284,-0.0933 0.069,-0.22213 0.0896,-0.28618 0.0521,-0.16072 0.0109,-0.34329 -0.0848,-0.36808 -0.0623,-0.0157 -0.0712,-0.0391 -0.0502,-0.12593 0.0783,-0.31903 0.0826,-0.30522 -0.10541,-0.33342 -0.2071,-0.0311 -0.27697,-0.14775 -0.1421,-0.23741 0.0576,-0.0382 0.0803,-0.0925 0.0803,-0.19056 0,-0.0971 0.0225,-0.15108 0.0769,-0.18517 0.0887,-0.0554 0.0673,-0.11096 -0.0615,-0.16 -0.10351,-0.0393 -0.11987,-0.13009 -0.0299,-0.16474 0.0433,-0.0157 0.055,-0.0533 0.0408,-0.12654 -0.0132,-0.0732 0.002,-0.12859 0.0618,-0.19125 0.0674,-0.0728 0.0804,-0.12713 0.0733,-0.31323 -0.0109,-0.26772 -0.0241,-0.29632 -0.14463,-0.29632 -0.0506,0 -0.0922,-0.0157 -0.0922,-0.0347 0,-0.0191 -0.0594,-0.0715 -0.13203,-0.11627 -0.11499,-0.071 -0.15421,-0.077 -0.30603,-0.0444 l -0.174,0.0371 0.0257,-0.19236 c 0.0175,-0.12669 0.0503,-0.20986 0.0986,-0.24362 0.0875,-0.0613 0.0936,-0.13379 0.0157,-0.19779 -0.11139,-0.0925 -0.059,-0.19617 0.24744,-0.49018 0.29493,-0.28291 0.30599,-0.29988 0.37085,-0.57001 0.0515,-0.21448 0.0834,-0.28141 0.13899,-0.29149 0.12051,-0.022 0.1464,-0.0722 0.0909,-0.17577 -0.0488,-0.0912 -0.0424,-0.1052 0.1252,-0.27546 0.1733,-0.17593 0.21631,-0.2797 0.1363,-0.32909 -0.0268,-0.0157 -0.021,-0.0458 0.0174,-0.0881 0.0314,-0.0349 0.0686,-0.13497 0.0826,-0.22252 0.0211,-0.1323 0.0157,-0.1593 -0.0359,-0.1593 -0.0875,0 -0.0799,-0.19268 0.0125,-0.30968 0.0749,-0.0952 0.0473,-0.1805 -0.0583,-0.1805 -0.0245,0 -0.0554,-0.0424 -0.0687,-0.0943 -0.0174,-0.068 -0.0491,-0.0943 -0.11488,-0.0943 -0.15195,0 -0.14492,-0.0679 0.0157,-0.14986 0.0832,-0.0425 0.17808,-0.11777 0.21045,-0.16719 0.0397,-0.0605 0.0827,-0.0835 0.13247,-0.0706 0.0521,0.0134 0.0737,1.8e-4 0.0737,-0.0457 0,-0.0676 0.079,-0.17416 0.36406,-0.49061 0.15702,-0.17437 0.16805,-0.19985 0.14683,-0.33938 -0.0125,-0.0829 -0.0224,-0.20596 -0.0218,-0.27336 7.8e-4,-0.0933 -0.0157,-0.12251 -0.0669,-0.12251 -0.0372,0 -0.0883,0.0204 -0.11301,0.0452 -0.0352,0.0352 -0.0454,0.0232 -0.0454,-0.0541 0,-0.0662 0.0251,-0.10727 0.0755,-0.12327 0.0417,-0.0132 0.0754,-0.0532 0.0754,-0.0885 0,-0.0916 0.4835,-0.9753 0.63827,-1.16664 0.0927,-0.11452 0.14845,-0.15352 0.19733,-0.13809 0.09,0.0284 0.25795,-0.13957 0.25795,-0.25832 0,-0.10087 0.10576,-0.21493 0.19915,-0.21493 0.0337,0 0.10456,-0.0195 0.1572,-0.0438 0.11304,-0.0515 0.13025,-0.19652 0.0301,-0.25487 -0.0544,-0.0316 -0.0443,-0.0387 0.0584,-0.0394 0.0683,-6.3e-4 0.17456,-0.0269 0.23569,-0.0586 0.0903,-0.0468 0.11118,-0.0817 0.11118,-0.18629 0,-0.0708 0.0174,-0.13929 0.0377,-0.15215 0.0576,-0.0357 0.0449,-0.13718 -0.0234,-0.18728 -0.0536,-0.0391 -0.044,-0.0549 0.0776,-0.12686 0.14402,-0.0849 0.26453,-0.29605 0.30865,-0.54045 0.0354,-0.19597 0.15963,-0.4341 0.2614,-0.50077 0.0508,-0.0333 0.0925,-0.085 0.0925,-0.11488 0,-0.03 0.0327,-0.0719 0.0723,-0.0932 0.10541,-0.0564 0.1415,-0.25759 0.0575,-0.31912 -0.0488,-0.0356 -0.0598,-0.0785 -0.0431,-0.16317 0.0174,-0.0834 0.002,-0.13795 -0.0499,-0.19906 -0.0846,-0.0973 -0.063,-0.16316 0.0424,-0.1298 0.0795,0.0253 0.30985,-0.15876 0.27318,-0.21814 -0.0109,-0.0182 0.009,-0.0646 0.0437,-0.10352 0.0353,-0.0389 0.0531,-0.0882 0.04,-0.10979 -0.0332,-0.0535 0.0877,-0.22968 0.15737,-0.22968 0.04,0 0.0513,-0.0277 0.0386,-0.0943 -0.0109,-0.0517 -0.002,-0.0944 0.0125,-0.0944 0.0612,0 0.22715,-0.19804 0.20796,-0.24805 -0.0235,-0.0618 0.0376,-0.10853 0.0708,-0.0543 0.0125,0.021 0.0652,0.0383 0.11566,0.0383 0.10027,0 0.12726,-0.10048 0.0484,-0.17939 -0.0318,-0.0318 -0.0322,-0.0571 -10e-4,-0.0938 0.0546,-0.0655 0.0157,-0.11602 -0.13319,-0.17674 -0.0673,-0.0273 -0.12251,-0.0602 -0.12263,-0.0733 -5e-5,-0.0125 0.13808,-0.0181 0.30696,-0.0109 0.31873,0.0125 0.37002,-0.009 0.37128,-0.15387 4.3e-4,-0.0497 -0.0302,-0.0659 -0.12475,-0.0659 -0.0858,0 -0.15406,-0.0304 -0.21594,-0.0965 -0.0519,-0.0553 -0.0669,-0.0886 -0.0348,-0.0786 0.16595,0.0531 0.26214,0.0576 0.30748,0.0133 0.0276,-0.0262 0.0984,-0.0691 0.15826,-0.0956 0.10037,-0.0444 0.1065,-0.0593 0.0843,-0.19836 -0.0232,-0.14494 -0.0197,-0.15127 0.093,-0.17384 0.07,-0.0134 0.13246,-0.0575 0.15565,-0.10815 0.0411,-0.0901 0.17692,-0.1684 0.29234,-0.1684 0.0429,0 0.0845,-0.0416 0.10759,-0.1077 0.0274,-0.0789 0.0701,-0.1143 0.1593,-0.13203 0.11675,-0.0233 0.121,-0.0303 0.0993,-0.16577 -0.0268,-0.16825 0.009,-0.24726 0.0894,-0.19655 0.0885,0.0561 0.22527,0.0434 0.22527,-0.0213 0,-0.0316 0.0401,-0.0728 0.0894,-0.0914 0.0497,-0.0189 0.10047,-0.0778 0.11431,-0.13231 0.026,-0.10341 0.14817,-0.17105 0.30845,-0.17105 0.0683,0 0.10876,-0.0341 0.15459,-0.13024 0.0582,-0.12225 0.0576,-0.15335 -0.0109,-0.49852 -0.0619,-0.31548 -0.0854,-0.37475 -0.16403,-0.41398 -0.0505,-0.0251 -0.128,-0.10574 -0.17226,-0.17918 -0.12667,-0.21004 -0.20851,-0.28375 -0.35985,-0.32451 -0.11989,-0.0321 -0.14447,-0.0572 -0.16508,-0.16822 -0.0132,-0.077 -0.10887,-0.23331 -0.2304,-0.38155 -0.11326,-0.13809 -0.20591,-0.28187 -0.20591,-0.31931 0,-0.0376 -0.0408,-0.14845 -0.0904,-0.24677 -0.0861,-0.16964 -0.0877,-0.18503 -0.0313,-0.30302 0.0473,-0.0994 0.0512,-0.153 0.0191,-0.26691 -0.0643,-0.22874 -0.16212,-0.61473 -0.21735,-0.85903 -0.0282,-0.12449 -0.0704,-0.30227 -0.0939,-0.39517 -0.0234,-0.093 -0.0343,-0.20131 -0.024,-0.24093 0.0109,-0.0394 -0.0134,-0.15879 -0.0544,-0.26473 -0.0402,-0.10596 -0.0731,-0.21681 -0.0731,-0.2463 -1e-5,-0.0294 -0.0282,-0.0847 -0.0624,-0.1225 -0.0581,-0.0644 -0.0581,-0.0738 0,-0.13795 0.0863,-0.0953 0.078,-0.19166 -0.0195,-0.22772 -0.0543,-0.0202 -0.067,-0.0394 -0.0376,-0.0576 0.0806,-0.0497 0.0516,-0.17367 -0.0407,-0.17473 -0.0808,-9.2e-4 -0.0799,-0.002 0.0189,-0.0653 0.12039,-0.0747 0.13987,-0.21878 0.034,-0.25241 -0.0616,-0.0197 -0.0696,-0.0633 -0.0671,-0.37507 0.001,-0.24363 -0.0125,-0.37188 -0.0478,-0.41406 -0.0335,-0.0401 -0.0362,-0.0612 -0.009,-0.0612 0.0544,0 0.055,-0.1983 8.2e-4,-0.25265 -0.0292,-0.0292 -0.0301,-0.0787 -0.002,-0.16772 0.066,-0.2173 0.13129,-0.5722 0.13514,-0.73569 0.001,-0.0863 0.0157,-0.16961 0.0319,-0.18538 0.0455,-0.0457 0.0327,-0.16685 -0.0174,-0.16685 -0.029,0 -0.023,-0.023 0.0174,-0.0626 0.0377,-0.0377 0.11626,-0.0608 0.19618,-0.0577 0.1136,0.002 0.13707,-0.009 0.15774,-0.0916 0.0157,-0.0654 0.0741,-0.11925 0.17953,-0.16682 0.23942,-0.10814 0.29011,-0.16404 0.30749,-0.33862 0.009,-0.0926 0.0438,-0.18073 0.0826,-0.21079 0.10381,-0.0801 0.24103,-0.1052 0.31708,-0.0578 0.0977,0.0611 0.24669,0.0536 0.2724,-0.0134 0.0191,-0.0495 0.0382,-0.0488 0.15493,0.006 0.0731,0.0348 0.13351,0.09 0.13409,0.1225 4.6e-4,0.0321 0.034,0.10118 0.0746,0.1532 0.0406,0.0517 0.074,0.13319 0.0745,0.18081 7.6e-4,0.0779 0.0132,0.0842 0.12846,0.0625 0.1537,-0.0288 0.17846,10e-4 0.19047,0.23988 0.009,0.16683 0.13469,0.53386 0.29044,0.84441 0.0387,0.077 0.0702,0.18462 0.0702,0.23928 0,0.0546 0.025,0.14448 0.0554,0.19947 0.0304,0.0549 0.0915,0.2228 0.13544,0.37278 0.0439,0.15003 0.11221,0.31388 0.15178,0.36419 0.0394,0.0503 0.0721,0.1092 0.0721,0.13098 0,0.0217 0.0485,0.12151 0.1076,0.22169 0.0591,0.10027 0.11976,0.24946 0.135,0.33162 0.0157,0.0822 0.0576,0.21788 0.0941,0.30158 0.058,0.13217 0.0626,0.20857 0.0356,0.58319 -0.044,0.61078 -0.0206,0.9489 0.0767,1.10641 0.0437,0.0706 0.0964,0.21937 0.11751,0.33096 0.0235,0.12519 0.0736,0.23898 0.13009,0.29713 0.28892,0.29697 0.38976,0.42508 0.40855,0.51909 0.0313,0.15685 0.29879,0.35482 0.52825,0.39111 0.10372,0.0157 0.20667,0.0183 0.22903,0.005 0.0707,-0.0436 0.28354,-0.0556 0.79476,-0.0446 0.2904,0.006 0.34345,-10e-4 0.37705,-0.0605 0.0214,-0.0372 0.069,-0.0991 0.10564,-0.13765 0.059,-0.0619 0.0759,-0.0639 0.15091,-0.0157 0.0464,0.0294 0.15459,0.0649 0.24062,0.0786 0.14699,0.0235 0.16227,0.0174 0.25903,-0.10955 0.0632,-0.0829 0.13483,-0.13471 0.18617,-0.13471 0.0458,0 0.0963,-0.0125 0.11186,-0.0283 0.0287,-0.0287 0.42331,-0.0543 0.74505,-0.0484 0.0971,0.001 0.18705,-0.0135 0.20017,-0.0356 0.0134,-0.0213 0.0696,-0.0389 0.12535,-0.039 0.13127,-4.1e-4 0.38428,-0.23495 0.38428,-0.35623 0,-0.0484 0.0253,-0.0977 0.0566,-0.10969 0.0333,-0.0125 0.0566,-0.0692 0.0566,-0.1372 0,-0.0678 0.0233,-0.12449 0.0566,-0.13722 0.0312,-0.0125 0.0566,-0.0629 0.0566,-0.11302 0,-0.0503 0.0251,-0.10098 0.0563,-0.11291 0.0308,-0.0125 0.0745,-0.0921 0.0972,-0.17795 0.0226,-0.0861 0.0964,-0.2582 0.16406,-0.38261 0.18835,-0.34655 0.26121,-0.60062 0.23522,-0.82007 -0.0174,-0.14462 -0.005,-0.22406 0.0534,-0.34387 0.14898,-0.30713 0.074,-1.29145 -0.11665,-1.53217 -0.041,-0.0517 -0.11071,-0.16667 -0.15442,-0.25503 -0.0439,-0.0884 -0.0948,-0.16998 -0.11301,-0.18132 -0.0185,-0.0109 -0.0333,-0.11291 -0.0333,-0.22575 0,-0.15512 0.0134,-0.20519 0.0553,-0.20519 0.0304,0 0.11325,-0.0511 0.18409,-0.11302 0.17297,-0.15198 0.34572,-0.15616 0.38006,-0.009 0.042,0.17992 0.1882,0.46186 0.24942,0.48129 0.0322,0.0109 0.08,0.077 0.10575,0.14845 0.0258,0.0715 0.0801,0.14045 0.12063,0.15319 0.0408,0.0125 0.0737,0.0476 0.0737,0.0774 0,0.0298 0.0345,0.0884 0.0768,0.13069 0.0472,0.0472 0.0752,0.12313 0.0736,0.19794 -0.001,0.0669 0.0132,0.18935 0.0346,0.27229 0.12162,0.4881 0.15301,0.59342 0.19016,0.63812 0.0226,0.0273 0.0647,0.23969 0.0932,0.472 0.042,0.34157 0.0683,0.43968 0.13676,0.51261 0.0785,0.0833 0.0812,0.10256 0.0388,0.25396 -0.0262,0.0932 -0.0437,0.35793 -0.0405,0.61414 0.002,0.24769 -0.005,0.53521 -0.0191,0.63893 -0.0344,0.26561 -0.0238,0.58117 0.0245,0.7303 0.0228,0.07 0.0405,0.19142 0.0393,0.27025 -0.001,0.14196 0.066,0.21651 0.15037,0.16456 0.0205,-0.0125 0.0722,0.0132 0.11475,0.0602 0.0649,0.0695 0.10289,0.0794 0.22918,0.0592 0.0832,-0.0134 0.17,-0.0361 0.1928,-0.051 0.0227,-0.0132 0.11187,-0.0449 0.19817,-0.0673 0.15441,-0.04 0.1572,-0.039 0.17818,0.0659 0.0157,0.0829 0.0422,0.1065 0.1164,0.1065 0.0524,0 0.0952,0.0174 0.0952,0.0376 0,0.0581 0.13587,0.0445 0.18856,-0.0189 0.06,-0.0725 0.11302,-0.0725 0.11302,0 0,0.0733 0.0316,0.0716 0.23086,-0.0132 0.31385,-0.13572 0.33475,-0.13618 0.33475,-0.009 0,0.17347 0.0635,0.17637 0.22937,0.0108 0.13084,-0.13083 0.16808,-0.14845 0.27526,-0.13115 0.13884,0.0226 0.41337,-0.0953 0.45107,-0.19351 0.0125,-0.0319 0.0424,-0.0581 0.067,-0.0581 0.0281,0 0.0215,0.0258 -0.0177,0.069 -0.0654,0.0725 -0.0849,0.19498 -0.0309,0.19498 0.0174,0 0.0509,0.0424 0.0745,0.0943 0.0535,0.11765 0.18069,0.1245 0.21646,0.0125 0.025,-0.0783 0.0287,-0.0789 0.076,-0.0133 0.0503,0.069 0.16667,0.0582 0.16667,-0.0157 0,-0.0214 0.0253,-0.0389 0.0566,-0.0389 0.0673,0 0.0697,0.0181 0.0157,0.11915 -0.0561,0.10488 -0.0125,0.25794 0.0737,0.25794 0.0899,0 0.30673,0.10851 0.30673,0.15354 0,0.0576 0.10351,0.0397 0.23476,-0.0404 0.0679,-0.0416 0.18576,-0.0752 0.26189,-0.0754 0.11083,-1.1e-4 0.16875,-0.0301 0.29031,-0.15055 0.09,-0.0889 0.1742,-0.1418 0.20646,-0.12934 0.0785,0.0301 0.11454,0.32901 0.0582,0.48428 -0.0394,0.10968 -0.0371,0.14286 0.0174,0.22601 0.0649,0.0988 0.22356,0.13409 0.26952,0.0596 0.0125,-0.0206 0.0563,-0.0376 0.0964,-0.0376 0.0615,0 0.0731,0.0268 0.0731,0.16965 0,0.11901 0.0157,0.16964 0.052,0.16964 0.0284,0 0.073,0.0253 0.0987,0.0564 0.0339,0.0408 0.087,0.0498 0.19298,0.0329 0.0984,-0.0157 0.16664,-0.006 0.20876,0.0284 0.0344,0.0284 0.14897,0.054 0.25472,0.0564 0.10576,0.001 0.26713,0.0312 0.35869,0.0638 0.147,0.0523 0.17899,0.0528 0.27284,0.002 0.11557,-0.0596 0.16702,-0.18945 0.12609,-0.31828 -0.0289,-0.0917 -0.0371,-0.0924 0.29245,0.0176 0.11927,0.0397 0.21737,0.0902 0.21803,0.11256 0.001,0.0618 0.17731,0.24765 0.23371,0.24765 0.0276,0 0.0833,0.0223 0.12424,0.0496 0.10684,0.0711 0.38423,0.14655 0.59669,0.16194 0.10068,0.006 0.25334,0.0466 0.33938,0.0877 0.0861,0.041 0.28369,0.091 0.43923,0.11152 0.30064,0.0394 1.17728,0.19192 1.67799,0.29167 0.16597,0.0332 0.35489,0.0583 0.4199,0.0565 0.0651,-0.001 0.13915,0.0214 0.1649,0.0523 0.0257,0.0309 0.0731,0.0563 0.10564,0.0563 0.0641,0 0.46313,0.09 0.7048,0.15897 0.0829,0.0235 0.17764,0.0654 0.21037,0.0931 0.0328,0.0276 0.0883,0.0498 0.12338,0.0498 0.0973,0 0.73362,0.25697 0.86764,0.35037 0.0652,0.0455 0.23927,0.19299 0.38699,0.328 0.14774,0.13497 0.29196,0.26653 0.32052,0.2922 0.0284,0.0258 0.0942,0.0903 0.14625,0.1436 0.0747,0.077 0.11763,0.0922 0.20735,0.0739 0.32048,-0.0646 0.33726,-0.0629 0.51496,0.0508 0.0967,0.0618 0.19855,0.16037 0.22661,0.21914 0.0302,0.0633 0.13127,0.14984 0.24861,0.21284 0.13602,0.073 0.19762,0.12934 0.19762,0.18064 0,0.041 0.0322,0.12038 0.072,0.17671 0.0838,0.11927 0.14194,0.4409 0.17538,0.96945 l 0.0236,0.37706 0.18929,0.17912 c 0.10415,0.0987 0.21357,0.17911 0.24321,0.17911 0.0296,0 0.1424,0.0831 0.25025,0.18477 0.3932,0.36999 0.49995,0.46153 0.60169,0.5159 0.0571,0.0304 0.10371,0.0832 0.10371,0.11753 0,0.0341 0.0226,0.0886 0.0503,0.12149 0.0276,0.0329 0.0727,0.11878 0.10027,0.19153 0.0274,0.0727 0.0749,0.15247 0.10564,0.1775 0.0408,0.0333 0.0553,0.12415 0.0541,0.33938 -0.001,0.2075 0.0157,0.32152 0.0586,0.38809 0.0332,0.0517 0.0634,0.16841 0.0675,0.25912 0.009,0.19441 -0.0785,0.30629 -0.23828,0.3069 -0.15983,6.6e-4 -0.45555,0.10118 -0.57727,0.19663 -0.33131,0.25922 -0.32937,0.25834 -0.62744,0.2854 -0.23832,0.0217 -0.29568,0.0391 -0.3061,0.0936 -0.006,0.0368 0.0223,0.0963 0.0652,0.13203 0.0428,0.0357 0.0916,0.1329 0.10815,0.21583 0.0268,0.13395 0.0479,0.15704 0.18894,0.20624 0.2076,0.0725 0.20631,0.0815 -0.0406,0.29345 -0.0924,0.079 -0.1827,0.12252 -0.25574,0.12252 -0.0657,0 -0.12213,0.0235 -0.13453,0.0565 -0.0125,0.0312 -0.0389,0.0565 -0.0597,0.0565 -0.021,0 -0.15283,0.10182 -0.29325,0.22622 -0.19046,0.16893 -0.2837,0.22626 -0.3676,0.22626 -0.0618,0 -0.15563,0.034 -0.20829,0.0755 -0.0526,0.0416 -0.11864,0.0757 -0.14657,0.0764 -0.0697,0.001 -0.20253,0.11359 -0.25492,0.21597 -0.024,0.0465 -0.0695,0.0849 -0.10108,0.0849 -0.0318,0 -0.11382,0.0594 -0.18225,0.132 -0.0748,0.0795 -0.16036,0.13201 -0.21483,0.13201 -0.0497,0 -0.15371,0.034 -0.23108,0.0755 -0.0775,0.0416 -0.19875,0.0754 -0.2697,0.0754 -0.0708,0 -0.13766,0.0212 -0.14789,0.0471 -0.0132,0.0354 -0.0198,0.0358 -0.0222,10e-4 -0.002,-0.0583 -0.28501,-0.13529 -0.3819,-0.10457 -0.043,0.0134 -0.0739,0.0575 -0.074,0.10564 -3.2e-4,0.0454 -0.0125,0.10108 -0.0283,0.12426 -0.0352,0.0535 -0.19634,0.10509 -0.20053,0.0644 -0.002,-0.0301 -0.006,-0.0548 -0.0567,-0.30422 -0.0189,-0.0963 -0.0429,-0.12251 -0.11188,-0.12251 -0.0484,0 -0.0981,0.0157 -0.11048,0.0367 -0.0301,0.0489 -0.35484,0.002 -0.4589,-0.0634 -0.0446,-0.0288 -0.0924,-0.0964 -0.10577,-0.14985 -0.0234,-0.0933 -0.0331,-0.0964 -0.22932,-0.076 -0.11279,0.0125 -0.21379,0.006 -0.22466,-0.0108 -0.0108,-0.0175 -0.15108,-0.0234 -0.31161,-0.0125 -0.21355,0.0134 -0.35249,0.0476 -0.51806,0.12608 -0.12451,0.0587 -0.33655,0.13497 -0.47137,0.16909 -0.30256,0.0767 -0.6289,0.22476 -0.75466,0.34233 -0.10309,0.0963 -0.37266,0.2047 -0.50943,0.2047 -0.0471,0 -0.15948,0.0423 -0.24979,0.0939 -0.0903,0.0516 -0.19572,0.094 -0.2344,0.0942 -0.0387,2.8e-4 -0.14897,0.0408 -0.2451,0.0901 -0.096,0.0495 -0.34449,0.16139 -0.55187,0.249 -0.20738,0.0877 -0.41163,0.18099 -0.45382,0.2075 -0.1014,0.0639 -0.55775,0.24562 -0.61625,0.24562 -0.0603,0 -0.26977,0.10887 -0.33539,0.17454 -0.0283,0.0283 -0.0898,0.0516 -0.1366,0.0516 -0.0987,0 -0.43991,0.10802 -0.49234,0.15581 -0.0198,0.0181 -0.0647,0.0329 -0.0997,0.0329 -0.035,0 -0.0722,0.0217 -0.0825,0.0484 -0.0272,0.0716 -0.38519,0.15214 -0.54282,0.12264 -0.11714,-0.0222 -0.15109,-0.0108 -0.25293,0.0882 -0.0948,0.0915 -0.15071,0.11395 -0.28729,0.11487 -0.0933,7.4e-4 -0.20366,10e-4 -0.24511,10e-4 -0.25923,0.002 -0.44033,0.0512 -0.49241,0.13055 -0.0304,0.0464 -0.12727,0.10586 -0.21511,0.13215 -0.0879,0.0263 -0.21917,0.0693 -0.29175,0.0958 -0.19036,0.0692 -0.61311,0.14151 -1.11239,0.18975 -0.31226,0.0301 -0.53288,0.0823 -0.68664,0.16192 -0.0875,0.0455 -0.18233,0.0823 -0.21111,0.0823 -0.0672,0 -0.1301,0.49515 -0.11989,0.9427 0.002,0.17629 -0.006,0.36078 -0.0257,0.40994 -0.0378,0.10267 0.0203,0.20016 0.10067,0.16929 0.0282,-0.0109 0.0684,-0.0691 0.0896,-0.12964 0.0443,-0.12727 0.096,-0.1363 0.23922,-0.0419 l 0.10267,0.0676 -0.0779,0.0667 c -0.0725,0.062 -0.0736,0.0712 -0.0157,0.13485 0.0571,0.063 0.0571,0.0699 -8.5e-4,0.0921 -0.0409,0.0157 -0.0554,0.0505 -0.0422,0.10182 0.0125,0.0476 -0.006,0.1051 -0.0503,0.14834 -0.11151,0.11151 -0.0623,0.30777 0.0988,0.39463 0.0864,0.0465 0.12815,0.096 0.12815,0.15282 0,0.0849 -0.0853,0.13544 -0.31107,0.18483 -0.0571,0.0125 -0.10373,0.047 -0.10373,0.0774 0,0.073 0.13618,0.1424 0.22451,0.11442 0.0787,-0.025 0.0934,-0.009 0.12919,0.1409 0.0186,0.077 0.0109,0.10373 -0.03,0.10373 -0.0301,0 -0.11499,0.0382 -0.18871,0.0848 -0.16211,0.10256 -0.16473,0.21182 -0.006,0.28724 0.0974,0.0465 0.12623,0.044 0.26519,-0.0234 l 0.15581,-0.0755 0.0424,0.0897 c 0.037,0.0787 0.0331,0.0899 -0.0332,0.0899 -0.0415,0 -0.12609,0.0298 -0.18779,0.0659 -0.10694,0.0629 -0.11463,0.0629 -0.16069,0 -0.0756,-0.10288 -0.36071,-0.079 -0.36071,0.0301 0,0.0277 0.0376,0.077 0.0838,0.10898 0.0612,0.0427 0.0676,0.0586 0.0245,0.0586 -0.20168,0 -0.23015,0.36092 -0.0379,0.4809 0.0545,0.034 0.10488,0.0657 0.11199,0.0705 0.006,0.005 0.001,0.0448 -0.0125,0.0891 -0.024,0.0754 -0.0311,0.077 -0.11521,0.0217 -0.0495,-0.0322 -0.11641,-0.0588 -0.14899,-0.0588 -0.1035,0 -0.25359,0.12425 -0.30835,0.25531 -0.0343,0.0818 -0.0925,0.14062 -0.16457,0.16561 -0.0613,0.0213 -0.11153,0.0599 -0.11153,0.0861 0,0.0261 -0.034,0.0778 -0.0754,0.1151 -0.10596,0.0959 -0.0929,0.16893 0.0578,0.3187 0.10815,0.1077 0.13083,0.15773 0.13083,0.28977 0,0.19453 -0.0558,0.35307 -0.12425,0.35307 -0.0281,0 -0.1077,0.0678 -0.17731,0.15091 -0.0697,0.0829 -0.15317,0.15143 -0.18582,0.15213 -0.0824,0.001 -0.27944,0.32279 -0.25515,0.41575 0.0133,0.0549 -0.0109,0.0897 -0.0915,0.13201 -0.12537,0.0649 -0.11257,0.12949 0.0255,0.12949 0.10541,0 0.1051,-10e-4 0.0533,0.13498 -0.0269,0.0708 -0.0265,0.13974 0.001,0.22501 0.0342,0.1033 0.0283,0.14299 -0.0364,0.24909 -0.10814,0.17739 -0.0987,0.25472 0.0372,0.30207 0.14374,0.0501 0.27516,0.28247 0.21775,0.38503 -0.021,0.0376 -0.0313,0.1259 -0.0232,0.19653 0.0109,0.0967 -9.1e-4,0.13364 -0.0494,0.14895 -0.0958,0.0304 -0.11639,0.12415 -0.0366,0.16686 0.11677,0.0625 0.1252,0.14985 0.0193,0.19819 -0.13914,0.0633 -0.11499,0.22943 0.0371,0.25575 0.12414,0.0215 0.1721,0.10172 0.0815,0.13617 -0.0914,0.0351 -0.19368,0.27278 -0.14017,0.32617 0.0235,0.0235 0.0429,0.09 0.0429,0.1473 0,0.0652 0.028,0.11926 0.0746,0.14403 0.083,0.0444 0.1698,0.1834 0.13584,0.21742 -0.0125,0.0125 -0.063,-1e-5 -0.11324,-0.0269 -0.12253,-0.0657 -0.28568,-0.0232 -0.28568,0.0745 0,0.0411 0.0157,0.0747 0.0357,0.0747 0.0197,0 0.0585,0.0467 0.0863,0.10371 0.0463,0.0948 0.0676,0.1034 0.24716,0.0984 0.17744,-0.005 0.19652,0.002 0.196,0.0754 -9.1e-4,0.12801 -0.0618,0.20303 -0.11853,0.14641 -0.0258,-0.0257 -0.0942,-0.0467 -0.15229,-0.0467 -0.0581,0 -0.10372,-0.0125 -0.10119,-0.0283 0.0132,-0.0908 -0.0157,-0.12249 -0.11864,-0.12249 -0.0635,0 -0.12337,0.0235 -0.13468,0.0533 -0.0282,0.0735 0.0878,0.28619 0.15563,0.28619 0.0307,0 0.0555,0.0174 0.0555,0.0377 0,0.0206 -0.0235,0.0376 -0.0524,0.0376 -0.0846,0 -0.10498,0.1159 -0.0387,0.21726 0.0338,0.0515 0.12741,0.11952 0.20826,0.15125 0.19878,0.078 0.18659,0.13233 -0.0227,0.10088 -0.16125,-0.0241 -0.16966,-0.021 -0.16966,0.0655 0,0.0501 0.0191,0.11003 0.0424,0.1332 0.0532,0.0533 0.0524,0.28268 -0.001,0.67039 -0.0303,0.21431 -0.0311,0.32743 -0.001,0.39073 0.0289,0.0644 0.0281,0.10372 -0.002,0.1418 -0.0262,0.0313 -0.0359,0.12113 -0.0244,0.22262 0.0108,0.0935 0.002,0.17992 -0.0174,0.19211 -0.0198,0.0125 -0.0249,0.0864 -0.0125,0.16526 0.0132,0.0868 0.009,0.1528 -0.0157,0.16804 -0.0573,0.0354 -0.0476,0.24821 0.0157,0.35985 0.0297,0.0517 0.0544,0.13186 0.0551,0.17782 7.3e-4,0.0458 0.037,0.10256 0.0803,0.12563 0.0682,0.0367 0.0759,0.0658 0.0572,0.21816 -0.0125,0.0969 -0.0263,0.33709 -0.0318,0.53413 -0.009,0.29404 0.001,0.3695 0.0532,0.42138 0.0383,0.0383 0.055,0.0949 0.042,0.14405 -0.0134,0.0504 0.009,0.12201 0.0594,0.18981 0.10852,0.14669 0.1015,0.20064 -0.0326,0.25125 -0.12624,0.0476 -0.14566,0.13692 -0.0574,0.26318 0.0446,0.064 0.0476,0.10393 0.0132,0.20049 -0.0357,0.10214 -0.0294,0.14567 0.0406,0.28618 0.0658,0.13202 0.0776,0.20056 0.0571,0.33732 -0.0205,0.13631 -0.0125,0.18687 0.041,0.24531 0.0575,0.0636 0.0631,0.11841 0.0418,0.39893 l -0.025,0.32524 0.13275,0.1252 c 0.0736,0.0692 0.11589,0.13571 0.095,0.14863 -0.0667,0.0411 -0.0408,0.15405 0.0564,0.24524 0.11371,0.10683 0.12101,0.20926 0.019,0.26393 -0.0878,0.0469 -0.10192,0.18855 -0.019,0.18855 0.0755,0 0.0721,0.063 -0.005,0.10652 -0.0859,0.0482 -0.0434,0.30411 0.0642,0.38515 0.0686,0.0517 0.0718,0.066 0.024,0.10575 -0.066,0.0548 -0.0744,0.49904 -0.0108,0.54268 0.0262,0.0177 0.001,0.059 -0.0657,0.11383 l -0.10662,0.0861 0.11604,0.1034 c 0.14669,0.13084 0.14566,0.16965 -0.006,0.23351 -0.14986,0.0629 -0.25534,0.32419 -0.17173,0.42503 0.0265,0.0318 0.0499,0.0767 0.0522,0.1 0.001,0.0232 0.006,0.0632 0.0108,0.0893 0.002,0.026 0.0356,0.0473 0.0718,0.0478 0.0543,6.9e-4 0.0497,0.0133 -0.0245,0.0706 -0.1136,0.0875 -0.0849,0.18128 0.0727,0.23614 0.0935,0.0326 0.11049,0.055 0.0907,0.12075 -0.0134,0.0444 -0.0547,0.10618 -0.0922,0.13722 -0.0974,0.0809 -0.0968,0.37607 9.3e-4,0.45251 0.0686,0.0536 0.0692,0.063 0.0109,0.18316 -0.0717,0.14654 -0.0351,0.24294 0.1,0.26291 0.0517,0.006 0.0981,0.0525 0.12038,0.117 0.0203,0.0576 0.0781,0.12697 0.12906,0.15425 0.12064,0.0645 0.11652,0.0977 -0.0206,0.16874 -0.0622,0.032 -0.11302,0.0825 -0.11302,0.11153 0,0.0293 -0.0509,0.0893 -0.11302,0.13364 -0.0734,0.0523 -0.11303,0.11327 -0.11303,0.1735 0,0.0512 -0.0254,0.10256 -0.0566,0.11452 -0.0312,0.0125 -0.0566,0.0424 -0.0566,0.0677 0,0.0253 -0.0591,0.0952 -0.13127,0.15543 -0.16227,0.13529 -0.17756,0.17349 -0.12742,0.31742 0.0299,0.0854 0.0632,0.11429 0.13247,0.11429 0.0523,0 0.0826,0.0157 0.0695,0.0377 -0.0125,0.0207 -0.001,0.0389 0.0262,0.0406 0.0271,10e-4 0.0157,0.0174 -0.0262,0.0351 -0.0417,0.0179 -4.89868,0.0337 -10.79384,0.035 l -9.12911,-0.19717 0.26488,-0.25382 z"
       style="fill:#454545;fill-opacity:1;stroke:url(#linearGradient4142);stroke-opacity:1"
       sodipodi:nodetypes="cscccccccccccccccccccccscccccscccccsccsccssssccscsscscsccccsccccccscsccccccscccscscccccccccccccccsccccccssccccccccccccccscscscccscccssscsccssccccscccccsccccccccscsccsccccccscccccccsccccsccscccccccscccccccccccccccccsccccscccccccccccccccscccsccccccccccccccccsccccscscsccccccccsscccccscccccccccccccccccsscscscccscscccsscsscccccccssscccccccccscccccccsccsscccccccsccccsccscccccsccccscccscscssccscscscccccccscccccccccscccccscscsccccccccccsccccccccccccscsccscccccsccscsccccsccsccssccccscccccccsccccscccssccccscscssscccsccccccccccccccccccccccccccccsccccccccccscccccccccccscsssccsccccccc" />
    <rect
       style="color:#000000;fill:#454545;fill-opacity:1;stroke:none;stroke-width:1.39999998;marker:none;visibility:visible;display:inline;overflow:visible;enable-background:accumulate"
       id="rect4144"
       width="18.214285"
       height="2.5892856"
       x="126.62246"
       y="543.27039" />
  </g>
</svg>
